<svg xmlns="http://www.w3.org/2000/svg" viewBox="0 0 674.19 791.61"><defs><style>.cls-1{isolation:isolate;}.cls-2{fill:#8ba2ad;}.cls-3,.cls-4{fill:#bac7ce;}.cls-4,.cls-7{opacity:0.5;}.cls-21,.cls-4,.cls-7{mix-blend-mode:multiply;}.cls-5{fill:#dfdfdf;}.cls-6,.cls-7{fill:#2f3231;}.cls-8,.cls-9{fill:#fff;}.cls-9{mix-blend-mode:soft-light;}.cls-10{fill:#aeca40;}.cls-11{fill:#828c90;}.cls-12{fill:#323738;}.cls-13{fill:#61696c;}.cls-14{fill:#5e5e5e;}.cls-15{fill:#93c01f;}.cls-16{fill:#e64645;}.cls-17{fill:#569cc9;}.cls-18{fill:#00afb0;}.cls-19{fill:#bdbebe;}.cls-20,.cls-21{fill:#ccc;}</style></defs><title>21</title><g class="cls-1"><g id="Icon"><rect class="cls-2" x="479.11" y="124.64" width="33.75" height="114.78"/><path class="cls-3" d="M800.17,383.75H310.27c-22.44,3.55-18.92,24.5-18.92,24.5V532.81h538.5V413.33S828.47,383.75,800.17,383.75Z" transform="translate(-223.81 -144.32)"/><path class="cls-4" d="M329.62,515.1V390.55a24.39,24.39,0,0,1,.07-6.8H310.27c-22.44,3.55-18.92,24.5-18.92,24.5V532.81h538.5V515.1Z" transform="translate(-223.81 -144.32)"/><polygon class="cls-5" points="671.42 668.67 605.66 388.48 336.76 388.48 67.87 388.48 2.1 668.67 671.42 668.67"/><rect class="cls-6" x="355.02" y="269.01" width="206.75" height="89.89" rx="3"/><path class="cls-7" d="M782.58,413.33H771.1v69.8a3,3,0,0,1-3,3H578.82v14.1a3,3,0,0,0,3,3H782.58a3,3,0,0,0,3-3v-83.9A3,3,0,0,0,782.58,413.33Z" transform="translate(-223.81 -144.32)"/><path class="cls-8" d="M585.41,440.58c-.22-4.63-.37-9.26-.52-13.89v.06a4.72,4.72,0,0,1,2.9-4.49,12,12,0,0,1,2.53-.9c.86-.15,1.73-.19,2.6-.28,3.35-.14,6.62-.15,9.94-.24,6.62-.11,13.25-.32,19.86-.34l19.88-.13c6.62,0,13.25-.14,19.86-.05,13.25.15,26.5.05,39.74.4s26.5.56,39.74,1.15c-13.24.61-26.48.93-39.74,1.17s-26.49.25-39.74.39c-6.61.09-13.24,0-19.86,0l-19.88-.13c-6.61,0-13.24-.24-19.86-.35-3.3-.05-6.65-.17-9.9-.16-.79.05-1.59.05-2.37.14a10.56,10.56,0,0,0-2.19.6,3.59,3.59,0,0,0-2.47,3.14v.06C585.78,431.32,585.64,436,585.41,440.58Z" transform="translate(-223.81 -144.32)"/><path class="cls-9" d="M764.57,422H591.93a7,7,0,0,0-7,7.05v20.87H764.57Z" transform="translate(-223.81 -144.32)"/><path class="cls-10" d="M668,451.41V439.74l1.67-4.45a3.58,3.58,0,0,1,2.78,2.78v15.56l-1.12,1.11Zm3.33,4.44,1.12,1.11v15.57a3.58,3.58,0,0,1-2.78,2.78L668,470.86V459.19Z" transform="translate(-223.81 -144.32)"/><path class="cls-10" d="M690.76,475.31h-4.45v-4.45h4.45Z" transform="translate(-223.81 -144.32)"/><path class="cls-10" d="M709.1,440.84v10.57l-3.34,3.33-1.11-1.11V439.18Zm-4.45,30.57V457l1.11-1.11,3.34,3.34v10.56Zm19.46,3.9H707.43a3.59,3.59,0,0,1-2.78-2.78l4.45-1.67h13.33Zm-1.68-35.57H709.16l-4.45-1.67a3.55,3.55,0,0,1,2.78-2.78h16.62Zm1.12,11.67V439.74l1.67-4.45a3.56,3.56,0,0,1,2.77,2.78v15.56l-1.11,1.11Zm3.33,4.44L728,457v15.57a3.56,3.56,0,0,1-2.77,2.78l-1.67-4.45V459.19Z" transform="translate(-223.81 -144.32)"/><path class="cls-10" d="M736.89,440.84v10.57l-3.34,3.33-1.1-1.11V439.18Zm-4.44,30.57V457l1.1-1.11,3.34,3.34v10.56Zm19.45,3.9H735.23a3.55,3.55,0,0,1-2.78-2.78l4.44-1.67h13.34Zm-1.67-35.57H737l-4.45-1.67a3.59,3.59,0,0,1,2.77-2.78H751.9Zm1.11,11.67V439.74l1.67-4.45a3.58,3.58,0,0,1,2.78,2.78v15.56l-1.12,1.11Zm3.33,4.44,1.12,1.11v15.57a3.58,3.58,0,0,1-2.78,2.78l-1.67-4.45V459.19Z" transform="translate(-223.81 -144.32)"/><rect class="cls-11" x="115.31" y="275.96" width="181.12" height="56.09"/><rect class="cls-12" x="115.31" y="304.01" width="181.12" height="28.04"/><rect class="cls-13" x="115.31" y="313.95" width="181.12" height="18.09"/><polygon class="cls-14" points="518.76 504.12 491.95 504.12 494.93 526.9 522.33 526.9 518.76 504.12"/><polygon class="cls-14" points="529.63 463.12 533.38 487.03 567.01 487.03 561.4 463.12 529.63 463.12"/><polygon class="cls-14" points="571.02 504.12 536.05 504.12 539.62 526.9 576.37 526.9 571.02 504.12"/><polygon class="cls-14" points="442.34 504.12 444.75 526.9 477.7 526.9 474.72 504.12 442.34 504.12"/><polygon class="cls-14" points="479.94 543.98 446.55 543.98 448.95 566.76 482.92 566.76 479.94 543.98"/><polygon class="cls-15" points="484.36 446.04 509.67 446.04 506.65 426.67 481.82 426.67 484.36 446.04"/><polygon class="cls-15" points="526.96 446.04 557.39 446.04 552.84 426.67 523.93 426.67 526.96 446.04"/><polygon class="cls-14" points="512.34 463.12 486.58 463.12 489.71 487.03 516.09 487.03 512.34 463.12"/><polygon class="cls-15" points="434.18 426.67 436.23 446.04 467.13 446.04 464.59 426.67 434.18 426.67"/><polygon class="cls-14" points="440.55 487.03 472.49 487.03 469.37 463.12 438.02 463.12 440.55 487.03"/><polygon class="cls-14" points="497.17 543.98 500.15 566.76 528.57 566.76 525 543.98 497.17 543.98"/><polygon class="cls-14" points="580.38 543.98 542.29 543.98 545.85 566.76 585.73 566.76 580.38 543.98"/><polygon class="cls-14" points="531.24 583.84 502.38 583.84 508.48 630.48 538.53 630.48 531.24 583.84"/><polygon class="cls-14" points="485.15 583.84 450.75 583.84 455.67 630.48 491.25 630.48 485.15 583.84"/><polygon class="cls-16" points="548.52 583.84 555.82 630.48 600.69 630.48 589.73 583.84 548.52 583.84"/><polygon class="cls-17" points="144.86 507.57 170.02 507.57 167.22 528.94 141.52 528.94 144.86 507.57"/><polygon class="cls-17" points="134.66 469.1 131.15 491.54 99.6 491.54 104.86 469.1 134.66 469.1"/><polygon class="cls-17" points="95.84 507.57 128.64 507.57 125.3 528.94 90.82 528.94 95.84 507.57"/><polygon class="cls-17" points="216.55 507.57 214.31 528.94 183.38 528.94 186.18 507.57 216.55 507.57"/><polygon class="cls-17" points="181.29 544.97 212.62 544.97 210.37 566.34 178.5 566.34 181.29 544.97"/><polygon class="cls-18" points="240.19 444.8 206.25 444.8 208.45 427.91 241.96 427.91 240.19 444.8"/><polygon class="cls-18" points="188.95 427.91 186.74 444.8 159.13 444.8 161.78 427.91 188.95 427.91"/><polygon class="cls-17" points="234.37 491.54 236.74 469.1 264.27 469.1 262.37 491.54 234.37 491.54"/><polygon class="cls-17" points="226.49 566.34 228.73 544.97 257.84 544.97 256.03 566.34 226.49 566.34"/><polygon class="cls-17" points="150.88 469.1 175.05 469.1 172.11 491.54 147.37 491.54 150.88 469.1"/><polygon class="cls-17" points="232.68 507.57 261.01 507.57 259.2 528.94 230.42 528.94 232.68 507.57"/><polygon class="cls-17" points="304.46 491.54 278.46 491.54 280.36 469.1 305.81 469.1 304.46 491.54"/><polygon class="cls-17" points="275.29 528.94 277.1 507.57 303.51 507.57 302.24 528.94 275.29 528.94"/><polygon class="cls-17" points="218.25 491.54 188.28 491.54 191.21 469.1 220.61 469.1 218.25 491.54"/><polygon class="cls-17" points="165.13 544.97 162.34 566.34 135.67 566.34 139.02 544.97 165.13 544.97"/><polygon class="cls-17" points="87.06 544.97 122.8 544.97 119.45 566.34 82.04 566.34 87.06 544.97"/><polygon class="cls-17" points="133.16 582.36 160.24 582.36 154.51 626.13 126.32 626.13 133.16 582.36"/><polygon class="cls-17" points="176.4 582.36 208.68 582.36 204.06 626.13 170.67 626.13 176.4 582.36"/><polygon class="cls-17" points="224.79 582.36 254.67 582.36 250.96 626.13 220.17 626.13 224.79 582.36"/><polygon class="cls-18" points="291.64 444.8 259.64 444.8 261.42 427.91 293.07 427.91 291.64 444.8"/><polygon class="cls-17" points="315.09 582.36 346.17 582.36 345.16 626.13 312.48 626.13 315.09 582.36"/><polygon class="cls-18" points="359.62 444.8 360.63 427.91 390.31 427.91 389.92 444.8 359.62 444.8"/><polygon class="cls-18" points="139.55 444.8 108.33 444.8 112.3 427.91 142.2 427.91 139.55 444.8"/><polygon class="cls-17" points="116.94 582.36 110.1 626.13 68.01 626.13 78.28 582.36 116.94 582.36"/><polygon class="cls-17" points="320.52 491.54 321.87 469.1 348.8 469.1 348.27 491.54 320.52 491.54"/><polygon class="cls-17" points="267.05 626.13 270.75 582.36 299.04 582.36 296.43 626.13 267.05 626.13"/><polygon class="cls-18" points="340.25 444.8 311.06 444.8 312.49 427.91 341.26 427.91 340.25 444.8"/><polygon class="cls-17" points="273.93 544.97 301.27 544.97 300 566.34 272.12 566.34 273.93 544.97"/><polygon class="cls-17" points="317.33 544.97 347.04 544.97 346.54 566.34 316.05 566.34 317.33 544.97"/><polygon class="cls-17" points="318.29 528.94 319.57 507.57 347.9 507.57 347.41 528.94 318.29 528.94"/><path class="cls-19" d="M898,918a18,18,0,0,1-18,18H241.78a18,18,0,0,1-18-18V819.39a18,18,0,0,1,18-18H880a18,18,0,0,1,18,18Z" transform="translate(-223.81 -144.32)"/><rect class="cls-20" x="30.37" y="680.23" width="613.86" height="91.39"/><polygon class="cls-21" points="41.86 760.07 41.86 679.81 30.37 679.81 30.37 771.21 644.23 771.21 644.23 760.07 41.86 760.07"/><polygon class="cls-8" points="125.75 174.97 125.75 313.95 286 313.95 286 174.97 286 159.43 280.96 164.88 275.93 159.43 270.9 164.88 265.88 159.43 260.87 164.88 255.85 159.43 250.84 164.88 245.83 159.43 240.82 164.88 235.82 159.43 230.8 164.88 225.8 159.43 220.78 164.88 215.78 159.43 210.77 164.88 205.76 159.43 200.75 164.88 195.74 159.43 190.73 164.88 185.73 159.43 180.73 164.88 175.73 159.43 170.72 164.88 165.72 159.43 160.72 164.88 155.74 159.43 150.74 164.88 145.75 159.43 140.75 164.88 135.73 159.43 130.74 164.88 125.75 159.43 125.75 174.97"/><path class="cls-21" d="M583.52,865.05a22.41,22.41,0,1,1-22.42-22.41A22.42,22.42,0,0,1,583.52,865.05Z" transform="translate(-223.81 -144.32)"/><path class="cls-21" d="M567.7,858.41a6.59,6.59,0,1,0-9.56,5.85l-1.94,14H566l-2.37-13.78A6.57,6.57,0,0,0,567.7,858.41Z" transform="translate(-223.81 -144.32)"/><path class="cls-3" d="M367.7,0H605.48A3.54,3.54,0,0,1,609,3.54V121.09a3.55,3.55,0,0,1-3.55,3.55H367.7a3.55,3.55,0,0,1-3.55-3.55V3.55A3.55,3.55,0,0,1,367.7,0Z"/><path class="cls-6" d="M813.77,248.6a3,3,0,0,1-3,3H610a3,3,0,0,1-3-3V164.7a3,3,0,0,1,3-3H810.78a3,3,0,0,1,3,3Z" transform="translate(-223.81 -144.32)"/><path class="cls-7" d="M810.78,161.7H799.29v69.8a3,3,0,0,1-3,3H607v14.1a3,3,0,0,0,3,3H810.78a3,3,0,0,0,3-3V164.7A3,3,0,0,0,810.78,161.7Z" transform="translate(-223.81 -144.32)"/><path class="cls-8" d="M613.61,189c-.24-4.64-.38-9.27-.53-13.9v.06a4.76,4.76,0,0,1,2.91-4.49,12.49,12.49,0,0,1,2.53-.89c.85-.16,1.72-.19,2.58-.29,3.35-.13,6.64-.15,9.95-.23,6.64-.11,13.26-.32,19.88-.34l19.87-.14c6.62,0,13.25-.13,19.87,0,13.23.14,26.49.05,39.73.39s26.5.56,39.74,1.16c-13.24.61-26.49.93-39.74,1.17s-26.5.25-39.73.39c-6.62.09-13.25,0-19.87,0l-19.87-.14c-6.62,0-13.24-.23-19.88-.34-3.29-.05-6.64-.17-9.9-.17-.78.06-1.58.06-2.36.14a11.24,11.24,0,0,0-2.19.61,3.58,3.58,0,0,0-2.47,3.14v.05C614,179.68,613.85,184.31,613.61,189Z" transform="translate(-223.81 -144.32)"/><path class="cls-9" d="M792.77,170.37H620.12a7,7,0,0,0-7,7v20.86H792.77Z" transform="translate(-223.81 -144.32)"/><path class="cls-10" d="M695.85,198.63V187l1.67-4.45a3.56,3.56,0,0,1,2.77,2.78v15.57L699.18,202Zm3.33,4.45,1.11,1.11v15.56a3.54,3.54,0,0,1-2.77,2.78l-1.67-4.44V206.41Z" transform="translate(-223.81 -144.32)"/><path class="cls-10" d="M718.64,222.53h-4.45v-4.44h4.45Z" transform="translate(-223.81 -144.32)"/><path class="cls-10" d="M737,188.07v10.56L733.65,202l-1.13-1.11V186.41Zm-4.46,30.57V204.19l1.13-1.11,3.33,3.33V217ZM752,222.53H735.31a3.59,3.59,0,0,1-2.79-2.78l4.46-1.66h13.34ZM750.32,187H737l-4.44-1.67a3.56,3.56,0,0,1,2.77-2.78H752Zm1.11,11.67V187l1.67-4.45a3.56,3.56,0,0,1,2.77,2.78v15.57L754.76,202Zm3.33,4.45,1.11,1.11v15.56a3.54,3.54,0,0,1-2.77,2.78l-1.67-4.44V206.41Z" transform="translate(-223.81 -144.32)"/><path class="cls-10" d="M764.77,188.07v10.56L761.43,202l-1.11-1.11V186.41Zm-4.45,30.57V204.19l1.11-1.11,3.34,3.33V217Zm19.46,3.89H763.1a3.55,3.55,0,0,1-2.78-2.78l4.45-1.66h13.34ZM778.11,187H764.82l-4.45-1.67a3.6,3.6,0,0,1,2.79-2.78h16.62Zm1.11,11.67V187l1.67-4.45a3.58,3.58,0,0,1,2.78,2.78v15.57L782.56,202Zm3.34,4.45,1.11,1.11v15.56a3.55,3.55,0,0,1-2.78,2.78l-1.67-4.44V206.41Z" transform="translate(-223.81 -144.32)"/></g></g></svg>