<svg id="Layer_1" data-name="Layer 1" xmlns="http://www.w3.org/2000/svg" viewBox="0 0 636.2 541.38"><defs><style>.cls-1{fill:#fff;}.cls-2{fill:#3c444f;}.cls-3{fill:#da4643;}</style></defs><title>3</title><path class="cls-1" d="M631.17,475.83c-1-.42-1.9-.89-2.83-1.38h0l5-9.35c.71.38,1.41.72,2.07,1h0c8.11,3.43,14.57,2,21.67-3.2h0c7-5.3,13.64-15,18.83-26.83h0c11.9-26.61,16.23-64.22,9-85.6h0l10.1-3.32c8.22,25.64,3.26,64.12-9.43,93.2h0c-5.7,12.87-13,23.92-22.09,31h0c-8.92,7-20.65,9.68-32.09,4.62h0l-.32-.14Z" transform="translate(-313.44 -347)"/><path class="cls-2" d="M946.46,757.11a23.91,23.91,0,0,1-8.78,32.64L772,885.19a23.89,23.89,0,0,1-32.63-8.8L574.16,589.57C567.57,578.14,603.6,410.2,603.6,410.2s171,48.66,177.63,60.09Z" transform="translate(-313.44 -347)"/><path class="cls-1" d="M667.68,461.15A28.32,28.32,0,1,1,629,450.73,28.29,28.29,0,0,1,667.68,461.15Z" transform="translate(-313.44 -347)"/><path class="cls-3" d="M527.76,867.43a23.9,23.9,0,0,1-32.27,10.05L326.23,788.6a23.88,23.88,0,0,1-10-32.27L470.08,463.27c6.14-11.69,167.29-71.11,167.29-71.11s50.42,170.52,44.29,182.21Z" transform="translate(-313.44 -347)"/><path class="cls-1" d="M628.62,473.55a28.32,28.32,0,1,1-11.9-38.24A28.3,28.3,0,0,1,628.62,473.55Z" transform="translate(-313.44 -347)"/><path class="cls-1" d="M595.48,453.41c.28-8.24,3.48-17.1,8.35-26.41h0c14.92-28.16,45.65-60.53,69.26-75h0c8-4.74,15-5.4,22-4.82l.13.39-1.17,7.73c-2.42-.4-8.48,1.43-15.45,5.78h0a152.73,152.73,0,0,0-23.43,18.31h0c-16.39,15.22-32.95,35.34-41.95,52.54h0c-4.47,8.47-7,16.24-7.14,21.79h0c0,5.63,1.36,8.3,5.48,10.66h0c.23.11.41.22.63.31h0l-4.61,9.58-1-.49h0l-.33-.16h0c-7.71-4.06-11.26-12.19-10.83-20.21Z" transform="translate(-313.44 -347)"/></svg>