<svg xmlns="http://www.w3.org/2000/svg" xmlns:xlink="http://www.w3.org/1999/xlink" viewBox="0 0 623.18 480.08"><defs><style>.cls-1,.cls-3,.cls-42,.cls-5,.cls-54,.cls-55,.cls-7{mix-blend-mode:multiply;}.cls-1{fill:url(#radial-gradient);}.cls-2{fill:url(#radial-gradient-2);}.cls-3{fill:url(#radial-gradient-3);}.cls-4{fill:url(#radial-gradient-4);}.cls-5{fill:url(#radial-gradient-5);}.cls-6{fill:url(#radial-gradient-6);}.cls-7{fill:url(#radial-gradient-7);}.cls-8{fill:none;}.cls-9{isolation:isolate;}.cls-10{clip-path:url(#clip-path);}.cls-11{fill:url(#linear-gradient);}.cls-12{fill:url(#linear-gradient-2);}.cls-13{fill:#ced1d1;}.cls-14{fill:#1d1d1d;}.cls-15{fill:#d6e4e7;}.cls-16{fill:url(#linear-gradient-3);}.cls-17{fill:url(#linear-gradient-4);}.cls-18{fill:#2bc3d3;}.cls-19{fill:#2b8bd3;}.cls-20{fill:url(#linear-gradient-5);}.cls-21{fill:url(#linear-gradient-6);}.cls-22{fill:url(#linear-gradient-7);}.cls-23{fill:url(#linear-gradient-8);}.cls-24{fill:url(#linear-gradient-9);}.cls-25{fill:url(#linear-gradient-10);}.cls-26{fill:url(#linear-gradient-11);}.cls-27{fill:url(#linear-gradient-12);}.cls-28{fill:url(#linear-gradient-13);}.cls-29{fill:url(#linear-gradient-14);}.cls-30{fill:url(#linear-gradient-15);}.cls-31{fill:url(#linear-gradient-16);}.cls-32{mask:url(#mask);}.cls-33,.cls-35,.cls-37,.cls-39,.cls-44,.cls-46,.cls-47,.cls-50,.cls-59,.cls-61,.cls-63{mix-blend-mode:screen;}.cls-33{fill:url(#radial-gradient-8);}.cls-34{mask:url(#mask-2);}.cls-35{fill:url(#radial-gradient-9);}.cls-36{mask:url(#mask-3);}.cls-37{fill:url(#radial-gradient-10);}.cls-38{mask:url(#mask-4);}.cls-39{fill:url(#radial-gradient-11);}.cls-40,.cls-46,.cls-64{opacity:0.55;}.cls-40,.cls-64{mix-blend-mode:overlay;}.cls-40{fill:url(#radial-gradient-12);}.cls-41{fill:#778c95;}.cls-42{fill:#6e6e7e;opacity:0.35;}.cls-43{fill:#dcdce0;}.cls-44{fill:#c2c2c2;opacity:0.65;}.cls-45{fill:url(#linear-gradient-17);}.cls-47{fill:#858585;}.cls-48{fill:url(#linear-gradient-18);}.cls-49{fill:url(#linear-gradient-19);}.cls-50,.cls-54{opacity:0.32;}.cls-51{fill:url(#linear-gradient-20);}.cls-52{fill:url(#linear-gradient-21);}.cls-53{fill:url(#linear-gradient-22);}.cls-54{fill:url(#linear-gradient-23);}.cls-55{fill:#a1a1a1;opacity:0.5;}.cls-56{fill:url(#linear-gradient-24);}.cls-57{fill:url(#linear-gradient-25);}.cls-58{mask:url(#mask-5);}.cls-59{fill:url(#radial-gradient-13);}.cls-60{mask:url(#mask-6);}.cls-61{fill:url(#radial-gradient-14);}.cls-62{mask:url(#mask-7);}.cls-63{fill:url(#radial-gradient-15);}.cls-64{fill:url(#radial-gradient-16);}</style><radialGradient id="radial-gradient" cx="782.71" cy="-284.81" r="56.79" gradientTransform="matrix(0.66, -0.78, 1.22, 0.96, 153.27, 964.04)" gradientUnits="userSpaceOnUse"><stop offset="0" stop-color="#fff"/><stop offset="0.14" stop-color="#e2e2e2"/><stop offset="0.43" stop-color="#999"/><stop offset="0.87" stop-color="#262626"/><stop offset="1"/></radialGradient><radialGradient id="radial-gradient-2" cx="386.9" cy="-171.94" r="34.43" gradientTransform="matrix(0.99, -0.57, 0.64, 1.06, 52.41, 483.51)" gradientUnits="userSpaceOnUse"><stop offset="0" stop-color="#fff"/><stop offset="0.21" stop-color="#c4c4c4"/><stop offset="0.6" stop-color="#5c5c5c"/><stop offset="0.87" stop-color="#1a1a1a"/><stop offset="1"/></radialGradient><radialGradient id="radial-gradient-3" cx="402.8" cy="-238.77" r="56.79" xlink:href="#radial-gradient"/><radialGradient id="radial-gradient-4" cx="85.9" cy="-11.3" r="34.43" xlink:href="#radial-gradient-2"/><radialGradient id="radial-gradient-5" cx="767.17" cy="-95.55" r="56.79" gradientTransform="matrix(0.18, -1.01, 1.53, 0.21, 595.3, 970.11)" xlink:href="#radial-gradient"/><radialGradient id="radial-gradient-6" cx="463.41" cy="51.96" r="34.43" gradientTransform="matrix(0.57, -0.99, 1.09, 0.59, 266, 605.02)" xlink:href="#radial-gradient-2"/><radialGradient id="radial-gradient-7" cx="511.4" cy="-287.41" r="56.79" gradientTransform="matrix(0.18, -1.01, 1.53, 0.21, 595.3, 970.11)" xlink:href="#radial-gradient"/><clipPath id="clip-path" transform="translate(-51.21 -12)"><path class="cls-8" d="M625.21,172.39H345.06V51.77H129.86V452.65h15.76v12.13H329.3V452.65h15.76V404.76h53.22L394,450.57H362.78a2.8,2.8,0,0,0-2.8,2.8V462a2.8,2.8,0,0,0,2.8,2.81H498.94a2.81,2.81,0,0,0,2.81-2.81v-8.6a2.8,2.8,0,0,0-2.81-2.8H467.69l-4.24-45.81H625.21a9.42,9.42,0,0,0,9.53-9.32V181.71A9.42,9.42,0,0,0,625.21,172.39Z"/></clipPath><linearGradient id="linear-gradient" x1="295.57" y1="240.21" x2="73.28" y2="240.21" gradientUnits="userSpaceOnUse"><stop offset="0.18" stop-color="#5f5b6a"/><stop offset="0.56" stop-color="#1f1a2e"/><stop offset="0.82" stop-color="#100b21"/><stop offset="1" stop-color="#5f5b6a"/></linearGradient><linearGradient id="linear-gradient-2" x1="295.86" y1="163.41" x2="49.95" y2="354.15" gradientUnits="userSpaceOnUse"><stop offset="0.18" stop-color="#b1afb6"/><stop offset="1" stop-color="#5f5b6a"/></linearGradient><linearGradient id="linear-gradient-3" x1="114.81" y1="103.99" x2="170.15" y2="103.99" gradientUnits="userSpaceOnUse"><stop offset="0" stop-color="#00f0ff"/><stop offset="1" stop-color="#006bbd"/></linearGradient><linearGradient id="linear-gradient-4" x1="114.81" y1="113.66" x2="170.15" y2="113.66" xlink:href="#linear-gradient-3"/><linearGradient id="linear-gradient-5" x1="114.81" y1="151.46" x2="170.15" y2="151.46" xlink:href="#linear-gradient-3"/><linearGradient id="linear-gradient-6" x1="114.81" y1="161.13" x2="170.15" y2="161.13" xlink:href="#linear-gradient-3"/><linearGradient id="linear-gradient-7" x1="114.81" y1="198.93" x2="170.15" y2="198.93" xlink:href="#linear-gradient-3"/><linearGradient id="linear-gradient-8" x1="114.81" y1="208.6" x2="170.15" y2="208.6" xlink:href="#linear-gradient-3"/><linearGradient id="linear-gradient-9" x1="114.81" y1="246.4" x2="170.15" y2="246.4" xlink:href="#linear-gradient-3"/><linearGradient id="linear-gradient-10" x1="114.81" y1="256.07" x2="170.15" y2="256.07" xlink:href="#linear-gradient-3"/><linearGradient id="linear-gradient-11" x1="114.81" y1="293.87" x2="170.15" y2="293.87" xlink:href="#linear-gradient-3"/><linearGradient id="linear-gradient-12" x1="114.81" y1="303.54" x2="170.15" y2="303.54" xlink:href="#linear-gradient-3"/><linearGradient id="linear-gradient-13" x1="114.81" y1="341.33" x2="170.15" y2="341.33" xlink:href="#linear-gradient-3"/><linearGradient id="linear-gradient-14" x1="114.81" y1="351" x2="170.15" y2="351" xlink:href="#linear-gradient-3"/><linearGradient id="linear-gradient-15" x1="114.81" y1="388.8" x2="170.15" y2="388.8" xlink:href="#linear-gradient-3"/><linearGradient id="linear-gradient-16" x1="114.81" y1="398.47" x2="170.15" y2="398.47" xlink:href="#linear-gradient-3"/><mask id="mask" x="195.79" y="0" width="157.31" height="140.01" maskUnits="userSpaceOnUse"><g transform="translate(-51.21 -12)"><path class="cls-1" d="M363.28,37.75c38.14,30,52.2,74.05,31.42,98.49s-68.55,20-106.69-10-52.2-74-31.41-98.5S325.15,7.79,363.28,37.75Z"/></g></mask><radialGradient id="radial-gradient-8" cx="782.71" cy="-284.81" r="56.79" gradientTransform="matrix(0.66, -0.78, 1.22, 0.96, 153.27, 964.04)" gradientUnits="userSpaceOnUse"><stop offset="0" stop-color="#ececd1"/><stop offset="1"/></radialGradient><mask id="mask-2" x="233.48" y="30.8" width="83.04" height="80.26" maskUnits="userSpaceOnUse"><g transform="translate(-51.21 -12)"><path class="cls-2" d="M362.06,62.52c11.56,19.07,4.88,43.68-14.93,55s-45.22,5-56.77-14.12-4.88-43.68,14.93-54.95S350.51,43.44,362.06,62.52Z"/></g></mask><radialGradient id="radial-gradient-9" cx="386.9" cy="-171.94" r="34.43" gradientTransform="matrix(0.99, -0.57, 0.64, 1.06, 52.41, 483.51)" gradientUnits="userSpaceOnUse"><stop offset="0" stop-color="#ffefe0"/><stop offset="0.13" stop-color="#e5d7c9"/><stop offset="0.4" stop-color="#a39990"/><stop offset="0.79" stop-color="#3b3734"/><stop offset="1"/></radialGradient><mask id="mask-3" x="0" y="340.07" width="157.31" height="140.01" maskUnits="userSpaceOnUse"><g transform="translate(-51.21 -12)"><path class="cls-3" d="M167.5,377.82c38.13,29.95,52.2,74.05,31.41,98.49s-68.55,20-106.68-10-52.2-74-31.42-98.49S129.36,347.86,167.5,377.82Z"/></g></mask><radialGradient id="radial-gradient-10" cx="402.8" cy="-238.77" r="56.79" xlink:href="#radial-gradient-8"/><mask id="mask-4" x="37.7" y="370.87" width="83.04" height="80.26" maskUnits="userSpaceOnUse"><g transform="translate(-51.21 -12)"><path class="cls-4" d="M166.28,402.59c11.55,19.07,4.87,43.68-14.93,55s-45.22,4.95-56.78-14.13-4.87-43.68,14.93-54.95S154.72,383.51,166.28,402.59Z"/></g></mask><radialGradient id="radial-gradient-11" cx="85.9" cy="-11.3" r="34.43" xlink:href="#radial-gradient-9"/><radialGradient id="radial-gradient-12" cx="186.25" cy="246.27" r="164.65" gradientUnits="userSpaceOnUse"><stop offset="0" stop-color="#ecece1"/><stop offset="1" stop-color="#784f58"/></radialGradient><linearGradient id="linear-gradient-17" x1="175.89" y1="469.4" x2="532.65" y2="131.79" gradientUnits="userSpaceOnUse"><stop offset="0" stop-color="#095e9b"/><stop offset="0.07" stop-color="#0c66a0"/><stop offset="0.7" stop-color="#2ba9d0"/><stop offset="1" stop-color="#37c4e3"/></linearGradient><linearGradient id="linear-gradient-18" x1="318.01" y1="315.88" x2="532.81" y2="248.43" gradientUnits="userSpaceOnUse"><stop offset="0" stop-color="#c0c7ca"/><stop offset="0.21" stop-color="#bec5c8"/><stop offset="0.3" stop-color="#b7bec1"/><stop offset="0.34" stop-color="#afb6ba"/><stop offset="1" stop-color="#d8dcdf"/></linearGradient><linearGradient id="linear-gradient-19" x1="352.06" y1="335.36" x2="522.14" y2="233.71" gradientUnits="userSpaceOnUse"><stop offset="0.18" stop-color="#100b21"/><stop offset="0.44" stop-color="#1f1a2e"/><stop offset="0.52" stop-color="#252034"/><stop offset="0.64" stop-color="#363144"/><stop offset="0.77" stop-color="#524e5e"/><stop offset="0.82" stop-color="#5f5b6a"/></linearGradient><linearGradient id="linear-gradient-20" x1="442.77" y1="283.24" x2="521.6" y2="236.13" xlink:href="#linear-gradient-19"/><linearGradient id="linear-gradient-21" x1="362.79" y1="264.39" x2="395.75" y2="244.7" xlink:href="#linear-gradient-19"/><linearGradient id="linear-gradient-22" x1="321.03" y1="290.05" x2="348.92" y2="273.37" xlink:href="#linear-gradient-19"/><linearGradient id="linear-gradient-23" x1="346.06" y1="325.32" x2="516.14" y2="223.67" xlink:href="#linear-gradient-19"/><linearGradient id="linear-gradient-24" x1="356.95" y1="248.86" x2="356.95" y2="327.55" gradientUnits="userSpaceOnUse"><stop offset="0.17" stop-color="#ffd44a"/><stop offset="0.33" stop-color="#ffd54c"/><stop offset="0.39" stop-color="#ffd953"/><stop offset="0.43" stop-color="#ffdf5e"/><stop offset="0.46" stop-color="#ffe86f"/><stop offset="0.46" stop-color="#ffea72"/><stop offset="1" stop-color="#f7a714"/></linearGradient><linearGradient id="linear-gradient-25" x1="401.16" y1="290.63" x2="401.16" y2="361.54" gradientUnits="userSpaceOnUse"><stop offset="0" stop-color="#dadbe0"/><stop offset="0.37" stop-color="#677581"/><stop offset="0.64" stop-color="#d3d4d9"/><stop offset="0.95" stop-color="#eeeff4"/></linearGradient><mask id="mask-5" x="448.03" y="106.75" width="175.15" height="116.93" maskUnits="userSpaceOnUse"><g transform="translate(-51.21 -12)"><path class="cls-5" d="M597,120c48,6.65,82.4,37.66,76.76,69.25s-49.14,51.8-97.17,45.14-82.4-37.66-76.77-69.25S549,113.36,597,120Z"/></g></mask><radialGradient id="radial-gradient-13" cx="767.17" cy="-95.55" r="56.79" gradientTransform="matrix(0.18, -1.01, 1.53, 0.21, 595.3, 970.11)" xlink:href="#radial-gradient-8"/><mask id="mask-6" x="495.48" y="125.14" width="82.14" height="81.18" maskUnits="userSpaceOnUse"><g transform="translate(-51.21 -12)"><path class="cls-6" d="M608.44,142c19.6,10.65,26.22,35.28,14.8,55s-36.56,27.07-56.16,16.42-26.22-35.28-14.79-55S588.85,131.37,608.44,142Z"/></g></mask><radialGradient id="radial-gradient-14" cx="463.41" cy="51.96" r="34.43" gradientTransform="matrix(0.57, -0.99, 1.09, 0.59, 266, 605.02)" xlink:href="#radial-gradient-9"/><mask id="mask-7" x="108.21" y="323.62" width="175.15" height="116.93" maskUnits="userSpaceOnUse"><g transform="translate(-51.21 -12)"><path class="cls-7" d="M257.2,336.89c48,6.65,82.4,37.66,76.77,69.24s-49.15,51.8-97.18,45.15S154.39,413.62,160,382,209.17,330.23,257.2,336.89Z"/></g></mask><radialGradient id="radial-gradient-15" cx="511.4" cy="-287.41" r="56.79" gradientTransform="matrix(0.18, -1.01, 1.53, 0.21, 595.3, 970.11)" xlink:href="#radial-gradient-8"/><radialGradient id="radial-gradient-16" cx="455.39" cy="202.15" r="230.62" gradientUnits="userSpaceOnUse"><stop offset="0" stop-color="#ecece1"/><stop offset="0.24" stop-color="#cec4be"/><stop offset="0.76" stop-color="#907075"/><stop offset="1" stop-color="#784f58"/></radialGradient></defs><title>advanced backup</title><g class="cls-9"><g id="OBJECTS"><g class="cls-10"><rect x="94.41" y="370.17" width="183.67" height="82.6"/><rect class="cls-11" x="78.65" y="39.77" width="215.19" height="400.88"/><rect class="cls-12" x="98.06" y="86.78" width="176.38" height="323.3" rx="5.76"/><rect class="cls-13" x="78.65" y="68.33" width="215.19" height="3.35"/><rect class="cls-14" x="101.79" y="90.5" width="168.92" height="36.3" rx="5.76"/><rect class="cls-15" x="108.85" y="97.27" width="67.39" height="22.76"/><rect class="cls-14" x="113.13" y="99.91" width="58.69" height="8.16"/><rect class="cls-16" x="114.81" y="101.53" width="55.34" height="4.93"/><rect class="cls-14" x="113.13" y="109.58" width="58.69" height="8.16"/><rect class="cls-17" x="114.81" y="111.2" width="55.34" height="4.93"/><rect class="cls-15" x="255.4" y="97.27" width="6.92" height="22.76"/><rect class="cls-18" x="219.24" y="97.27" width="29.31" height="6.03"/><rect class="cls-19" x="184.43" y="97.27" width="29.31" height="6.03"/><rect class="cls-18" x="184.43" y="113.66" width="6.37" height="6.37"/><rect class="cls-19" x="196.04" y="113.66" width="6.37" height="6.37"/><rect class="cls-18" x="207.64" y="113.66" width="6.37" height="6.37"/><rect class="cls-15" x="219.24" y="113.66" width="6.37" height="6.37"/><rect class="cls-14" x="101.79" y="137.97" width="168.92" height="36.3" rx="5.76"/><rect class="cls-15" x="108.85" y="144.74" width="67.39" height="22.76"/><rect class="cls-14" x="113.13" y="147.38" width="58.69" height="8.16"/><rect class="cls-20" x="114.81" y="149" width="55.34" height="4.93"/><rect class="cls-14" x="113.13" y="157.05" width="58.69" height="8.16"/><rect class="cls-21" x="114.81" y="158.67" width="55.34" height="4.93"/><rect class="cls-15" x="255.4" y="144.74" width="6.92" height="22.76"/><rect class="cls-18" x="219.24" y="144.74" width="29.31" height="6.03"/><rect class="cls-19" x="184.43" y="144.74" width="29.31" height="6.03"/><rect class="cls-18" x="184.43" y="161.13" width="6.37" height="6.37"/><rect class="cls-19" x="196.04" y="161.13" width="6.37" height="6.37"/><rect class="cls-18" x="207.64" y="161.13" width="6.37" height="6.37"/><rect class="cls-15" x="219.24" y="161.13" width="6.37" height="6.37"/><rect class="cls-14" x="101.79" y="185.44" width="168.92" height="36.3" rx="5.76"/><rect class="cls-15" x="108.85" y="192.21" width="67.39" height="22.76"/><rect class="cls-14" x="113.13" y="194.85" width="58.69" height="8.16"/><rect class="cls-22" x="114.81" y="196.46" width="55.34" height="4.93"/><rect class="cls-14" x="113.13" y="204.52" width="58.69" height="8.17"/><rect class="cls-23" x="114.81" y="206.13" width="55.34" height="4.93"/><rect class="cls-15" x="255.4" y="192.21" width="6.92" height="22.76"/><rect class="cls-18" x="219.24" y="192.21" width="29.31" height="6.03"/><rect class="cls-19" x="184.43" y="192.21" width="29.31" height="6.03"/><rect class="cls-18" x="184.43" y="208.6" width="6.37" height="6.37"/><rect class="cls-19" x="196.04" y="208.6" width="6.37" height="6.37"/><rect class="cls-18" x="207.64" y="208.6" width="6.37" height="6.37"/><rect class="cls-15" x="219.24" y="208.6" width="6.37" height="6.37"/><rect class="cls-14" x="101.79" y="232.9" width="168.92" height="36.3" rx="5.76"/><rect class="cls-15" x="108.85" y="239.67" width="67.39" height="22.76"/><rect class="cls-14" x="113.13" y="242.31" width="58.69" height="8.16"/><rect class="cls-24" x="114.81" y="243.93" width="55.34" height="4.93"/><rect class="cls-14" x="113.13" y="251.98" width="58.69" height="8.17"/><rect class="cls-25" x="114.81" y="253.6" width="55.34" height="4.93"/><rect class="cls-15" x="255.4" y="239.67" width="6.92" height="22.76"/><rect class="cls-18" x="219.24" y="239.67" width="29.31" height="6.03"/><rect class="cls-19" x="184.43" y="239.67" width="29.31" height="6.03"/><rect class="cls-18" x="184.43" y="256.07" width="6.37" height="6.37"/><rect class="cls-19" x="196.04" y="256.07" width="6.37" height="6.37"/><rect class="cls-18" x="207.64" y="256.07" width="6.37" height="6.37"/><rect class="cls-15" x="219.24" y="256.07" width="6.37" height="6.37"/><rect class="cls-14" x="101.79" y="280.37" width="168.92" height="36.3" rx="5.76"/><rect class="cls-15" x="108.85" y="287.14" width="67.39" height="22.76"/><rect class="cls-14" x="113.13" y="289.78" width="58.69" height="8.17"/><rect class="cls-26" x="114.81" y="291.4" width="55.34" height="4.93"/><rect class="cls-14" x="113.13" y="299.45" width="58.69" height="8.16"/><rect class="cls-27" x="114.81" y="301.07" width="55.34" height="4.93"/><rect class="cls-15" x="255.4" y="287.14" width="6.92" height="22.76"/><rect class="cls-18" x="219.24" y="287.14" width="29.31" height="6.03"/><rect class="cls-19" x="184.43" y="287.14" width="29.31" height="6.03"/><rect class="cls-18" x="184.43" y="303.54" width="6.37" height="6.37"/><rect class="cls-19" x="196.04" y="303.54" width="6.37" height="6.37"/><rect class="cls-18" x="207.64" y="303.54" width="6.37" height="6.37"/><rect class="cls-15" x="219.24" y="303.54" width="6.37" height="6.37"/><rect class="cls-14" x="101.79" y="327.84" width="168.92" height="36.3" rx="5.76"/><rect class="cls-15" x="108.85" y="334.61" width="67.39" height="22.76"/><rect class="cls-14" x="113.13" y="337.25" width="58.69" height="8.17"/><rect class="cls-28" x="114.81" y="338.87" width="55.34" height="4.93"/><rect class="cls-14" x="113.13" y="346.92" width="58.69" height="8.16"/><rect class="cls-29" x="114.81" y="348.54" width="55.34" height="4.93"/><rect class="cls-15" x="255.4" y="334.61" width="6.92" height="22.76"/><rect class="cls-18" x="219.24" y="334.61" width="29.31" height="6.03"/><rect class="cls-19" x="184.43" y="334.61" width="29.31" height="6.03"/><rect class="cls-18" x="184.43" y="351" width="6.37" height="6.37"/><rect class="cls-19" x="196.04" y="351" width="6.37" height="6.37"/><rect class="cls-18" x="207.64" y="351" width="6.37" height="6.37"/><rect class="cls-15" x="219.24" y="351" width="6.37" height="6.37"/><rect class="cls-14" x="101.79" y="375.31" width="168.92" height="36.3" rx="5.76"/><rect class="cls-15" x="108.85" y="382.08" width="67.39" height="22.76"/><rect class="cls-14" x="113.13" y="384.72" width="58.69" height="8.16"/><rect class="cls-30" x="114.81" y="386.34" width="55.34" height="4.93"/><rect class="cls-14" x="113.13" y="394.39" width="58.69" height="8.16"/><rect class="cls-31" x="114.81" y="396.01" width="55.34" height="4.93"/><rect class="cls-15" x="255.4" y="382.08" width="6.92" height="22.76"/><rect class="cls-18" x="219.24" y="382.08" width="29.31" height="6.03"/><rect class="cls-19" x="184.43" y="382.08" width="29.31" height="6.03"/><rect class="cls-18" x="184.43" y="398.47" width="6.37" height="6.37"/><rect class="cls-19" x="196.04" y="398.47" width="6.37" height="6.37"/><rect class="cls-18" x="207.64" y="398.47" width="6.37" height="6.37"/><rect class="cls-15" x="219.24" y="398.47" width="6.37" height="6.37"/><g class="cls-32"><path class="cls-33" d="M363.28,37.75c38.14,30,52.2,74.05,31.42,98.49s-68.55,20-106.69-10-52.2-74-31.41-98.5S325.15,7.79,363.28,37.75Z" transform="translate(-51.21 -12)"/></g><g class="cls-34"><path class="cls-35" d="M362.06,62.52c11.56,19.07,4.88,43.68-14.93,55s-45.22,5-56.77-14.12-4.88-43.68,14.93-54.95S350.51,43.44,362.06,62.52Z" transform="translate(-51.21 -12)"/></g><g class="cls-36"><path class="cls-37" d="M167.5,377.82c38.13,29.95,52.2,74.05,31.41,98.49s-68.55,20-106.68-10-52.2-74-31.42-98.49S129.36,347.86,167.5,377.82Z" transform="translate(-51.21 -12)"/></g><g class="cls-38"><path class="cls-39" d="M166.28,402.59c11.55,19.07,4.87,43.68-14.93,55s-45.22,4.95-56.78-14.13-4.87-43.68,14.93-54.95S154.72,383.51,166.28,402.59Z" transform="translate(-51.21 -12)"/></g><polygon class="cls-40" points="293.85 39.77 78.65 39.77 78.65 68.33 78.65 71.68 78.65 440.65 94.41 440.65 94.41 452.77 278.09 452.77 278.09 440.65 293.85 440.65 293.85 39.77"/><polygon class="cls-41" points="417.14 445.67 342.17 445.67 349.5 366.52 409.81 366.52 417.14 445.67"/><path class="cls-42" d="M465.08,422.38,461,378.53H400.71l-5.75,62S464.76,422.57,465.08,422.38Z" transform="translate(-51.21 -12)"/><path class="cls-43" d="M625.21,404.76H236.51a9.43,9.43,0,0,1-9.53-9.32V181.71a9.43,9.43,0,0,1,9.53-9.32h388.7a9.42,9.42,0,0,1,9.53,9.32V395.44A9.42,9.42,0,0,1,625.21,404.76Z" transform="translate(-51.21 -12)"/><path class="cls-44" d="M632.75,224c-13.66,9.78-27.94,18.68-41.63,28.4-21.15,15-40.27,32.57-59.54,49.86,6.69,7.76,14.31,15.28,21.26,23.16,18.77-14.6,38.36-28.69,55.52-44.75,9.26-8.66,17.77-18,26.38-27.23V222.52C634.07,223,633.42,223.52,632.75,224Z" transform="translate(-51.21 -12)"/><path class="cls-44" d="M553.56,345.81c-4.94-5.9-10.25-11.5-15.41-17.23-23.22,18.91-47.47,36.48-69.44,56.91-6.83,6.34-13.4,12.9-20.15,19.27h43.32c21.8-18.28,44.19-35.91,66.35-53.79C556.46,349.07,554.81,347.32,553.56,345.81Z" transform="translate(-51.21 -12)"/><path class="cls-44" d="M241.46,311.27c14.9-8.17,31.81-15.26,44.74-26.37s25.71-22,39.59-32c27.76-19.91,56.72-37.2,81.65-60.65,6.95-6.53,13.76-13.2,20.57-19.86H401.56C361.94,200.8,321,228.17,280.18,254.77,262.64,266.19,245,277.49,227,288.25V319.8C231.75,316.85,236.55,314,241.46,311.27Z" transform="translate(-51.21 -12)"/><path class="cls-44" d="M255.27,222.52c25.22-16.42,50.47-33.11,75.46-50.13H236.51a9.43,9.43,0,0,0-9.53,9.32v58.83Q241.22,231.66,255.27,222.52Z" transform="translate(-51.21 -12)"/><rect class="cls-45" x="186.25" y="173.3" width="386.8" height="206.55"/><rect class="cls-43" x="308.77" y="438.56" width="141.77" height="14.21" rx="2.81"/><path class="cls-44" d="M441.06,456.53c-2.82,2.74-5.66,5.46-8.44,8.25H451c4.55-4.84,9.25-9.53,13.95-14.21H448.51C446,452.53,443.53,454.54,441.06,456.53Z" transform="translate(-51.21 -12)"/><path class="cls-44" d="M375.39,456.53c-2.82,2.74-5.66,5.46-8.44,8.25h18.42c4.55-4.84,9.25-9.53,13.95-14.21H382.84C380.33,452.53,377.86,454.54,375.39,456.53Z" transform="translate(-51.21 -12)"/><g class="cls-46"><path class="cls-47" d="M350.52,196.18H250.46v75.94C252.14,270.87,319.29,220.78,350.52,196.18Z" transform="translate(-51.21 -12)"/><path class="cls-47" d="M514.08,381H614.15V305C612.46,306.28,545.32,356.37,514.08,381Z" transform="translate(-51.21 -12)"/><path class="cls-47" d="M600.34,223.57c3.69-4.42,7.29-8.79,10.93-13.08V196.18H587.92c-37.29,34.62-71.47,72.68-110.45,105.56-30.63,25.84-61,51.95-90.26,79.23H445.9C477.83,348.19,582.7,244.68,600.34,223.57Z" transform="translate(-51.21 -12)"/></g><path class="cls-43" d="M503.52,234.72a46.89,46.89,0,0,0-13.42,2,46.89,46.89,0,0,0-44.59-32.43c-24,0-45.05,15-48.36,37.2-4.87-5.17-12.42-7.68-22.17-7.68a30.42,30.42,0,0,0-30.2,35.34,30.45,30.45,0,1,0-9.49,59.38H503.52a46.9,46.9,0,1,0,0-93.79Z" transform="translate(-51.21 -12)"/><path d="M499.06,240.51a46.93,46.93,0,0,0-12.7,1.76c-5.76-16.8-22.45-30.74-42.17-30.74-22.66,0-41.32,17.93-44,38.65-5.3-6.34-14.37-10-23.6-10-13.82,0-27.59,12.38-27.59,27.47a55.72,55.72,0,0,0,.38,6.23,30.17,30.17,0,0,0-9-1.37c-15.9,0-27.92,9-27.92,24s11.55,25.9,27.46,25.9h159.1c24.49,0,44.34-18.75,44.34-41.88S523.55,240.51,499.06,240.51Z" transform="translate(-51.21 -12)"/><path class="cls-48" d="M497.4,243.42a46.35,46.35,0,0,0-12.4,1.7c-5.63-16.18-21.94-30.84-41.2-30.84-22.14,0-39.61,20.82-42.21,40.77-5.18-6.11-14.35-11.22-23.36-11.22-15.62,0-26.24,13-26.24,27.5a53.81,53.81,0,0,0,.37,6,29.73,29.73,0,0,0-8.77-1.32c-15.54,0-28.41,5.75-28.41,20.21s11.25,24.9,26.79,24.9H497.4c23.93,0,43.33-18.06,43.33-40.32S521.33,243.42,497.4,243.42Z" transform="translate(-51.21 -12)"/><path class="cls-49" d="M497.4,243.42a46.35,46.35,0,0,0-12.4,1.7c-5.63-16.18-21.94-30.84-41.2-30.84-22.14,0-39.61,20.82-42.21,40.77-5.18-6.11-14.35-11.22-23.36-11.22-15.62,0-26.24,13-26.24,27.5a53.81,53.81,0,0,0,.37,6,29.73,29.73,0,0,0-8.77-1.32c-15.54,0-28.41,5.75-28.41,20.21s11.25,24.9,26.79,24.9H497.4c23.93,0,43.33-18.06,43.33-40.32S521.33,243.42,497.4,243.42Z" transform="translate(-51.21 -12)"/><g class="cls-50"><path class="cls-51" d="M442.14,217c19.25,0,35.56,14.66,41.19,30.84a46.43,46.43,0,0,1,12.41-1.7c23.92,0,43.32,15.1,43.32,37.37a37.84,37.84,0,0,1-5.9,20,38.24,38.24,0,0,0,7.57-22.73c0-22.27-19.4-37.37-43.33-37.37a46.35,46.35,0,0,0-12.4,1.7c-5.63-16.18-21.94-30.84-41.2-30.84-15.66,0-29,10.44-36.34,23.6C415.08,226.05,427.58,217,442.14,217Z" transform="translate(-51.21 -12)"/><path class="cls-52" d="M376.56,246.59c9,0,18.18,5.12,23.36,11.23.16-1.27.39-2.54.68-3.81-5.31-5.63-13.89-10.18-22.37-10.18a25.39,25.39,0,0,0-22.81,14A25.25,25.25,0,0,1,376.56,246.59Z" transform="translate(-51.21 -12)"/><path class="cls-53" d="M341.92,278.77a30.06,30.06,0,0,1,8.77,1.31c-.12-.71-.21-2-.28-3.21a29.9,29.9,0,0,0-6.82-.87C331.4,276,321,279.62,317,288.12,321.79,281.62,331.16,278.77,341.92,278.77Z" transform="translate(-51.21 -12)"/></g><path class="cls-54" d="M401.88,253.41c-.1.55-.22,1.1-.29,1.64-5.18-6.11-14.35-11.22-23.36-11.22-15.62,0-26.24,13-26.24,27.5a53.81,53.81,0,0,0,.37,6,29.73,29.73,0,0,0-8.77-1.32c-15.54,0-28.41,5.75-28.41,20.21s11.25,24.9,26.79,24.9H464.52C451.73,292.72,426.87,267.9,401.88,253.41Z" transform="translate(-51.21 -12)"/><polygon class="cls-55" points="357.13 316.52 388.18 316.52 388.18 281.04 409.45 281.04 372.65 243.24 335.86 281.04 357.13 281.04 357.13 316.52"/><polygon class="cls-56" points="393.74 281.04 356.95 243.24 320.15 281.04 341.42 281.04 341.42 331 372.47 331 372.47 281.04 393.74 281.04"/><rect class="cls-55" x="399.33" y="288.37" width="27.66" height="27.89"/><polygon class="cls-57" points="414.99 332.86 414.99 288.37 387.33 288.37 387.33 332.86 368.39 332.86 401.16 366.52 433.92 332.86 414.99 332.86"/><g class="cls-58"><path class="cls-59" d="M597,120c48,6.65,82.4,37.66,76.76,69.25s-49.14,51.8-97.17,45.14-82.4-37.66-76.77-69.25S549,113.36,597,120Z" transform="translate(-51.21 -12)"/></g><g class="cls-60"><path class="cls-61" d="M608.44,142c19.6,10.65,26.22,35.28,14.8,55s-36.56,27.07-56.16,16.42-26.22-35.28-14.79-55S588.85,131.37,608.44,142Z" transform="translate(-51.21 -12)"/></g><g class="cls-62"><path class="cls-63" d="M257.2,336.89c48,6.65,82.4,37.66,76.77,69.24s-49.15,51.8-97.18,45.15S154.39,413.62,160,382,209.17,330.23,257.2,336.89Z" transform="translate(-51.21 -12)"/></g><path class="cls-64" d="M625.21,172.39H345.06V51.77H129.86V452.65h15.76v12.13H329.3V452.65h15.76V404.76h53.22L394,450.57H362.78a2.8,2.8,0,0,0-2.8,2.8V462a2.8,2.8,0,0,0,2.8,2.81H498.94a2.81,2.81,0,0,0,2.81-2.81v-8.6a2.8,2.8,0,0,0-2.81-2.8H467.69l-4.24-45.81H625.21a9.42,9.42,0,0,0,9.53-9.32V181.71A9.42,9.42,0,0,0,625.21,172.39Z" transform="translate(-51.21 -12)"/></g></g></g></svg>