<svg xmlns="http://www.w3.org/2000/svg" xmlns:xlink="http://www.w3.org/1999/xlink" viewBox="0 0 1100.19 997.37"><defs><style>.cls-1,.cls-11,.cls-3,.cls-5,.cls-7,.cls-9{mix-blend-mode:multiply;}.cls-1{fill:url(#radial-gradient);}.cls-2{fill:url(#radial-gradient-2);}.cls-3{fill:url(#radial-gradient-3);}.cls-4{fill:url(#radial-gradient-4);}.cls-5{fill:url(#radial-gradient-5);}.cls-6{fill:url(#radial-gradient-6);}.cls-7{fill:url(#radial-gradient-7);}.cls-8{fill:url(#radial-gradient-8);}.cls-9{fill:url(#radial-gradient-9);}.cls-10{fill:url(#radial-gradient-10);}.cls-11{fill:url(#radial-gradient-11);}.cls-12{fill:url(#radial-gradient-12);}.cls-13{fill:none;}.cls-14{isolation:isolate;}.cls-15{clip-path:url(#clip-path);}.cls-16{fill:url(#linear-gradient);}.cls-17{fill:url(#linear-gradient-2);}.cls-18{fill:#ced1d1;}.cls-19{fill:#1d1d1d;}.cls-20{fill:#d6e4e7;}.cls-21{fill:url(#linear-gradient-3);}.cls-22{fill:url(#linear-gradient-4);}.cls-23{fill:#2bc3d3;}.cls-24{fill:#2b8bd3;}.cls-25{fill:url(#linear-gradient-5);}.cls-26{fill:url(#linear-gradient-6);}.cls-27{fill:url(#linear-gradient-7);}.cls-28{fill:url(#linear-gradient-8);}.cls-29{fill:url(#linear-gradient-9);}.cls-30{fill:url(#linear-gradient-10);}.cls-31{fill:url(#linear-gradient-11);}.cls-32{fill:url(#linear-gradient-12);}.cls-33{fill:url(#linear-gradient-13);}.cls-34{fill:url(#linear-gradient-14);}.cls-35{fill:url(#linear-gradient-15);}.cls-36{fill:url(#linear-gradient-16);}.cls-37{mask:url(#mask);}.cls-38,.cls-40,.cls-42,.cls-44,.cls-64,.cls-66,.cls-68,.cls-70,.cls-90,.cls-92,.cls-94,.cls-96{mix-blend-mode:screen;}.cls-38{fill:url(#radial-gradient-13);}.cls-39{mask:url(#mask-2);}.cls-40{fill:url(#radial-gradient-14);}.cls-41{mask:url(#mask-3);}.cls-42{fill:url(#radial-gradient-15);}.cls-43{mask:url(#mask-4);}.cls-44{fill:url(#radial-gradient-16);}.cls-45,.cls-71,.cls-97{opacity:0.55;mix-blend-mode:overlay;}.cls-45{fill:url(#radial-gradient-17);}.cls-46{clip-path:url(#clip-path-2);}.cls-47{fill:url(#linear-gradient-17);}.cls-48{fill:url(#linear-gradient-18);}.cls-49{fill:url(#linear-gradient-19);}.cls-50{fill:url(#linear-gradient-20);}.cls-51{fill:url(#linear-gradient-21);}.cls-52{fill:url(#linear-gradient-22);}.cls-53{fill:url(#linear-gradient-23);}.cls-54{fill:url(#linear-gradient-24);}.cls-55{fill:url(#linear-gradient-25);}.cls-56{fill:url(#linear-gradient-26);}.cls-57{fill:url(#linear-gradient-27);}.cls-58{fill:url(#linear-gradient-28);}.cls-59{fill:url(#linear-gradient-29);}.cls-60{fill:url(#linear-gradient-30);}.cls-61{fill:url(#linear-gradient-31);}.cls-62{fill:url(#linear-gradient-32);}.cls-63{mask:url(#mask-5);}.cls-64{fill:url(#radial-gradient-18);}.cls-65{mask:url(#mask-6);}.cls-66{fill:url(#radial-gradient-19);}.cls-67{mask:url(#mask-7);}.cls-68{fill:url(#radial-gradient-20);}.cls-69{mask:url(#mask-8);}.cls-70{fill:url(#radial-gradient-21);}.cls-71{fill:url(#radial-gradient-22);}.cls-72{clip-path:url(#clip-path-3);}.cls-73{fill:url(#linear-gradient-33);}.cls-74{fill:url(#linear-gradient-34);}.cls-75{fill:url(#linear-gradient-35);}.cls-76{fill:url(#linear-gradient-36);}.cls-77{fill:url(#linear-gradient-37);}.cls-78{fill:url(#linear-gradient-38);}.cls-79{fill:url(#linear-gradient-39);}.cls-80{fill:url(#linear-gradient-40);}.cls-81{fill:url(#linear-gradient-41);}.cls-82{fill:url(#linear-gradient-42);}.cls-83{fill:url(#linear-gradient-43);}.cls-84{fill:url(#linear-gradient-44);}.cls-85{fill:url(#linear-gradient-45);}.cls-86{fill:url(#linear-gradient-46);}.cls-87{fill:url(#linear-gradient-47);}.cls-88{fill:url(#linear-gradient-48);}.cls-89{mask:url(#mask-9);}.cls-90{fill:url(#radial-gradient-23);}.cls-91{mask:url(#mask-10);}.cls-92{fill:url(#radial-gradient-24);}.cls-93{mask:url(#mask-11);}.cls-94{fill:url(#radial-gradient-25);}.cls-95{mask:url(#mask-12);}.cls-96{fill:url(#radial-gradient-26);}.cls-97{fill:url(#radial-gradient-27);}</style><radialGradient id="radial-gradient" cx="955.41" cy="-72.4" r="79.84" gradientTransform="matrix(1.02, 0.07, -0.05, 1.55, -595.53, 353.74)" gradientUnits="userSpaceOnUse"><stop offset="0" stop-color="#fff"/><stop offset="0.14" stop-color="#e2e2e2"/><stop offset="0.43" stop-color="#999"/><stop offset="0.87" stop-color="#262626"/><stop offset="1"/></radialGradient><radialGradient id="radial-gradient-2" cx="514.51" cy="29.02" r="48.41" gradientTransform="matrix(0.99, -0.57, 0.64, 1.06, -145.51, 570.63)" gradientUnits="userSpaceOnUse"><stop offset="0" stop-color="#fff"/><stop offset="0.21" stop-color="#c4c4c4"/><stop offset="0.6" stop-color="#5c5c5c"/><stop offset="0.87" stop-color="#1a1a1a"/><stop offset="1"/></radialGradient><radialGradient id="radial-gradient-3" cx="472.39" cy="153.31" r="117.98" gradientTransform="matrix(0.66, -0.78, 1.22, 0.96, -162.16, 1123.01)" xlink:href="#radial-gradient"/><radialGradient id="radial-gradient-4" cx="211.65" cy="427.41" r="71.53" xlink:href="#radial-gradient-2"/><radialGradient id="radial-gradient-5" cx="421.28" cy="-7.67" r="79.84" gradientTransform="matrix(0.66, -0.78, 1.22, 0.96, -162.16, 1123.01)" xlink:href="#radial-gradient"/><radialGradient id="radial-gradient-6" cx="91.32" cy="254.88" r="48.41" xlink:href="#radial-gradient-2"/><radialGradient id="radial-gradient-7" cx="1320.2" cy="225.31" r="79.84" gradientTransform="matrix(0.66, -0.78, 1.22, 0.96, -162.16, 1123.01)" xlink:href="#radial-gradient"/><radialGradient id="radial-gradient-8" cx="966.8" cy="270.66" r="48.41" xlink:href="#radial-gradient-2"/><radialGradient id="radial-gradient-9" cx="786.06" cy="290.04" r="79.84" gradientTransform="matrix(0.66, -0.78, 1.22, 0.96, -162.16, 1123.01)" xlink:href="#radial-gradient"/><radialGradient id="radial-gradient-10" cx="543.61" cy="496.52" r="48.41" xlink:href="#radial-gradient-2"/><radialGradient id="radial-gradient-11" cx="1261.66" cy="57.66" r="117.98" gradientTransform="matrix(1.02, 0.07, -0.05, 1.55, -540.94, 16.66)" xlink:href="#radial-gradient"/><radialGradient id="radial-gradient-12" cx="836.97" cy="93.67" r="71.53" xlink:href="#radial-gradient-2"/><clipPath id="clip-path" transform="translate(2.9 -49.3)"><polygon class="cls-13" points="410.24 266.71 107.69 266.71 107.69 306.87 107.69 311.57 107.69 830.32 129.84 830.32 129.84 847.37 388.08 847.37 388.08 830.32 410.24 830.32 410.24 266.71"/></clipPath><linearGradient id="linear-gradient" x1="415.54" y1="499.21" x2="103.03" y2="499.21" gradientUnits="userSpaceOnUse"><stop offset="0.18" stop-color="#5f5b6a"/><stop offset="0.56" stop-color="#1f1a2e"/><stop offset="0.82" stop-color="#100b21"/><stop offset="1" stop-color="#5f5b6a"/></linearGradient><linearGradient id="linear-gradient-2" x1="415.96" y1="391.24" x2="70.22" y2="659.41" gradientUnits="userSpaceOnUse"><stop offset="0.18" stop-color="#b1afb6"/><stop offset="1" stop-color="#5f5b6a"/></linearGradient><linearGradient id="linear-gradient-3" x1="161.41" y1="307.7" x2="239.22" y2="307.7" gradientUnits="userSpaceOnUse"><stop offset="0" stop-color="#00f0ff"/><stop offset="1" stop-color="#006bbd"/></linearGradient><linearGradient id="linear-gradient-4" x1="161.41" y1="321.3" x2="239.22" y2="321.3" xlink:href="#linear-gradient-3"/><linearGradient id="linear-gradient-5" x1="161.41" y1="374.44" x2="239.22" y2="374.44" xlink:href="#linear-gradient-3"/><linearGradient id="linear-gradient-6" x1="161.41" y1="388.03" x2="239.22" y2="388.03" xlink:href="#linear-gradient-3"/><linearGradient id="linear-gradient-7" x1="161.41" y1="441.18" x2="239.22" y2="441.18" xlink:href="#linear-gradient-3"/><linearGradient id="linear-gradient-8" x1="161.41" y1="454.77" x2="239.22" y2="454.77" xlink:href="#linear-gradient-3"/><linearGradient id="linear-gradient-9" x1="161.41" y1="507.91" x2="239.22" y2="507.91" xlink:href="#linear-gradient-3"/><linearGradient id="linear-gradient-10" x1="161.41" y1="521.51" x2="239.22" y2="521.51" xlink:href="#linear-gradient-3"/><linearGradient id="linear-gradient-11" x1="161.41" y1="574.65" x2="239.22" y2="574.65" xlink:href="#linear-gradient-3"/><linearGradient id="linear-gradient-12" x1="161.41" y1="588.25" x2="239.22" y2="588.25" xlink:href="#linear-gradient-3"/><linearGradient id="linear-gradient-13" x1="161.41" y1="641.39" x2="239.22" y2="641.39" xlink:href="#linear-gradient-3"/><linearGradient id="linear-gradient-14" x1="161.41" y1="654.98" x2="239.22" y2="654.98" xlink:href="#linear-gradient-3"/><linearGradient id="linear-gradient-15" x1="161.41" y1="708.13" x2="239.22" y2="708.13" xlink:href="#linear-gradient-3"/><linearGradient id="linear-gradient-16" x1="161.41" y1="721.72" x2="239.22" y2="721.72" xlink:href="#linear-gradient-3"/><mask id="mask" x="275.26" y="161.5" width="221.16" height="196.85" maskUnits="userSpaceOnUse"><g transform="translate(2.9 -49.3)"><ellipse class="cls-1" cx="382.95" cy="309.22" rx="81.57" ry="123.51" transform="translate(-93.24 433.78) rotate(-53.58)"/></g></mask><radialGradient id="radial-gradient-13" cx="955.41" cy="-72.4" r="79.84" gradientTransform="matrix(1.02, 0.07, -0.05, 1.55, -595.53, 353.74)" gradientUnits="userSpaceOnUse"><stop offset="0" stop-color="#ececd1"/><stop offset="1"/></radialGradient><mask id="mask-2" x="328.26" y="204.8" width="116.75" height="112.84" maskUnits="userSpaceOnUse"><g transform="translate(2.9 -49.3)"><path class="cls-2" d="M434.15,281.82c16.24,26.82,6.84,61.41-21,77.26s-63.57,7-79.82-19.85-6.85-61.41,21-77.26S417.9,255,434.15,281.82Z"/></g></mask><radialGradient id="radial-gradient-14" cx="514.51" cy="29.02" r="48.41" gradientTransform="matrix(0.99, -0.57, 0.64, 1.06, -145.51, 570.63)" gradientUnits="userSpaceOnUse"><stop offset="0" stop-color="#ffefe0"/><stop offset="0.13" stop-color="#e5d7c9"/><stop offset="0.4" stop-color="#a39990"/><stop offset="0.79" stop-color="#3b3734"/><stop offset="1"/></radialGradient><mask id="mask-3" x="0" y="639.61" width="221.16" height="196.85" maskUnits="userSpaceOnUse"><g transform="translate(2.9 -49.3)"><path class="cls-5" d="M160.6,725.11c53.61,42.11,73.39,104.11,44.16,138.48s-96.37,28.09-150-14S-18.61,745.46,10.61,711.09,107,683,160.6,725.11Z"/></g></mask><radialGradient id="radial-gradient-15" cx="421.28" cy="-7.67" r="79.84" gradientTransform="matrix(0.66, -0.78, 1.22, 0.96, -162.16, 1123.01)" xlink:href="#radial-gradient-13"/><mask id="mask-4" x="53" y="682.92" width="116.75" height="112.84" maskUnits="userSpaceOnUse"><g transform="translate(2.9 -49.3)"><path class="cls-6" d="M158.88,759.94c16.25,26.81,6.85,61.41-21,77.26s-63.58,7-79.82-19.85-6.85-61.41,21-77.27S142.64,733.12,158.88,759.94Z"/></g></mask><radialGradient id="radial-gradient-16" cx="91.32" cy="254.88" r="48.41" xlink:href="#radial-gradient-14"/><radialGradient id="radial-gradient-17" cx="261.86" cy="507.74" r="231.49" gradientUnits="userSpaceOnUse"><stop offset="0" stop-color="#ecece1"/><stop offset="1" stop-color="#784f58"/></radialGradient><clipPath id="clip-path-2" transform="translate(2.9 -49.3)"><polygon class="cls-13" points="1014 266.71 711.45 266.71 711.45 306.87 711.45 311.57 711.45 830.32 733.61 830.32 733.61 847.37 991.84 847.37 991.84 830.32 1014 830.32 1014 266.71"/></clipPath><linearGradient id="linear-gradient-17" x1="1019.31" y1="499.21" x2="706.79" y2="499.21" xlink:href="#linear-gradient"/><linearGradient id="linear-gradient-18" x1="1019.72" y1="391.24" x2="673.99" y2="659.41" xlink:href="#linear-gradient-2"/><linearGradient id="linear-gradient-19" x1="765.17" y1="307.7" x2="842.98" y2="307.7" xlink:href="#linear-gradient-3"/><linearGradient id="linear-gradient-20" x1="765.17" y1="321.3" x2="842.98" y2="321.3" xlink:href="#linear-gradient-3"/><linearGradient id="linear-gradient-21" x1="765.17" y1="374.44" x2="842.98" y2="374.44" xlink:href="#linear-gradient-3"/><linearGradient id="linear-gradient-22" x1="765.17" y1="388.03" x2="842.98" y2="388.03" xlink:href="#linear-gradient-3"/><linearGradient id="linear-gradient-23" x1="765.17" y1="441.18" x2="842.98" y2="441.18" xlink:href="#linear-gradient-3"/><linearGradient id="linear-gradient-24" x1="765.17" y1="454.77" x2="842.98" y2="454.77" xlink:href="#linear-gradient-3"/><linearGradient id="linear-gradient-25" x1="765.17" y1="507.91" x2="842.98" y2="507.91" xlink:href="#linear-gradient-3"/><linearGradient id="linear-gradient-26" x1="765.17" y1="521.51" x2="842.98" y2="521.51" xlink:href="#linear-gradient-3"/><linearGradient id="linear-gradient-27" x1="765.17" y1="574.65" x2="842.98" y2="574.65" xlink:href="#linear-gradient-3"/><linearGradient id="linear-gradient-28" x1="765.17" y1="588.25" x2="842.98" y2="588.25" xlink:href="#linear-gradient-3"/><linearGradient id="linear-gradient-29" x1="765.17" y1="641.39" x2="842.98" y2="641.39" xlink:href="#linear-gradient-3"/><linearGradient id="linear-gradient-30" x1="765.17" y1="654.98" x2="842.98" y2="654.98" xlink:href="#linear-gradient-3"/><linearGradient id="linear-gradient-31" x1="765.17" y1="708.13" x2="842.98" y2="708.13" xlink:href="#linear-gradient-3"/><linearGradient id="linear-gradient-32" x1="765.17" y1="721.72" x2="842.98" y2="721.72" xlink:href="#linear-gradient-3"/><mask id="mask-5" x="879.03" y="161.5" width="221.16" height="196.85" maskUnits="userSpaceOnUse"><g transform="translate(2.9 -49.3)"><path class="cls-7" d="M1039.62,247c53.62,42.11,73.39,104.11,44.17,138.48s-96.37,28.09-150-14S860.41,267.34,889.63,233,986,204.88,1039.62,247Z"/></g></mask><radialGradient id="radial-gradient-18" cx="1320.2" cy="225.31" r="79.84" gradientTransform="matrix(0.66, -0.78, 1.22, 0.96, -162.16, 1123.01)" xlink:href="#radial-gradient-13"/><mask id="mask-6" x="932.02" y="204.8" width="116.75" height="112.84" maskUnits="userSpaceOnUse"><g transform="translate(2.9 -49.3)"><path class="cls-8" d="M1037.91,281.82c16.25,26.82,6.85,61.41-21,77.26s-63.58,7-79.83-19.85-6.85-61.41,21-77.26S1021.66,255,1037.91,281.82Z"/></g></mask><radialGradient id="radial-gradient-19" cx="966.8" cy="270.66" r="48.41" xlink:href="#radial-gradient-14"/><mask id="mask-7" x="603.76" y="639.61" width="221.16" height="196.85" maskUnits="userSpaceOnUse"><g transform="translate(2.9 -49.3)"><path class="cls-9" d="M764.36,725.11c53.62,42.11,73.39,104.11,44.17,138.48s-96.38,28.09-150-14-73.39-104.11-44.17-138.48S710.75,683,764.36,725.11Z"/></g></mask><radialGradient id="radial-gradient-20" cx="786.06" cy="290.04" r="79.84" gradientTransform="matrix(0.66, -0.78, 1.22, 0.96, -162.16, 1123.01)" xlink:href="#radial-gradient-13"/><mask id="mask-8" x="656.76" y="682.92" width="116.75" height="112.84" maskUnits="userSpaceOnUse"><g transform="translate(2.9 -49.3)"><path class="cls-10" d="M762.65,759.94c16.25,26.81,6.85,61.41-21,77.26s-63.58,7-79.83-19.85-6.85-61.41,21-77.27S746.4,733.12,762.65,759.94Z"/></g></mask><radialGradient id="radial-gradient-21" cx="543.61" cy="496.52" r="48.41" xlink:href="#radial-gradient-14"/><radialGradient id="radial-gradient-22" cx="865.62" cy="507.74" r="231.49" xlink:href="#radial-gradient-17"/><clipPath id="clip-path-3" transform="translate(2.9 -49.3)"><polygon class="cls-13" points="784.38 131.92 337.31 131.92 337.31 191.26 337.31 198.22 337.31 964.75 370.05 964.75 370.05 989.94 751.63 989.94 751.63 964.75 784.38 964.75 784.38 131.92"/></clipPath><linearGradient id="linear-gradient-33" x1="790.84" y1="499.03" x2="329.05" y2="499.03" xlink:href="#linear-gradient"/><linearGradient id="linear-gradient-34" x1="791.45" y1="339.48" x2="280.57" y2="735.75" xlink:href="#linear-gradient-2"/><linearGradient id="linear-gradient-35" x1="415.31" y1="216.04" x2="530.29" y2="216.04" xlink:href="#linear-gradient-3"/><linearGradient id="linear-gradient-36" x1="415.31" y1="236.13" x2="530.29" y2="236.13" xlink:href="#linear-gradient-3"/><linearGradient id="linear-gradient-37" x1="415.31" y1="314.66" x2="530.29" y2="314.66" xlink:href="#linear-gradient-3"/><linearGradient id="linear-gradient-38" x1="415.31" y1="334.75" x2="530.29" y2="334.75" xlink:href="#linear-gradient-3"/><linearGradient id="linear-gradient-39" x1="415.31" y1="413.27" x2="530.29" y2="413.27" xlink:href="#linear-gradient-3"/><linearGradient id="linear-gradient-40" x1="415.31" y1="433.36" x2="530.29" y2="433.36" xlink:href="#linear-gradient-3"/><linearGradient id="linear-gradient-41" x1="415.31" y1="511.89" x2="530.29" y2="511.89" xlink:href="#linear-gradient-3"/><linearGradient id="linear-gradient-42" x1="415.31" y1="531.98" x2="530.29" y2="531.98" xlink:href="#linear-gradient-3"/><linearGradient id="linear-gradient-43" x1="415.31" y1="610.5" x2="530.29" y2="610.5" xlink:href="#linear-gradient-3"/><linearGradient id="linear-gradient-44" x1="415.31" y1="630.59" x2="530.29" y2="630.59" xlink:href="#linear-gradient-3"/><linearGradient id="linear-gradient-45" x1="415.31" y1="709.12" x2="530.29" y2="709.12" xlink:href="#linear-gradient-3"/><linearGradient id="linear-gradient-46" x1="415.31" y1="729.21" x2="530.29" y2="729.21" xlink:href="#linear-gradient-3"/><linearGradient id="linear-gradient-47" x1="415.31" y1="807.73" x2="530.29" y2="807.73" xlink:href="#linear-gradient-3"/><linearGradient id="linear-gradient-48" x1="415.31" y1="827.82" x2="530.29" y2="827.82" xlink:href="#linear-gradient-3"/><mask id="mask-9" x="583.55" y="0" width="326.81" height="290.87" maskUnits="userSpaceOnUse"><g transform="translate(2.9 -49.3)"><ellipse class="cls-11" cx="744.05" cy="194.74" rx="120.54" ry="182.51" transform="translate(145.59 677.84) rotate(-53.58)"/></g></mask><radialGradient id="radial-gradient-23" cx="1261.66" cy="57.66" r="117.98" gradientTransform="matrix(1.02, 0.07, -0.05, 1.55, -540.94, 16.66)" xlink:href="#radial-gradient-13"/><mask id="mask-10" x="661.86" y="63.99" width="172.51" height="166.74" maskUnits="userSpaceOnUse"><g transform="translate(2.9 -49.3)"><path class="cls-12" d="M819.71,154.25c24,39.62,10.12,90.74-31,114.17s-94,10.29-118-29.34-10.12-90.74,31-114.17S795.7,114.61,819.71,154.25Z"/></g></mask><radialGradient id="radial-gradient-24" cx="836.97" cy="93.67" r="71.53" xlink:href="#radial-gradient-14"/><mask id="mask-11" x="176.8" y="706.49" width="326.81" height="290.87" maskUnits="userSpaceOnUse"><g transform="translate(2.9 -49.3)"><path class="cls-3" d="M415.5,809.28c79.22,62.22,108.44,153.84,65.26,204.62s-142.41,41.51-221.63-20.71S150.68,839.35,193.86,788.56,336.27,747.05,415.5,809.28Z"/></g></mask><radialGradient id="radial-gradient-25" cx="472.39" cy="153.31" r="117.98" gradientTransform="matrix(0.66, -0.78, 1.22, 0.96, -162.16, 1123.01)" xlink:href="#radial-gradient-13"/><mask id="mask-12" x="255.12" y="770.49" width="172.51" height="166.74" maskUnits="userSpaceOnUse"><g transform="translate(2.9 -49.3)"><path class="cls-4" d="M413,860.74c24,39.63,10.12,90.75-31,114.17S288,985.21,264,945.58s-10.12-90.75,31-114.18S389,821.11,413,860.74Z"/></g></mask><radialGradient id="radial-gradient-26" cx="211.65" cy="427.41" r="71.53" xlink:href="#radial-gradient-14"/><radialGradient id="radial-gradient-27" cx="563.74" cy="511.62" r="342.06" xlink:href="#radial-gradient-17"/></defs><title>backup</title><g class="cls-14"><g id="Icon"><g class="cls-15"><rect x="132.74" y="681.93" width="258.23" height="116.13"/><rect class="cls-16" x="110.58" y="217.41" width="302.55" height="563.61"/><rect class="cls-17" x="137.87" y="283.5" width="247.97" height="454.54" rx="8.1"/><rect class="cls-18" x="110.58" y="257.57" width="302.55" height="4.71"/><rect class="cls-19" x="143.11" y="288.73" width="237.48" height="51.04" rx="8.1"/><rect class="cls-20" x="153.04" y="298.25" width="94.75" height="32"/><rect class="cls-19" x="159.06" y="301.96" width="82.52" height="11.48"/><rect class="cls-21" x="161.41" y="304.23" width="77.81" height="6.93"/><rect class="cls-19" x="159.06" y="315.56" width="82.52" height="11.48"/><rect class="cls-22" x="161.41" y="317.83" width="77.81" height="6.93"/><rect class="cls-20" x="359.07" y="298.25" width="9.73" height="32"/><rect class="cls-23" x="308.24" y="298.25" width="41.21" height="8.47"/><rect class="cls-24" x="259.3" y="298.25" width="41.21" height="8.47"/><rect class="cls-23" x="259.3" y="321.3" width="8.95" height="8.95"/><rect class="cls-24" x="275.61" y="321.3" width="8.95" height="8.95"/><rect class="cls-23" x="291.93" y="321.3" width="8.95" height="8.95"/><rect class="cls-20" x="308.24" y="321.3" width="8.95" height="8.95"/><rect class="cls-19" x="143.11" y="355.47" width="237.48" height="51.04" rx="8.1"/><rect class="cls-20" x="153.04" y="364.99" width="94.75" height="32"/><rect class="cls-19" x="159.06" y="368.7" width="82.52" height="11.48"/><rect class="cls-25" x="161.41" y="370.97" width="77.81" height="6.93"/><rect class="cls-19" x="159.06" y="382.29" width="82.52" height="11.48"/><rect class="cls-26" x="161.41" y="384.57" width="77.81" height="6.93"/><rect class="cls-20" x="359.07" y="364.99" width="9.73" height="32"/><rect class="cls-23" x="308.24" y="364.99" width="41.21" height="8.47"/><rect class="cls-24" x="259.3" y="364.99" width="41.21" height="8.47"/><rect class="cls-23" x="259.3" y="388.03" width="8.95" height="8.95"/><rect class="cls-24" x="275.61" y="388.03" width="8.95" height="8.95"/><rect class="cls-23" x="291.93" y="388.03" width="8.95" height="8.95"/><rect class="cls-20" x="308.24" y="388.03" width="8.95" height="8.95"/><rect class="cls-19" x="143.11" y="422.21" width="237.48" height="51.04" rx="8.1"/><rect class="cls-20" x="153.04" y="431.72" width="94.75" height="32"/><rect class="cls-19" x="159.06" y="435.44" width="82.52" height="11.48"/><rect class="cls-27" x="161.41" y="437.71" width="77.81" height="6.93"/><rect class="cls-19" x="159.06" y="449.03" width="82.52" height="11.48"/><rect class="cls-28" x="161.41" y="451.31" width="77.81" height="6.93"/><rect class="cls-20" x="359.07" y="431.72" width="9.73" height="32"/><rect class="cls-23" x="308.24" y="431.72" width="41.21" height="8.47"/><rect class="cls-24" x="259.3" y="431.72" width="41.21" height="8.47"/><rect class="cls-23" x="259.3" y="454.77" width="8.95" height="8.95"/><rect class="cls-24" x="275.61" y="454.77" width="8.95" height="8.95"/><rect class="cls-23" x="291.93" y="454.77" width="8.95" height="8.95"/><rect class="cls-20" x="308.24" y="454.77" width="8.95" height="8.95"/><rect class="cls-19" x="143.11" y="488.94" width="237.48" height="51.04" rx="8.1"/><rect class="cls-20" x="153.04" y="498.46" width="94.75" height="32"/><rect class="cls-19" x="159.06" y="502.17" width="82.52" height="11.48"/><rect class="cls-29" x="161.41" y="504.45" width="77.81" height="6.93"/><rect class="cls-19" x="159.06" y="515.77" width="82.52" height="11.48"/><rect class="cls-30" x="161.41" y="518.04" width="77.81" height="6.93"/><rect class="cls-20" x="359.07" y="498.46" width="9.73" height="32"/><rect class="cls-23" x="308.24" y="498.46" width="41.21" height="8.47"/><rect class="cls-24" x="259.3" y="498.46" width="41.21" height="8.47"/><rect class="cls-23" x="259.3" y="521.51" width="8.95" height="8.95"/><rect class="cls-24" x="275.61" y="521.51" width="8.95" height="8.95"/><rect class="cls-23" x="291.93" y="521.51" width="8.95" height="8.95"/><rect class="cls-20" x="308.24" y="521.51" width="8.95" height="8.95"/><rect class="cls-19" x="143.11" y="555.68" width="237.48" height="51.04" rx="8.1"/><rect class="cls-20" x="153.04" y="565.2" width="94.75" height="32"/><rect class="cls-19" x="159.06" y="568.91" width="82.52" height="11.48"/><rect class="cls-31" x="161.41" y="571.19" width="77.81" height="6.93"/><rect class="cls-19" x="159.06" y="582.51" width="82.52" height="11.48"/><rect class="cls-32" x="161.41" y="584.78" width="77.81" height="6.93"/><rect class="cls-20" x="359.07" y="565.2" width="9.73" height="32"/><rect class="cls-23" x="308.24" y="565.2" width="41.21" height="8.47"/><rect class="cls-24" x="259.3" y="565.2" width="41.21" height="8.47"/><rect class="cls-23" x="259.3" y="588.25" width="8.95" height="8.95"/><rect class="cls-24" x="275.61" y="588.25" width="8.95" height="8.95"/><rect class="cls-23" x="291.93" y="588.25" width="8.95" height="8.95"/><rect class="cls-20" x="308.24" y="588.25" width="8.95" height="8.95"/><rect class="cls-19" x="143.11" y="622.42" width="237.48" height="51.04" rx="8.1"/><rect class="cls-20" x="153.04" y="631.94" width="94.75" height="32"/><rect class="cls-19" x="159.06" y="635.65" width="82.52" height="11.48"/><rect class="cls-33" x="161.41" y="637.92" width="77.81" height="6.93"/><rect class="cls-19" x="159.06" y="649.25" width="82.52" height="11.48"/><rect class="cls-34" x="161.41" y="651.52" width="77.81" height="6.93"/><rect class="cls-20" x="359.07" y="631.94" width="9.73" height="32"/><rect class="cls-23" x="308.24" y="631.94" width="41.21" height="8.47"/><rect class="cls-24" x="259.3" y="631.94" width="41.21" height="8.47"/><rect class="cls-23" x="259.3" y="654.98" width="8.95" height="8.95"/><rect class="cls-24" x="275.61" y="654.98" width="8.95" height="8.95"/><rect class="cls-23" x="291.93" y="654.98" width="8.95" height="8.95"/><rect class="cls-20" x="308.24" y="654.98" width="8.95" height="8.95"/><rect class="cls-19" x="143.11" y="689.16" width="237.48" height="51.04" rx="8.1"/><rect class="cls-20" x="153.04" y="698.67" width="94.75" height="32"/><rect class="cls-19" x="159.06" y="702.39" width="82.52" height="11.48"/><rect class="cls-35" x="161.41" y="704.66" width="77.81" height="6.93"/><rect class="cls-19" x="159.06" y="715.98" width="82.52" height="11.48"/><rect class="cls-36" x="161.41" y="718.26" width="77.81" height="6.93"/><rect class="cls-20" x="359.07" y="698.67" width="9.73" height="32"/><rect class="cls-23" x="308.24" y="698.67" width="41.21" height="8.47"/><rect class="cls-24" x="259.3" y="698.67" width="41.21" height="8.47"/><rect class="cls-23" x="259.3" y="721.72" width="8.95" height="8.95"/><rect class="cls-24" x="275.61" y="721.72" width="8.95" height="8.95"/><rect class="cls-23" x="291.93" y="721.72" width="8.95" height="8.95"/><rect class="cls-20" x="308.24" y="721.72" width="8.95" height="8.95"/><g class="cls-37"><ellipse class="cls-38" cx="382.95" cy="309.22" rx="81.57" ry="123.51" transform="translate(-90.34 384.48) rotate(-53.58)"/></g><g class="cls-39"><path class="cls-40" d="M434.15,281.82c16.24,26.82,6.84,61.41-21,77.26s-63.57,7-79.82-19.85-6.85-61.41,21-77.26S417.9,255,434.15,281.82Z" transform="translate(2.9 -49.3)"/></g><g class="cls-41"><path class="cls-42" d="M160.6,725.11c53.61,42.11,73.39,104.11,44.16,138.48s-96.37,28.09-150-14S-18.61,745.46,10.61,711.09,107,683,160.6,725.11Z" transform="translate(2.9 -49.3)"/></g><g class="cls-43"><path class="cls-44" d="M158.88,759.94c16.25,26.81,6.85,61.41-21,77.26s-63.58,7-79.82-19.85-6.85-61.41,21-77.27S142.64,733.12,158.88,759.94Z" transform="translate(2.9 -49.3)"/></g><polygon class="cls-45" points="413.13 217.41 110.58 217.41 110.58 257.56 110.58 262.27 110.58 781.02 132.74 781.02 132.74 798.07 390.97 798.07 390.97 781.02 413.13 781.02 413.13 217.41"/></g><g class="cls-46"><rect x="736.51" y="681.93" width="258.23" height="116.13"/><rect class="cls-47" x="714.35" y="217.41" width="302.55" height="563.61"/><rect class="cls-48" x="741.63" y="283.5" width="247.97" height="454.54" rx="8.1"/><rect class="cls-18" x="714.35" y="257.57" width="302.55" height="4.71"/><rect class="cls-19" x="746.88" y="288.73" width="237.48" height="51.04" rx="8.1"/><rect class="cls-20" x="756.81" y="298.25" width="94.75" height="32"/><rect class="cls-19" x="762.82" y="301.96" width="82.52" height="11.48"/><rect class="cls-49" x="765.17" y="304.23" width="77.81" height="6.93"/><rect class="cls-19" x="762.82" y="315.56" width="82.52" height="11.48"/><rect class="cls-50" x="765.17" y="317.83" width="77.81" height="6.93"/><rect class="cls-20" x="962.83" y="298.25" width="9.73" height="32"/><rect class="cls-23" x="912.01" y="298.25" width="41.21" height="8.47"/><rect class="cls-24" x="863.06" y="298.25" width="41.21" height="8.47"/><rect class="cls-23" x="863.06" y="321.3" width="8.95" height="8.95"/><rect class="cls-24" x="879.38" y="321.3" width="8.95" height="8.95"/><rect class="cls-23" x="895.69" y="321.3" width="8.95" height="8.95"/><rect class="cls-20" x="912.01" y="321.3" width="8.95" height="8.95"/><rect class="cls-19" x="746.88" y="355.47" width="237.48" height="51.04" rx="8.1"/><rect class="cls-20" x="756.81" y="364.99" width="94.75" height="32"/><rect class="cls-19" x="762.82" y="368.7" width="82.52" height="11.48"/><rect class="cls-51" x="765.17" y="370.97" width="77.81" height="6.93"/><rect class="cls-19" x="762.82" y="382.29" width="82.52" height="11.48"/><rect class="cls-52" x="765.17" y="384.57" width="77.81" height="6.93"/><rect class="cls-20" x="962.83" y="364.99" width="9.73" height="32"/><rect class="cls-23" x="912.01" y="364.99" width="41.21" height="8.47"/><rect class="cls-24" x="863.06" y="364.99" width="41.21" height="8.47"/><rect class="cls-23" x="863.06" y="388.03" width="8.95" height="8.95"/><rect class="cls-24" x="879.38" y="388.03" width="8.95" height="8.95"/><rect class="cls-23" x="895.69" y="388.03" width="8.95" height="8.95"/><rect class="cls-20" x="912.01" y="388.03" width="8.95" height="8.95"/><rect class="cls-19" x="746.88" y="422.21" width="237.48" height="51.04" rx="8.1"/><rect class="cls-20" x="756.81" y="431.72" width="94.75" height="32"/><rect class="cls-19" x="762.82" y="435.44" width="82.52" height="11.48"/><rect class="cls-53" x="765.17" y="437.71" width="77.81" height="6.93"/><rect class="cls-19" x="762.82" y="449.03" width="82.52" height="11.48"/><rect class="cls-54" x="765.17" y="451.31" width="77.81" height="6.93"/><rect class="cls-20" x="962.83" y="431.72" width="9.73" height="32"/><rect class="cls-23" x="912.01" y="431.72" width="41.21" height="8.47"/><rect class="cls-24" x="863.06" y="431.72" width="41.21" height="8.47"/><rect class="cls-23" x="863.06" y="454.77" width="8.95" height="8.95"/><rect class="cls-24" x="879.38" y="454.77" width="8.95" height="8.95"/><rect class="cls-23" x="895.69" y="454.77" width="8.95" height="8.95"/><rect class="cls-20" x="912.01" y="454.77" width="8.95" height="8.95"/><rect class="cls-19" x="746.88" y="488.94" width="237.48" height="51.04" rx="8.1"/><rect class="cls-20" x="756.81" y="498.46" width="94.75" height="32"/><rect class="cls-19" x="762.82" y="502.17" width="82.52" height="11.48"/><rect class="cls-55" x="765.17" y="504.45" width="77.81" height="6.93"/><rect class="cls-19" x="762.82" y="515.77" width="82.52" height="11.48"/><rect class="cls-56" x="765.17" y="518.04" width="77.81" height="6.93"/><rect class="cls-20" x="962.83" y="498.46" width="9.73" height="32"/><rect class="cls-23" x="912.01" y="498.46" width="41.21" height="8.47"/><rect class="cls-24" x="863.06" y="498.46" width="41.21" height="8.47"/><rect class="cls-23" x="863.06" y="521.51" width="8.95" height="8.95"/><rect class="cls-24" x="879.38" y="521.51" width="8.95" height="8.95"/><rect class="cls-23" x="895.69" y="521.51" width="8.95" height="8.95"/><rect class="cls-20" x="912.01" y="521.51" width="8.95" height="8.95"/><rect class="cls-19" x="746.88" y="555.68" width="237.48" height="51.04" rx="8.1"/><rect class="cls-20" x="756.81" y="565.2" width="94.75" height="32"/><rect class="cls-19" x="762.82" y="568.91" width="82.52" height="11.48"/><rect class="cls-57" x="765.17" y="571.19" width="77.81" height="6.93"/><rect class="cls-19" x="762.82" y="582.51" width="82.52" height="11.48"/><rect class="cls-58" x="765.17" y="584.78" width="77.81" height="6.93"/><rect class="cls-20" x="962.83" y="565.2" width="9.73" height="32"/><rect class="cls-23" x="912.01" y="565.2" width="41.21" height="8.47"/><rect class="cls-24" x="863.06" y="565.2" width="41.21" height="8.47"/><rect class="cls-23" x="863.06" y="588.25" width="8.95" height="8.95"/><rect class="cls-24" x="879.38" y="588.25" width="8.95" height="8.95"/><rect class="cls-23" x="895.69" y="588.25" width="8.95" height="8.95"/><rect class="cls-20" x="912.01" y="588.25" width="8.95" height="8.95"/><rect class="cls-19" x="746.88" y="622.42" width="237.48" height="51.04" rx="8.1"/><rect class="cls-20" x="756.81" y="631.94" width="94.75" height="32"/><rect class="cls-19" x="762.82" y="635.65" width="82.52" height="11.48"/><rect class="cls-59" x="765.17" y="637.92" width="77.81" height="6.93"/><rect class="cls-19" x="762.82" y="649.25" width="82.52" height="11.48"/><rect class="cls-60" x="765.17" y="651.52" width="77.81" height="6.93"/><rect class="cls-20" x="962.83" y="631.94" width="9.73" height="32"/><rect class="cls-23" x="912.01" y="631.94" width="41.21" height="8.47"/><rect class="cls-24" x="863.06" y="631.94" width="41.21" height="8.47"/><rect class="cls-23" x="863.06" y="654.98" width="8.95" height="8.95"/><rect class="cls-24" x="879.38" y="654.98" width="8.95" height="8.95"/><rect class="cls-23" x="895.69" y="654.98" width="8.95" height="8.95"/><rect class="cls-20" x="912.01" y="654.98" width="8.95" height="8.95"/><rect class="cls-19" x="746.88" y="689.16" width="237.48" height="51.04" rx="8.1"/><rect class="cls-20" x="756.81" y="698.67" width="94.75" height="32"/><rect class="cls-19" x="762.82" y="702.39" width="82.52" height="11.48"/><rect class="cls-61" x="765.17" y="704.66" width="77.81" height="6.93"/><rect class="cls-19" x="762.82" y="715.98" width="82.52" height="11.48"/><rect class="cls-62" x="765.17" y="718.26" width="77.81" height="6.93"/><rect class="cls-20" x="962.83" y="698.67" width="9.73" height="32"/><rect class="cls-23" x="912.01" y="698.67" width="41.21" height="8.47"/><rect class="cls-24" x="863.06" y="698.67" width="41.21" height="8.47"/><rect class="cls-23" x="863.06" y="721.72" width="8.95" height="8.95"/><rect class="cls-24" x="879.38" y="721.72" width="8.95" height="8.95"/><rect class="cls-23" x="895.69" y="721.72" width="8.95" height="8.95"/><rect class="cls-20" x="912.01" y="721.72" width="8.95" height="8.95"/><g class="cls-63"><path class="cls-64" d="M1039.62,247c53.62,42.11,73.39,104.11,44.17,138.48s-96.37,28.09-150-14S860.41,267.34,889.63,233,986,204.88,1039.62,247Z" transform="translate(2.9 -49.3)"/></g><g class="cls-65"><path class="cls-66" d="M1037.91,281.82c16.25,26.82,6.85,61.41-21,77.26s-63.58,7-79.83-19.85-6.85-61.41,21-77.26S1021.66,255,1037.91,281.82Z" transform="translate(2.9 -49.3)"/></g><g class="cls-67"><path class="cls-68" d="M764.36,725.11c53.62,42.11,73.39,104.11,44.17,138.48s-96.38,28.09-150-14-73.39-104.11-44.17-138.48S710.75,683,764.36,725.11Z" transform="translate(2.9 -49.3)"/></g><g class="cls-69"><path class="cls-70" d="M762.65,759.94c16.25,26.81,6.85,61.41-21,77.26s-63.58,7-79.83-19.85-6.85-61.41,21-77.27S746.4,733.12,762.65,759.94Z" transform="translate(2.9 -49.3)"/></g><polygon class="cls-71" points="1016.9 217.41 714.35 217.41 714.35 257.56 714.35 262.27 714.35 781.02 736.5 781.02 736.5 798.07 994.74 798.07 994.74 781.02 1016.9 781.02 1016.9 217.41"/></g><g class="cls-72"><rect x="372.95" y="769.03" width="381.58" height="171.61"/><rect class="cls-73" x="340.21" y="82.62" width="447.06" height="832.83"/><rect class="cls-74" x="380.53" y="180.28" width="366.42" height="671.65" rx="11.97"/><rect class="cls-18" x="340.21" y="141.96" width="447.06" height="6.95"/><rect class="cls-19" x="388.28" y="188.01" width="350.92" height="75.41" rx="11.97"/><rect class="cls-20" x="402.95" y="202.07" width="140.01" height="47.29"/><rect class="cls-19" x="411.83" y="207.56" width="121.93" height="16.96"/><rect class="cls-75" x="415.31" y="210.92" width="114.98" height="10.24"/><rect class="cls-19" x="411.83" y="227.65" width="121.93" height="16.96"/><rect class="cls-76" x="415.31" y="231.01" width="114.98" height="10.24"/><rect class="cls-20" x="707.39" y="202.07" width="14.37" height="47.29"/><rect class="cls-23" x="632.28" y="202.07" width="60.89" height="12.52"/><rect class="cls-24" x="559.96" y="202.07" width="60.89" height="12.52"/><rect class="cls-23" x="559.96" y="236.13" width="13.23" height="13.23"/><rect class="cls-24" x="584.07" y="236.13" width="13.23" height="13.23"/><rect class="cls-23" x="608.17" y="236.13" width="13.23" height="13.23"/><rect class="cls-20" x="632.28" y="236.13" width="13.23" height="13.23"/><rect class="cls-19" x="388.28" y="286.63" width="350.92" height="75.41" rx="11.97"/><rect class="cls-20" x="402.95" y="300.69" width="140.01" height="47.29"/><rect class="cls-19" x="411.83" y="306.18" width="121.93" height="16.96"/><rect class="cls-77" x="415.31" y="309.54" width="114.98" height="10.24"/><rect class="cls-19" x="411.83" y="326.27" width="121.93" height="16.96"/><rect class="cls-78" x="415.31" y="329.63" width="114.98" height="10.24"/><rect class="cls-20" x="707.39" y="300.69" width="14.37" height="47.29"/><rect class="cls-23" x="632.28" y="300.69" width="60.89" height="12.52"/><rect class="cls-24" x="559.96" y="300.69" width="60.89" height="12.52"/><rect class="cls-23" x="559.96" y="334.75" width="13.23" height="13.23"/><rect class="cls-24" x="584.07" y="334.75" width="13.23" height="13.23"/><rect class="cls-23" x="608.17" y="334.75" width="13.23" height="13.23"/><rect class="cls-20" x="632.28" y="334.75" width="13.23" height="13.23"/><rect class="cls-19" x="388.28" y="385.24" width="350.92" height="75.41" rx="11.97"/><rect class="cls-20" x="402.95" y="399.31" width="140.01" height="47.29"/><rect class="cls-19" x="411.83" y="404.79" width="121.93" height="16.96"/><rect class="cls-79" x="415.31" y="408.15" width="114.98" height="10.24"/><rect class="cls-19" x="411.83" y="424.88" width="121.93" height="16.96"/><rect class="cls-80" x="415.31" y="428.24" width="114.98" height="10.24"/><rect class="cls-20" x="707.39" y="399.31" width="14.37" height="47.29"/><rect class="cls-23" x="632.28" y="399.31" width="60.89" height="12.52"/><rect class="cls-24" x="559.96" y="399.31" width="60.89" height="12.52"/><rect class="cls-23" x="559.96" y="433.36" width="13.23" height="13.23"/><rect class="cls-24" x="584.07" y="433.36" width="13.23" height="13.23"/><rect class="cls-23" x="608.17" y="433.36" width="13.23" height="13.23"/><rect class="cls-20" x="632.28" y="433.36" width="13.23" height="13.23"/><rect class="cls-19" x="388.28" y="483.86" width="350.92" height="75.41" rx="11.97"/><rect class="cls-20" x="402.95" y="497.92" width="140.01" height="47.29"/><rect class="cls-19" x="411.83" y="503.41" width="121.93" height="16.96"/><rect class="cls-81" x="415.31" y="506.77" width="114.98" height="10.24"/><rect class="cls-19" x="411.83" y="523.5" width="121.93" height="16.96"/><rect class="cls-82" x="415.31" y="526.86" width="114.98" height="10.24"/><rect class="cls-20" x="707.39" y="497.92" width="14.37" height="47.29"/><rect class="cls-23" x="632.28" y="497.92" width="60.89" height="12.52"/><rect class="cls-24" x="559.96" y="497.92" width="60.89" height="12.52"/><rect class="cls-23" x="559.96" y="531.98" width="13.23" height="13.23"/><rect class="cls-24" x="584.07" y="531.98" width="13.23" height="13.23"/><rect class="cls-23" x="608.17" y="531.98" width="13.23" height="13.23"/><rect class="cls-20" x="632.28" y="531.98" width="13.23" height="13.23"/><rect class="cls-19" x="388.28" y="582.47" width="350.92" height="75.41" rx="11.97"/><rect class="cls-20" x="402.95" y="596.54" width="140.01" height="47.29"/><rect class="cls-19" x="411.83" y="602.02" width="121.93" height="16.96"/><rect class="cls-83" x="415.31" y="605.38" width="114.98" height="10.24"/><rect class="cls-19" x="411.83" y="622.11" width="121.93" height="16.96"/><rect class="cls-84" x="415.31" y="625.47" width="114.98" height="10.24"/><rect class="cls-20" x="707.39" y="596.54" width="14.37" height="47.29"/><rect class="cls-23" x="632.28" y="596.54" width="60.89" height="12.52"/><rect class="cls-24" x="559.96" y="596.54" width="60.89" height="12.52"/><rect class="cls-23" x="559.96" y="630.59" width="13.23" height="13.23"/><rect class="cls-24" x="584.07" y="630.59" width="13.23" height="13.23"/><rect class="cls-23" x="608.17" y="630.59" width="13.23" height="13.23"/><rect class="cls-20" x="632.28" y="630.59" width="13.23" height="13.23"/><rect class="cls-19" x="388.28" y="681.09" width="350.92" height="75.41" rx="11.97"/><rect class="cls-20" x="402.95" y="695.15" width="140.01" height="47.29"/><rect class="cls-19" x="411.83" y="700.64" width="121.93" height="16.96"/><rect class="cls-85" x="415.31" y="704" width="114.98" height="10.24"/><rect class="cls-19" x="411.83" y="720.73" width="121.93" height="16.96"/><rect class="cls-86" x="415.31" y="724.09" width="114.98" height="10.24"/><rect class="cls-20" x="707.39" y="695.15" width="14.37" height="47.29"/><rect class="cls-23" x="632.28" y="695.15" width="60.89" height="12.52"/><rect class="cls-24" x="559.96" y="695.15" width="60.89" height="12.52"/><rect class="cls-23" x="559.96" y="729.21" width="13.23" height="13.23"/><rect class="cls-24" x="584.07" y="729.21" width="13.23" height="13.23"/><rect class="cls-23" x="608.17" y="729.21" width="13.23" height="13.23"/><rect class="cls-20" x="632.28" y="729.21" width="13.23" height="13.23"/><rect class="cls-19" x="388.28" y="779.7" width="350.92" height="75.41" rx="11.97"/><rect class="cls-20" x="402.95" y="793.77" width="140.01" height="47.29"/><rect class="cls-19" x="411.83" y="799.25" width="121.93" height="16.96"/><rect class="cls-87" x="415.31" y="802.61" width="114.98" height="10.24"/><rect class="cls-19" x="411.83" y="819.34" width="121.93" height="16.96"/><rect class="cls-88" x="415.31" y="822.7" width="114.98" height="10.24"/><rect class="cls-20" x="707.39" y="793.77" width="14.37" height="47.29"/><rect class="cls-23" x="632.28" y="793.77" width="60.89" height="12.52"/><rect class="cls-24" x="559.96" y="793.77" width="60.89" height="12.52"/><rect class="cls-23" x="559.96" y="827.82" width="13.23" height="13.23"/><rect class="cls-24" x="584.07" y="827.82" width="13.23" height="13.23"/><rect class="cls-23" x="608.17" y="827.82" width="13.23" height="13.23"/><rect class="cls-20" x="632.28" y="827.82" width="13.23" height="13.23"/><g class="cls-89"><ellipse class="cls-90" cx="744.05" cy="194.74" rx="120.54" ry="182.51" transform="translate(148.49 628.53) rotate(-53.58)"/></g><g class="cls-91"><path class="cls-92" d="M819.71,154.25c24,39.62,10.12,90.74-31,114.17s-94,10.29-118-29.34-10.12-90.74,31-114.17S795.7,114.61,819.71,154.25Z" transform="translate(2.9 -49.3)"/></g><g class="cls-93"><path class="cls-94" d="M415.5,809.28c79.22,62.22,108.44,153.84,65.26,204.62s-142.41,41.51-221.63-20.71S150.68,839.35,193.86,788.56,336.27,747.05,415.5,809.28Z" transform="translate(2.9 -49.3)"/></g><g class="cls-95"><path class="cls-96" d="M413,860.74c24,39.63,10.12,90.75-31,114.17S288,985.21,264,945.58s-10.12-90.75,31-114.18S389,821.11,413,860.74Z" transform="translate(2.9 -49.3)"/></g><polygon class="cls-97" points="787.27 82.62 340.21 82.62 340.21 141.96 340.21 148.91 340.21 915.45 372.95 915.45 372.95 940.63 754.53 940.63 754.53 915.45 787.27 915.45 787.27 82.62"/></g></g></g></svg>