<svg xmlns="http://www.w3.org/2000/svg" viewBox="0 0 1122 1122"><defs><style>.cls-1{fill:#fff;}.cls-2{fill:#47a142;}.cls-3{fill:#268534;}.cls-4{fill:#58ad51;}</style></defs><title>call2</title><g id="BG"><rect class="cls-1" width="1122" height="1122"/></g><g id="Icon"><path class="cls-2" d="M434.18,648.86a39.36,39.36,0,0,0-55.54,3.72l-69.08,79a39.35,39.35,0,0,0,3.72,55.53L361,828.87c25.9,19.76,49.2,17,49.59,17,9.87-1.83,29.57,1.75,44-2.81,56.17-17.81,137-53.73,229.05-159S805.74,487.77,820.24,424.75c4.51-19.61-.48-42.25.78-54.17,0-.39.8-23.47-19.2-41a29.33,29.33,0,0,1-3.41-3.44l-33.08-29.56-13.71-10.9a39.37,39.37,0,0,0-55.54,3.73l-69.08,79A39.36,39.36,0,0,0,630.72,424l59.52,52c-22.8,45.15-47.41,86.95-89.7,135.31-36.88,42.19-68,67.39-103.39,92.58Z"/><path class="cls-3" d="M353.53,822.32l7.48,6.55c25.9,19.76,49.2,17,49.59,17,9.87-1.83,29.57,1.75,44-2.81,56.17-17.81,137-53.73,229.05-159S805.74,487.77,820.24,424.75c4.51-19.61-.48-42.25.78-54.17a45.84,45.84,0,0,0-1.33-11.09C793.11,620.45,556,766,353.53,822.32Z"/><path class="cls-4" d="M710.05,296.93,669,343.84c18.69-18.83,66.24-53.78,126.2-1.27L740.74,294.9A21.82,21.82,0,0,0,710.05,296.93Z"/><path class="cls-4" d="M393.34,663.71l-41.09,46.91c18.69-18.83,66.24-53.78,126.2-1.26L424,661.68A21.81,21.81,0,0,0,393.34,663.71Z"/></g></svg>