<svg id="Layer_1" data-name="Layer 1" xmlns="http://www.w3.org/2000/svg" viewBox="0 0 516 650.08"><defs><style>.cls-1,.cls-10,.cls-11,.cls-2,.cls-4,.cls-6,.cls-7,.cls-8,.cls-9{fill:none;}.cls-1,.cls-2{stroke:#302e29;}.cls-1,.cls-10,.cls-11,.cls-2,.cls-4,.cls-9{stroke-linejoin:round;}.cls-1{stroke-width:6px;}.cls-2{stroke-width:7px;}.cls-3{fill:#ffb000;}.cls-10,.cls-11,.cls-4,.cls-7,.cls-8{stroke:#ffb000;}.cls-4{stroke-linecap:round;stroke-width:7.16px;}.cls-5{fill:#302e29;}.cls-6,.cls-9{stroke:#e09705;}.cls-6,.cls-7,.cls-8{stroke-miterlimit:10;}.cls-11,.cls-6,.cls-8,.cls-9{stroke-width:4.72px;}.cls-10,.cls-7{stroke-width:7.08px;}.cls-12{fill:#757473;}.cls-13{fill:#636363;}.cls-14{fill:#87e5e8;}.cls-15{fill:#fff;opacity:0.7;}</style></defs><title>Capture</title><polyline class="cls-1" points="245.38 414.82 405.46 249.46 500.1 414.82"/><line class="cls-2" x1="405.46" y1="127.14" x2="405.46" y2="213.25"/><rect class="cls-3" x="398.3" y="205.83" width="14.32" height="17.69" rx="1.07"/><path class="cls-3" d="M753.21,481.37v15.54H741V481.37h12.17m0-2.15H741a2.15,2.15,0,0,0-2.15,2.15v15.54a2.15,2.15,0,0,0,2.15,2.15h12.17a2.15,2.15,0,0,0,2.15-2.15V481.37a2.15,2.15,0,0,0-2.15-2.15Z" transform="translate(-341.67 -274.46)"/><path class="cls-4" d="M736.11,521a11,11,0,1,0,11-11V492" transform="translate(-341.67 -274.46)"/><rect class="cls-5" x="232.67" y="410.82" width="283.33" height="10.39"/><line class="cls-1" x1="405.46" y1="249.46" x2="500.1" y2="414.82"/><polyline class="cls-2" points="25.24 62.49 68.9 3.54 372.74 82.2"/><rect class="cls-5" x="3.54" y="59.49" width="43.36" height="100.04"/><line class="cls-6" x1="46.95" y1="125.61" x2="3.54" y2="82.2"/><rect class="cls-7" x="345.21" y="356.66" width="43.41" height="43.41" transform="translate(403.61 -263.01) rotate(90)"/><line class="cls-8" x1="46.95" y1="82.2" x2="3.54" y2="125.61"/><line class="cls-6" x1="90.36" y1="125.61" x2="46.95" y2="82.2"/><rect class="cls-7" x="388.62" y="356.66" width="43.41" height="43.41" transform="translate(447.02 -306.42) rotate(90)"/><line class="cls-8" x1="90.36" y1="82.2" x2="46.95" y2="125.61"/><line class="cls-6" x1="133.77" y1="125.61" x2="90.36" y2="82.2"/><rect class="cls-7" x="432.03" y="356.66" width="43.41" height="43.41" transform="translate(490.43 -349.83) rotate(90)"/><line class="cls-8" x1="133.77" y1="82.2" x2="90.36" y2="125.61"/><line class="cls-6" x1="177.18" y1="125.61" x2="133.77" y2="82.2"/><rect class="cls-7" x="475.44" y="356.66" width="43.41" height="43.41" transform="translate(533.84 -393.24) rotate(90)"/><line class="cls-8" x1="177.18" y1="82.2" x2="133.77" y2="125.61"/><line class="cls-6" x1="220.59" y1="125.61" x2="177.18" y2="82.2"/><rect class="cls-7" x="518.85" y="356.66" width="43.41" height="43.41" transform="translate(577.25 -436.65) rotate(90)"/><line class="cls-8" x1="220.59" y1="82.2" x2="177.18" y2="125.61"/><line class="cls-6" x1="264" y1="125.61" x2="220.59" y2="82.2"/><rect class="cls-7" x="562.26" y="356.66" width="43.41" height="43.41" transform="translate(620.66 -480.06) rotate(90)"/><line class="cls-8" x1="264" y1="82.2" x2="220.59" y2="125.61"/><line class="cls-6" x1="307.41" y1="125.61" x2="264" y2="82.2"/><rect class="cls-7" x="605.67" y="356.66" width="43.41" height="43.41" transform="translate(664.07 -523.47) rotate(90)"/><line class="cls-8" x1="307.41" y1="82.2" x2="264" y2="125.61"/><line class="cls-6" x1="351.03" y1="125.61" x2="307.62" y2="82.2"/><rect class="cls-7" x="649.29" y="356.66" width="43.41" height="43.41" transform="translate(707.7 -567.09) rotate(90)"/><line class="cls-8" x1="351.03" y1="82.2" x2="307.62" y2="125.61"/><line class="cls-6" x1="394.45" y1="125.61" x2="351.03" y2="82.2"/><polygon class="cls-7" points="351.04 125.61 351.04 82.2 394.44 82.2 456.44 125.61 351.04 125.61"/><line class="cls-8" x1="394.45" y1="82.2" x2="351.03" y2="125.61"/><line class="cls-6" x1="61.31" y1="603.13" x2="17.9" y2="646.54"/><rect class="cls-7" x="17.9" y="603.13" width="43.41" height="43.41"/><line class="cls-8" x1="17.9" y1="603.13" x2="61.31" y2="646.54"/><line class="cls-6" x1="61.31" y1="559.72" x2="17.9" y2="603.13"/><rect class="cls-7" x="17.9" y="559.72" width="43.41" height="43.41"/><line class="cls-8" x1="17.9" y1="559.72" x2="61.31" y2="603.13"/><line class="cls-6" x1="61.31" y1="516.31" x2="17.9" y2="559.72"/><rect class="cls-7" x="17.9" y="516.31" width="43.41" height="43.41"/><line class="cls-8" x1="17.9" y1="516.31" x2="61.31" y2="559.72"/><line class="cls-6" x1="61.31" y1="472.9" x2="17.9" y2="516.31"/><rect class="cls-7" x="17.9" y="472.9" width="43.41" height="43.41"/><line class="cls-8" x1="17.9" y1="472.9" x2="61.31" y2="516.31"/><line class="cls-6" x1="61.31" y1="429.49" x2="17.9" y2="472.9"/><rect class="cls-7" x="17.9" y="429.49" width="43.41" height="43.41"/><line class="cls-8" x1="17.9" y1="429.49" x2="61.31" y2="472.9"/><line class="cls-6" x1="61.31" y1="386.07" x2="17.9" y2="429.49"/><rect class="cls-7" x="17.9" y="386.07" width="43.41" height="43.41"/><line class="cls-8" x1="17.9" y1="386.07" x2="61.31" y2="429.49"/><line class="cls-6" x1="61.31" y1="342.66" x2="17.9" y2="386.07"/><rect class="cls-7" x="17.9" y="342.66" width="43.41" height="43.41"/><line class="cls-8" x1="17.9" y1="342.66" x2="61.31" y2="386.07"/><line class="cls-6" x1="61.31" y1="299.25" x2="17.9" y2="342.66"/><rect class="cls-7" x="17.9" y="299.25" width="43.41" height="43.41"/><line class="cls-8" x1="17.9" y1="299.25" x2="61.31" y2="342.66"/><line class="cls-6" x1="61.31" y1="255.84" x2="17.9" y2="299.25"/><rect class="cls-7" x="17.9" y="255.84" width="43.41" height="43.41"/><line class="cls-8" x1="17.9" y1="255.84" x2="61.31" y2="299.25"/><line class="cls-6" x1="61.31" y1="212.43" x2="17.9" y2="255.84"/><rect class="cls-7" x="17.9" y="212.43" width="43.41" height="43.41"/><line class="cls-8" x1="17.9" y1="212.43" x2="61.31" y2="255.84"/><line class="cls-6" x1="61.31" y1="169.02" x2="17.9" y2="212.43"/><rect class="cls-7" x="17.9" y="169.02" width="43.41" height="43.41"/><line class="cls-8" x1="17.9" y1="169.02" x2="61.31" y2="212.43"/><line class="cls-6" x1="60.9" y1="125.61" x2="17.49" y2="169.02"/><rect class="cls-7" x="17.49" y="125.61" width="43.41" height="43.41"/><line class="cls-8" x1="17.49" y1="125.61" x2="60.9" y2="169.02"/><line class="cls-6" x1="90.31" y1="82.2" x2="46.9" y2="125.61"/><rect class="cls-7" x="46.9" y="82.2" width="43.41" height="43.41"/><line class="cls-8" x1="46.9" y1="82.2" x2="90.31" y2="125.61"/><line class="cls-9" x1="79.31" y1="36.79" x2="46.9" y2="82.2"/><polygon class="cls-10" points="90.31 82.2 46.9 82.2 68.9 3.54 90.31 82.2"/><line class="cls-11" x1="58.9" y1="36.79" x2="90.31" y2="82.2"/><line class="cls-7" x1="394.33" y1="82.2" x2="394.33" y2="127.14"/><polygon class="cls-12" points="157.29 153.21 43.43 153.21 43.43 78.31 133.29 78.31 157.29 153.21"/><polygon class="cls-13" points="157.29 153.21 147.77 168.02 43.43 168.02 43.43 153.21 157.29 153.21"/><polygon class="cls-14" points="139.67 138.21 55.67 138.21 55.67 92.54 126.67 92.54 139.67 138.21"/><polygon class="cls-15" points="55.67 138.21 80.02 92.54 90.31 92.54 66.33 138.21 55.67 138.21"/><polygon class="cls-15" points="72.99 138.21 97.67 92.54 100.7 92.54 72.99 138.21"/></svg>