<svg xmlns="http://www.w3.org/2000/svg" viewBox="0 0 500 500"><defs><style>.cls-1{fill:#fff;}.cls-2{fill:#56438c;}.cls-3{fill:#6c6fc3;}</style></defs><title>3657574</title><g id="BACKGROUND"><rect class="cls-1" width="500" height="500"/></g><g id="OBJECT"><rect class="cls-2" x="134.74" y="197.16" width="221.68" height="22.54" rx="6.39"/><path class="cls-2" d="M190.34,321H300.83a31.06,31.06,0,0,0,30.49-25.15H159.85A31.06,31.06,0,0,0,190.34,321Z"/><path class="cls-3" d="M145.1,219.7l14.75,76.12H331.32l14.75-76.12Zm18,28.68-2.55-16.17h24a10,10,0,0,1,10,9.08l1.5,15.57h-23A10,10,0,0,1,163.13,248.38Zm14.92,40.16a10.05,10.05,0,0,1-9.93-8.49l-2.07-13.17h21.87a10,10,0,0,1,10,9.09l1.21,12.57Zm28.16-56.33h23.2a10.05,10.05,0,0,1,10.05,9.93l.17,14.72H217.35a10,10,0,0,1-10-9.31Zm13.45,56.33a10,10,0,0,1-10-9.32l-.9-12.34h21.07a10.06,10.06,0,0,1,10.05,9.93l.13,11.73Zm61.87-9.32a10,10,0,0,1-10,9.32H251.18l.13-11.73a10.06,10.06,0,0,1,10.05-9.93h21.07Zm2.31-31.67a10,10,0,0,1-10,9.31H251.54l.17-14.72a10.05,10.05,0,0,1,10-9.93H285Zm39.21,32.5a10.05,10.05,0,0,1-9.93,8.49H292L293.25,276a10,10,0,0,1,10-9.09h21.87Zm5-31.67a10,10,0,0,1-9.93,8.48h-23l1.5-15.57a10,10,0,0,1,10-9.08h24Z"/><path class="cls-2" d="M226.68,223.38l7.47,6.26a10.95,10.95,0,0,0,15.44-1.35l7.21-8.59h-33A11,11,0,0,0,226.68,223.38Z"/><path class="cls-3" d="M228.83,210.87l89.55-106.72a6.39,6.39,0,0,1,9-.79l7.47,6.26a6.4,6.4,0,0,1,.78,9L246.09,225.35a6.39,6.39,0,0,1-9,.79l-7.46-6.26A6.39,6.39,0,0,1,228.83,210.87Z"/><path class="cls-2" d="M250,212.1a5.71,5.71,0,1,1-.7-8A5.71,5.71,0,0,1,250,212.1Z"/></g></svg>