<svg id="Ladder_and_two_mens" data-name="Ladder and two mens" xmlns="http://www.w3.org/2000/svg" viewBox="0 0 191.77 377.89"><defs><style>.cls-1{fill:#b3b3b3;}.cls-1,.cls-10,.cls-11,.cls-12,.cls-13,.cls-14,.cls-15,.cls-16,.cls-17,.cls-18,.cls-19,.cls-2,.cls-20,.cls-21,.cls-22,.cls-23,.cls-24,.cls-25,.cls-26,.cls-27,.cls-28,.cls-29,.cls-3,.cls-30,.cls-31,.cls-32,.cls-33,.cls-34,.cls-35,.cls-36,.cls-37,.cls-38,.cls-39,.cls-4,.cls-40,.cls-41,.cls-42,.cls-43,.cls-44,.cls-49,.cls-5,.cls-50,.cls-54,.cls-55,.cls-56,.cls-58,.cls-59,.cls-6,.cls-60,.cls-61,.cls-62,.cls-7,.cls-8,.cls-9{fill-rule:evenodd;}.cls-2{fill:#161616;}.cls-3{fill:#693c30;}.cls-4{fill:#ff9970;}.cls-5{fill:#4f271e;}.cls-6{fill:#f5865a;}.cls-7{fill:#ffaf8f;}.cls-8{fill:#ffa07a;}.cls-9{fill:#fc9268;}.cls-10{fill:#5a3127;}.cls-11{fill:#703e31;}.cls-12{fill:#fc826f;}.cls-13{fill:#ed6657;}.cls-14{fill:#ff9578;}.cls-15{fill:#ffc4ad;}.cls-16{fill:#f7d9d9;}.cls-17{fill:#c75c32;}.cls-18{fill:#421f16;}.cls-19{fill:#8c6157;}.cls-20{fill:#ab7e74;}.cls-21{fill:#ffa496;}.cls-22{fill:#1e6e62;}.cls-24{fill:#fff;}.cls-25{fill:#78473b;}.cls-26{fill:#9c1d1d;}.cls-27{fill:#f06d58;}.cls-28{fill:#ffa885;}.cls-29{fill:#30140c;}.cls-30{fill:#eb7d52;}.cls-31{fill:#ffc8b2;}.cls-32{fill:#2b1e2e;}.cls-33{fill:#261929;}.cls-34{fill:#cc0e0e;}.cls-35{fill:#e31212;}.cls-36{fill:#211524;}.cls-37{fill:#291015;}.cls-38{fill:#36181e;}.cls-39{fill:#59363d;}.cls-40{fill:#e6e6e6;}.cls-41{fill:#ccc;}.cls-42{fill:#3f3142;}.cls-43{fill:#352638;}.cls-44{fill:#332736;}.cls-45{fill:#d96818;}.cls-46{fill:#f5924c;}.cls-47{fill:#b84300;}.cls-48,.cls-54{fill:#f0731f;}.cls-49{fill:#ffb482;}.cls-50{fill:#e35b00;}.cls-51{fill:#7a2c1b;}.cls-52{fill:#8c3d2b;}.cls-53{fill:#6b1e0d;}.cls-55{fill:#a6957e;}.cls-56{fill:#30141a;}.cls-57,.cls-58{fill:#c9c9c9;}.cls-59{fill:#a3a3a3;}.cls-60{fill:#e0e0e0;}.cls-61{fill:gray;}.cls-62{fill:#1a1a1a;}</style></defs><title>6</title><path class="cls-1" d="M196.05,80.29c-4.43,1.19-4.6.9-3.71,4.1l89.3,310.7H291.9L201.38,81.3C200.42,78,199.87,79.27,196.05,80.29Z" transform="translate(-108.89 -26.43)"/><polygon class="cls-2" points="180.74 362.7 170.5 362.73 172.17 368.97 182.42 368.97 180.74 362.7"/><path class="cls-3" d="M272.13,43.93c1.7,10.24-3.18,7.19-4.81,18.47-1.33.3-3.15,2.33-3.33,1.2-1-6.24,1-15.36,2.75-18.91C270.2,43.19,272.74,43,272.13,43.93Z" transform="translate(-108.89 -26.43)"/><path class="cls-4" d="M266.27,70.56a40.3,40.3,0,0,0-12.13,2.58q-2.53-12.81-2.54-12.81a113.41,113.41,0,0,0,14-2.66C265.68,68.8,266.33,67.89,266.27,70.56Z" transform="translate(-108.89 -26.43)"/><path class="cls-5" d="M247.74,32.88q7,9.46.5,16.62Q242.86,43,247.74,32.88Z" transform="translate(-108.89 -26.43)"/><path class="cls-6" d="M260.12,70.56q5.06-1.66,5.44-2.62s-.12-2.06-.37-6.17q-1.14,1.24-12.12,6Q259.72,68.58,260.12,70.56Z" transform="translate(-108.89 -26.43)"/><path class="cls-7" d="M266.08,49.44c.28,3.56.59,5,.34,8-.1,1.16-.59,3-.74,4.63-.86.2-7.4,5.1-9.78,5.46a19.82,19.82,0,0,1-7.27-.2c-1.76-.43-1.82-2.39-2.09-3.71-.81-4-1.43-7.92-1.23-9.05s1.06-1.77,1.61-3.33c.47-1.37-1.62-3.7-1.29-5,.28-1.09,1.25-1.24,1.69-2.07a64.61,64.61,0,0,0,3-6.66q2.78,1.77,11-1.75Q259.74,43.41,266.08,49.44Z" transform="translate(-108.89 -26.43)"/><path class="cls-4" d="M250,52.08c-.11.94-1.06,2-1.13,2.63-.16,1.37.61,1.8.61,1.8a2.73,2.73,0,0,1-1.09,2.14c-1.81.69-1.42,1.38.18,2.41.07,2.41,2.16,1.32.56,2.71a3,3,0,0,0-.63,3c-1.93-.49-1.58-2.76-2-4.79-.69-3.13-1.17-7.64.09-8.84.06-.75.07-1.88.07-1.88C247.74,51.83,249,52.6,250,52.08Z" transform="translate(-108.89 -26.43)"/><path class="cls-8" d="M256.56,67c4-2,6.79-3.55,8.43-5.74.51-2.92.75-8.4.05-10.74-1.21,1.65-4.26,3.51-3.78,5.88,1.27,6.32-2.63,8.42-5,8.7A9,9,0,0,0,256.56,67Z" transform="translate(-108.89 -26.43)"/><path class="cls-4" d="M260.19,49.88a1.71,1.71,0,0,0,2.53-.36q-2.87-8-8.51-2.32c-.73,1.68-.42,2.68.93,3Q257.2,44.83,260.19,49.88Z" transform="translate(-108.89 -26.43)"/><path class="cls-9" d="M258.38,59.24a2.48,2.48,0,0,1,1.81.48c0-.68-.3-1.21-1-1.13A1.79,1.79,0,0,1,258.38,59.24Z" transform="translate(-108.89 -26.43)"/><path class="cls-10" d="M261.08,27.12a19.47,19.47,0,0,1,11.66,9.65c-5.45-.7-12.5-.59-19,3.14l-2.75.23Q238.5,23.92,261.08,27.12Z" transform="translate(-108.89 -26.43)"/><path class="cls-11" d="M266.34,45.58a2.37,2.37,0,0,0-2.72,1q1.13,5.6.13,8.94l2.7-.94C266.24,49.92,266.34,45.58,266.34,45.58Z" transform="translate(-108.89 -26.43)"/><path class="cls-10" d="M268.81,33.55l-7.45,2.22q-3.44,6.76,2.5,12c2.72-4.07,7.83-2.56,9.58-3.41Q273.09,36.87,268.81,33.55Z" transform="translate(-108.89 -26.43)"/><path class="cls-10" d="M254.35,46.06c2.64-4.67,5.38-3.13,8.37,3.46q-4.28-7.62-8.23-.13C254.63,49.24,254.21,46.71,254.35,46.06Z" transform="translate(-108.89 -26.43)"/><path class="cls-4" d="M249.19,61.74a19.28,19.28,0,0,0,4.36,0,1.84,1.84,0,0,1,.74,2.37,8.11,8.11,0,0,0-5.2-.31C249.42,63,250.09,62.29,249.19,61.74Z" transform="translate(-108.89 -26.43)"/><path class="cls-12" d="M248.25,59.35c3.61-.87,8.36,1.39,10.85-.44A10.19,10.19,0,0,1,252,61.84a23.42,23.42,0,0,1-3.36-.17C247.94,61.42,246.93,60,248.25,59.35Z" transform="translate(-108.89 -26.43)"/><path class="cls-13" d="M259.1,58.91c-2.81,1.12-4.09-.16-6-.28-.81-.05-1.78.35-2.48.34-.55,0-1.52-.56-2.31-.32-.58.18-.11.88-.11.88a22.8,22.8,0,0,1,2.28.34c.67,0,1.24-.19,2-.16C255.86,59.83,258.27,59.73,259.1,58.91Z" transform="translate(-108.89 -26.43)"/><path class="cls-14" d="M266.28,54.83a26.53,26.53,0,0,1-.2,2.93c2.16.67,4.27-1.26,4.23-4.65,0-1-.25-3-1.27-2.89-1.16,0-2.22,1.19-2.66,2.82A9.39,9.39,0,0,0,266.28,54.83Z" transform="translate(-108.89 -26.43)"/><path class="cls-15" d="M250.87,55a1.07,1.07,0,0,1,.74,0c.13.09,0,.23-.26.33a1.07,1.07,0,0,1-.74,0C250.47,55.27,250.59,55.12,250.87,55Z" transform="translate(-108.89 -26.43)"/><path class="cls-3" d="M263.56,56c1.48-.52,2.69-1.1,2.69-1.1l.08.16s-1.23.58-2.71,1.1Z" transform="translate(-108.89 -26.43)"/><path class="cls-16" d="M248.08,48.27c.77,0,2,1.89,2,3.22,0,2-3.5,2.38-3.45-.84C246.65,49.32,247.3,48.26,248.08,48.27Z" transform="translate(-108.89 -26.43)"/><path class="cls-4" d="M249.36,49.36c1.16,1.75,0,3.56-.67,4.79a6.13,6.13,0,0,0-.43,1.14c-.2.71.64,1.39,1.79,1.65.25.06-.48,1.57.42,1.56s1-1.35,1.3-1.35a3.42,3.42,0,0,0,2.88-1.57c.07-1.21-.05-3.26-2.86-1.8,1.07-.27,2.42,0,2.25,1.54a2.23,2.23,0,0,0-1.66-.16c-1.39.67-2,1.26-3.14.66-.74-.38-.47-1-.19-1.66a14.89,14.89,0,0,0,1.1-2.47c.18-.78.43-4.37-.51-5.36a5.48,5.48,0,0,1,.22,1C250.19,49.07,248.64,48.26,249.36,49.36Z" transform="translate(-108.89 -26.43)"/><path class="cls-17" d="M252.7,56.37a.76.76,0,0,0,.87-.37c-1-.65-1.73.3-2.46.53C251.57,56.68,252.6,56.76,252.7,56.37Z" transform="translate(-108.89 -26.43)"/><path class="cls-18" d="M255.89,34.32q4.83-8.19,15.74.51-7.44-4.48-17.23,4.46h0l-.65.61q1.88-11.74,8.13-11Q258,29.38,255.89,34.32Z" transform="translate(-108.89 -26.43)"/><path class="cls-18" d="M252.37,40q-7.16-16.65,8.71-12.9C252.51,26.07,249.48,29.59,252.37,40Z" transform="translate(-108.89 -26.43)"/><path class="cls-18" d="M261.14,37.1a33.52,33.52,0,0,1,10.33-.47q-9.59.4-11.21,5.46A10.92,10.92,0,0,1,261.14,37.1Z" transform="translate(-108.89 -26.43)"/><path class="cls-19" d="M273.44,44.34l-1.16.62q-3.27-1.16-8.46,2.76A11.84,11.84,0,0,1,260.88,44q7.83-3.78,12.44-1.21Z" transform="translate(-108.89 -26.43)"/><path class="cls-19" d="M263.71,47.62a.46.46,0,0,0,.21.73q5.44-3.09,7.59-2.59C269.37,45.07,266.77,45.68,263.71,47.62Z" transform="translate(-108.89 -26.43)"/><path class="cls-19" d="M260.46,42.88a15.06,15.06,0,0,1,10.43-2.2c-3.45-.07-6.63,1.34-9.85,3.6C260.85,43.86,260.55,43.18,260.46,42.88Z" transform="translate(-108.89 -26.43)"/><path class="cls-20" d="M262.49,46.55c-.37-.58-.67-1-.91-1.35q5.75-2.27,8.09-2.06a18.3,18.3,0,0,0-5,1.52q6.06-1.44,8.14-.64Q268.54,43.74,262.49,46.55Z" transform="translate(-108.89 -26.43)"/><path class="cls-10" d="M254,46.28a14.9,14.9,0,0,0,.51,3.11c-1-1.86-1.55-3.11-1.55-3.11A3.12,3.12,0,0,0,254,46.28Z" transform="translate(-108.89 -26.43)"/><path class="cls-10" d="M255.18,51.29c1.43-1,3.3-1.07,5.59-.09C258.13,49.45,256.26,49.48,255.18,51.29Z" transform="translate(-108.89 -26.43)"/><path class="cls-4" d="M262.91,51a2.36,2.36,0,0,1-2.27-.11,2.44,2.44,0,0,0,2.25-.56C262.9,50.73,262.91,51,262.91,51Z" transform="translate(-108.89 -26.43)"/><path class="cls-4" d="M252.86,48c1.44,2.6.3,3.93-1.28,4.36A9.89,9.89,0,0,0,252.86,48Z" transform="translate(-108.89 -26.43)"/><path class="cls-21" d="M251.61,61.09c1.52-.14,2.39-.46,2.6-1A4.22,4.22,0,0,0,251.61,61.09Z" transform="translate(-108.89 -26.43)"/><path class="cls-21" d="M250.41,61.09c-.78-.25-1.19-.54-1.24-.86A2.1,2.1,0,0,1,250.41,61.09Z" transform="translate(-108.89 -26.43)"/><path class="cls-13" d="M249.19,61.74c3.49.4,6.23-.11,8.21-1.51a13.68,13.68,0,0,1-6.71,1.17,3.42,3.42,0,0,1-3.08-1.07C247.7,61.12,248.23,61.59,249.19,61.74Z" transform="translate(-108.89 -26.43)"/><path class="cls-13" d="M250.52,59.87a1.57,1.57,0,0,1,1.7-.16,2.26,2.26,0,0,0-1.59.8C250.56,60.08,250.52,59.87,250.52,59.87Z" transform="translate(-108.89 -26.43)"/><path class="cls-4" d="M255.32,51.8a1.53,1.53,0,0,1,2.07.68A4.31,4.31,0,0,1,255.32,51.8Z" transform="translate(-108.89 -26.43)"/><path class="cls-22" d="M247.65,48.89c.4,0,1,.81,1,1.81,0,2-1.8,2.82-1.75,0C246.92,49.69,247.26,48.89,247.65,48.89Z" transform="translate(-108.89 -26.43)"/><path class="cls-23" d="M247.49,49.58c.23,0,.42.48.41,1.11,0,1.3-.87,1.83-.84,0C247.07,50.08,247.26,49.57,247.49,49.58Z" transform="translate(-108.89 -26.43)"/><path class="cls-24" d="M248.35,50.94c.33,0,.58.12.58.25s-.26.24-.58.24-.59-.12-.58-.26S248,50.93,248.35,50.94Z" transform="translate(-108.89 -26.43)"/><path class="cls-4" d="M250.78,67.21a3.17,3.17,0,0,0,1.8.05c-.44-.3-.25-.58.57-.82a3.55,3.55,0,0,0-3.17-.12C250.7,66.53,251,66.89,250.78,67.21Z" transform="translate(-108.89 -26.43)"/><path class="cls-25" d="M250.48,27.72c-1.23,3.14.09,7,4.59,5.54,6.05-1.66,10-2.36,14.29,1.75q-3.12-.63-10.22,1.65c8.95-8.67-9.37,1.31-11-2.07a8,8,0,0,1-.88-5.39q.48,3.25,1.41,4.05A5.8,5.8,0,0,1,250.48,27.72Z" transform="translate(-108.89 -26.43)"/><path class="cls-4" d="M254,53.4a3.42,3.42,0,0,1,2.22,2,14.34,14.34,0,0,0,1.8,2.39,3.81,3.81,0,0,1-2.31-2.09,2.93,2.93,0,0,0-1.86-1.7Z" transform="translate(-108.89 -26.43)"/><path class="cls-4" d="M260.8,51.42c-1-.08-.92.26-1.84,1A7.16,7.16,0,0,0,260.8,51.42Z" transform="translate(-108.89 -26.43)"/><path class="cls-26" d="M255.19,51.25c-.3.19-.51.22-.6,0a4.88,4.88,0,0,1,.91-.47A3.52,3.52,0,0,1,255.19,51.25Z" transform="translate(-108.89 -26.43)"/><path class="cls-27" d="M266.74,55.4l0,0c.09.1.13.14.47,0s.52,0,.48.41c.15.21.3,0,.5-.65.28-.86.12-1.1-.52-1.82.11-.35.5-.46.64-.66s.16-.63.32-.75a3.45,3.45,0,0,1-.88,4.38c1.64-.75,2.18-2.3,1.6-4.68a.74.74,0,0,1,.53.36c-.54-2.25-1.46-1.76-2.75,1.49a7.68,7.68,0,0,1-.06,1.11A4.13,4.13,0,0,1,266.74,55.4Z" transform="translate(-108.89 -26.43)"/><path class="cls-4" d="M250.22,49.53a4.42,4.42,0,0,0-2.9-3.77q-2.35-.51-.34,3.68A12.48,12.48,0,0,0,250.22,49.53Z" transform="translate(-108.89 -26.43)"/><path class="cls-28" d="M248.36,47.9c1.39.4,1.91,1.5,1.56,3.29a2.55,2.55,0,0,0-3.37-1.08C246.91,48.76,247.52,48,248.36,47.9Z" transform="translate(-108.89 -26.43)"/><path class="cls-29" d="M246.38,50.38c.71-1.32,2.41-1.3,3.54.81C249.15,50.14,247.39,49.59,246.38,50.38Z" transform="translate(-108.89 -26.43)"/><path class="cls-30" d="M251,57.11c-1.1-.19-2.3-.51-2.61-1s0-1.3.48-2.25c-1,2.44.62,2.64,2.13,3.25ZM250.25,49c-.38-.34-.6-.5-.6-.5a10.84,10.84,0,0,1-.14,4.82A7,7,0,0,0,250.25,49Z" transform="translate(-108.89 -26.43)"/><path class="cls-10" d="M250.29,49.33c-3.2-3.68-4.51-4.22-4.18-1.12a2.92,2.92,0,0,1,.2-3.58c.52-.73,1.05.3,3.33,1.59a14.83,14.83,0,0,1,.5,1.74,12.26,12.26,0,0,0-.07-1.82l.62-.39A23.52,23.52,0,0,1,250.29,49.33Z" transform="translate(-108.89 -26.43)"/><path class="cls-31" d="M258.18,48c-.94.82-.86,1.39.26,1.74-.9-.17-1.24-.3-1.87,0q1.76-2.39.5-1.74Q257.72,47.44,258.18,48Z" transform="translate(-108.89 -26.43)"/><polygon class="cls-1" points="93.23 100.79 102.44 103.27 18.98 371.08 8.73 371.08 93.23 100.79"/><path class="cls-32" d="M230.83,91.09a58,58,0,0,0,9.42-1.74c-2.18-7.67-1.11-18.07,1.32-31.18a44.19,44.19,0,0,0-16.07-1C225.27,75.75,226.72,87.48,230.83,91.09Z" transform="translate(-108.89 -26.43)"/><path class="cls-33" d="M226.15,66a40.9,40.9,0,0,1,.07-7.6,25.81,25.81,0,0,0,9.74,2c-3,3.28-4.05,9.11-2.65,18.35L235,85.8l-5.23,1.66Q226.45,74.4,226.15,66Z" transform="translate(-108.89 -26.43)"/><path class="cls-34" d="M228.56,84.85a19.51,19.51,0,0,1-4.93-5.49c-.75-4,2-7.92,3-9.39,2.55-.78,5.86.42,8,.41.26,1.44.75,4.81,1.1,6.65C230.85,80.39,227.81,82,228.56,84.85Z" transform="translate(-108.89 -26.43)"/><path class="cls-35" d="M248.26,75.69c.15,2.17-1.07,2-1.07,2-1.68,1.81-3.43,4.2-7.21,6a17.44,17.44,0,0,1-7.82,1.72c-3-.15-5,.94-7.87-3.64a4.52,4.52,0,0,1-.78-4.32c.05,1.74,3.18,3.85,9,3.7C237,81,243.5,79.57,248.26,75.69Z" transform="translate(-108.89 -26.43)"/><path class="cls-36" d="M238.33,159.88c3,8.48,14.75,19.61,17.79,25.94s9.28,4.86,14.89,3.27c0,0-1.41-19.75-10.15-29.17a62.73,62.73,0,0,0,1.69-7.54c.09-2.74-4.53-11.32-5.15-13.29-1.71-5.44-3.11-8.6-.64-14-17.71-.63-24.65-3-24.65-3,3.84,23.31-10.91,6.61.09,31C232.78,154.46,236.86,158.06,238.33,159.88Z" transform="translate(-108.89 -26.43)"/><path class="cls-33" d="M254.52,183.11q-12.63-14.93-16.19-23.23a56.31,56.31,0,0,1,21,15.23Q267.09,192,267.09,192l-9.36,1.82A52.4,52.4,0,0,0,254.52,183.11Z" transform="translate(-108.89 -26.43)"/><path class="cls-37" d="M176.41,180.67q11.86-2,17-4.5L206,177a30.5,30.5,0,0,1,1.62,8.75s.15.66.47,2c.14.67-2.16.66-8,1.26l-1.43-.41a14.47,14.47,0,0,0-.38-1.55s-1.76-.15-7.53,2.21q-20,.81-24.1-7.62a6.27,6.27,0,0,1,3-3C170.72,178.88,171.3,179.33,176.41,180.67Z" transform="translate(-108.89 -26.43)"/><path class="cls-38" d="M196.73,178.06c1.31.95,1.91,1.79,1.81,2.53q-3.76,2.79-15.18,5.16l-2-.4q.16-.12,0,.75-7.41-1.8-10.2-4.43l2.47.08a40,40,0,0,0,6.75,3.19l-.48-1.62,2.45.91q12-3.1,13.29-5.43l1.15.56C196.7,178.3,196.7,177.87,196.73,178.06Z" transform="translate(-108.89 -26.43)"/><path class="cls-39" d="M173,180.45h0a3.41,3.41,0,0,0,.62,1.3,5,5,0,0,0,1.63,0h0a4.61,4.61,0,0,0-1.51.57,10.15,10.15,0,0,0,.26,2.41h0a10.39,10.39,0,0,0-.84-2.29,4.3,4.3,0,0,0-1.52,0h0a4,4,0,0,0,1.39-.52A3.54,3.54,0,0,0,173,180.45Z" transform="translate(-108.89 -26.43)"/><path class="cls-32" d="M190.94,175c4.79,2.38,8.39,4.82,17.79,5.36-1.15-4.71-1.88-9.59-.4-23.28a37.5,37.5,0,0,0-2.69-17.62c.76.75,1.42.48,2-.79,13.68,8.34,35.15,25.05,46,16.11,2-11.18.23-14.17-7.8-20.24-4.08-2.59-8.32-2.55-13.1-4.1-9.05-2.93-15.55-6-29.71-8.25-6.4-1-9.16-2.73-12,2-1.63,2.69-1.45,2-.77,4.92C193.35,142.38,193.91,162.33,190.94,175Z" transform="translate(-108.89 -26.43)"/><path class="cls-32" d="M229.24,130c.62,2.31,4.32,17.26,30.48,11.73A152.5,152.5,0,0,1,258.47,125c.47-.57,1.45-.85,1.66-1.46.87-2.5-1.64-1.13-1.11-2.25,8.91-18.83,12.73-30.55,11.94-37.66q-.45-8.36-5.77-8.93c-26.32-1.69-27.3,8.67-30.09,23.18C234.58,102.5,233.59,126.27,229.24,130Z" transform="translate(-108.89 -26.43)"/><path class="cls-40" d="M250,76q12.74-1.44,18.67-2.14A20.47,20.47,0,0,1,268,70c-.2-2.39.58-2.91-1.61-2.38a140.44,140.44,0,0,0-13.81,4.23Z" transform="translate(-108.89 -26.43)"/><path class="cls-41" d="M263.84,73.35l4.08.14a13.11,13.11,0,0,1-.7-5.15,35.19,35.19,0,0,0-8,2A23.65,23.65,0,0,1,263.84,73.35Z" transform="translate(-108.89 -26.43)"/><path class="cls-42" d="M240.26,81.47c.64-.34,3.54-.55,4.19-.84,6.21-2.81,11.7-4.46,18.15-3.88,4.38.7,6.39,1.41,7.14.43,0-2.62-.65-2.41,0-4C265.48,68.93,244.37,74.9,240.26,81.47Z" transform="translate(-108.89 -26.43)"/><path class="cls-42" d="M240.92,80.63c-5.66,7.38-7.14,18.86-7.61,35.94q4.8-29.8,13.31-36.87Q240.34,81,240.92,80.63Z" transform="translate(-108.89 -26.43)"/><path class="cls-33" d="M234.69,138.84c4.36,5.33,4,5.19-2.59,1.23-5.35-3.5-14.64-7.6-30.47-10.83q4.44,5.07-.69,2.54c-5.52-3.69-4.64-.45-3.33,5.7,1.73,8.12,0,29.43-.77,37a59.11,59.11,0,0,0,9.79,2.89c0-5.62-.43-13.69,1.7-20.32q1-7.64-2.69-17.62c1,.62,1.67.36,2-.79,17.43,12.68,32.32,21.27,42,19.35,3.82-1,6.13-4.78,5.18-12.13-.21-2.86-.58-5.67-3-8.2C244.05,137.61,236,140.07,234.69,138.84Z" transform="translate(-108.89 -26.43)"/><path class="cls-33" d="M259.72,141.69s-.49-6.11-1.25-16.73c0,0,1.8-1.13,1.81-2,0-.27-14.89.5-.92-2.63t7.75-17.93q6.63-16,2.13-21.93a19.09,19.09,0,0,1-.5,7.37c0-5.54-.92-8.32-3.28-8-1.36.17-4.78.9-6.45,3.34,1.32,7-4.21,11.24-22.34,17,8.63,2.66,11.12,7.3,11.86,11.37-.95,4.11-.81,6.65-3.95,10.19l-8.32,2.62,5.3,3.39s-.31,3-.94,9.07a15.75,15.75,0,0,1-7.1-.94C240.53,142.44,249.3,145.08,259.72,141.69Z" transform="translate(-108.89 -26.43)"/><path class="cls-43" d="M233.11,123.32c2.13.63,6.25,2.35,10.67,2.13,0,0,.27-1.25.8-3.74a92.5,92.5,0,0,1-10.45-1.91C233.2,123,233.11,123.32,233.11,123.32Z" transform="translate(-108.89 -26.43)"/><path class="cls-44" d="M262,76.12c3.83,1.14,6.29,1.36,7.37.64a7.6,7.6,0,0,1-.64-3.87q-3.12-1.23-8.67.09A3.27,3.27,0,0,0,262,76.12Z" transform="translate(-108.89 -26.43)"/><rect class="cls-45" x="101.96" y="21.75" width="18.1" height="5.46"/><rect class="cls-46" x="109.33" y="22.21" width="10.73" height="0.77"/><rect class="cls-45" x="120.06" y="22.41" width="16.74" height="4.13"/><rect class="cls-46" x="120.5" y="22.58" width="15.5" height="0.77"/><rect class="cls-45" x="82.54" y="21.15" width="26.59" height="6.97"/><rect class="cls-46" x="82.75" y="21.75" width="26.59" height="0.77"/><rect class="cls-47" x="82.54" y="23.96" width="26.59" height="2.89"/><rect class="cls-47" x="109.12" y="23.83" width="10.94" height="2.68"/><rect class="cls-47" x="120.06" y="24.48" width="15.64" height="1.61"/><rect class="cls-48" x="108.24" y="20.87" width="1.33" height="7.54" rx="0.66"/><rect class="cls-48" x="119.32" y="21.3" width="1.18" height="6.35" rx="0.59"/><rect class="cls-48" x="136.21" y="22.11" width="1.18" height="4.74" rx="0.59"/><path class="cls-49" d="M218,47.88v1.33c0,.21-.66.21-.66,0V47.88C217.33,47.67,218,47.67,218,47.88Z" transform="translate(-108.89 -26.43)"/><path class="cls-50" d="M218.23,50.62v3.22a.38.38,0,1,1-.76,0V50.62A.38.38,0,0,1,218.23,50.62Z" transform="translate(-108.89 -26.43)"/><path class="cls-49" d="M246,48.83v.83c0,.14-.66.14-.66,0v-.83C245.37,48.7,246,48.7,246,48.83Z" transform="translate(-108.89 -26.43)"/><path class="cls-7" d="M197.92,51.34a1.63,1.63,0,0,1,.2-1.28,25.52,25.52,0,0,1,.5-2.61c.49-1,1.25-.83,2.06-.31a7.14,7.14,0,0,1,.94-.57c.95-.18.95.44,1.43.27s.57-.6,1-.66c1.26-.17,1.34.4,1.85.25,1.65-.47,2.5-.51,3.27,1.15-2,.92-.76,4.91,1.63,6.49A12.24,12.24,0,0,0,214,53.9c1.69-.47,2.13.3,1.9,2-.33.41-1.52.86-1.76,1.58a12.27,12.27,0,0,1-1.06,2,3.61,3.61,0,0,0-.52,1.19c-4.77,1.47-7.65,2.26-7.65,2.26C202,59.45,198.89,55.85,197.92,51.34Z" transform="translate(-108.89 -26.43)"/><path class="cls-40" d="M239.52,59.11c-3.14,1.09-6.79.81-11.73-.78,0-1.86.13-2.76.13-2.76,5.64-.1,9.31.23,12,1A8.79,8.79,0,0,0,239.52,59.11Z" transform="translate(-108.89 -26.43)"/><path class="cls-4" d="M229.39,53a4.82,4.82,0,0,0,.39,1.71c.24.28.12,1,0,2,4.21.77,6.65.89,8.23.57a4.55,4.55,0,0,1,1-1.43,3,3,0,0,0-.69-3.05c-5.76.07-7.74.17-7.74.17Z" transform="translate(-108.89 -26.43)"/><path class="cls-7" d="M240.34,53.47q-1,4.38-5.71,2.05a3,3,0,0,1,2.75-3.59,2.53,2.53,0,0,0,1.17-1.76c.11-.5-.79-3.93,2.46-2.92,0,.79.64,2.84.31,3.42A7.57,7.57,0,0,0,240.34,53.47Z" transform="translate(-108.89 -26.43)"/><path class="cls-7" d="M235.24,47.2c1.95-.29,2.62.31,2.53,1.64-1.14.29-1,1.59-1.64,2.89a1.06,1.06,0,0,1-1.88.29c-.28.8-.53,1.24-.92,1.41a1.84,1.84,0,0,1-1.56-.14c-.09,0-.12-.14-.12-.26s0-.53-.09-.5c-.64.17-1.9.08-1.87-.5a28.88,28.88,0,0,1,.65-3.1,4.92,4.92,0,0,0-2.15.24c-1.26.33-1.87-.14-1.71-1,2.48-1.17,3.84-1.61,4.94-.71.84-.46,1.48-.52,1.93-.17C234.31,46.9,234.94,46.88,235.24,47.2Z" transform="translate(-108.89 -26.43)"/><path class="cls-4" d="M229.75,51.31c.31-1.15.51-1.94.6-2.4v0a7.25,7.25,0,0,0-2.27.27c-1,0-1.44-.31-1.36-1,.92,0,1.26-.06,1-.31a10.26,10.26,0,0,1,3.2-.22l-.45.92a3.08,3.08,0,0,0,1.81-.17,1.63,1.63,0,0,0,2.21,0,1.89,1.89,0,0,0,2.41.22c0,.11-.5,2.71-1.27,3.4-.18.16.24-1.06-.39-1.17s-.8,1.21-.89.87a1.1,1.1,0,0,1,0-.27c-.48,1-.47,1.77-1.14,1.93-.39.09.62-1.67-.34-1.81-.76-.12-1.1,1.71-1.17,1.54s0-.6.15-1.09a2.45,2.45,0,0,1-.46.19c-.31.15.23-1.25-.51-1.52s-1,1.57-1.11,1.17A1.3,1.3,0,0,1,229.75,51.31Z" transform="translate(-108.89 -26.43)"/><path class="cls-4" d="M234.56,55.73c1.23.29,2.2.55,2.91.79a3.52,3.52,0,0,0,2.91-3.27c.21-.81.44-1.73.67-2.73a3,3,0,0,1-1.72,0c.07.46-.48,1.21-1.66,2.27Q235.81,53,234.56,55.73Z" transform="translate(-108.89 -26.43)"/><path class="cls-4" d="M239.65,47.46a2.74,2.74,0,0,0,.09,1.38,2.89,2.89,0,0,0,1.25,0,6.15,6.15,0,0,0-.08-1.6C240.32,47.16,239.79,47.23,239.65,47.46Z" transform="translate(-108.89 -26.43)"/><path class="cls-4" d="M212.82,55.93a3.33,3.33,0,0,1-2.44-1.46q-3.63-5.22-1.16-6.89a2.59,2.59,0,0,0-.94-1.22c-1.05-.06-1.93,1.19-2.66,3.74-.43-.34-1.27-.17-2.5.53q-.3-.52-2.4.39a2,2,0,0,0-2.27.32q.93,5,3.83,7.36c4.05-1.5,6.61-1.17,7.86.08,1.74.45,2.92-.1,3.38-.74a2.08,2.08,0,0,0-.7-2.11Zm-13.3-6.26c.22-2.42.3-2.92,1.16-2.53-.77,1.69-1.16,2.53-1.16,2.53Zm5-.59c.23-2.42.31-2.91,1.17-2.52l-1.17,2.52Zm-2.64.42c.23-2.43.31-2.92,1.17-2.53l-1.17,2.53Zm12.46,7.72a4.85,4.85,0,0,0,1.62-1.31c-.11-1-.14-1.62-.59-1.84a8.26,8.26,0,0,0-1.43,1A2.91,2.91,0,0,1,214.3,57.22Z" transform="translate(-108.89 -26.43)"/><rect class="cls-51" x="48.3" y="20.2" width="37" height="8.99"/><rect class="cls-52" x="48.3" y="20.95" width="37" height="1.44"/><rect class="cls-53" x="48.3" y="23.83" width="37" height="3.98"/><rect class="cls-48" x="84.06" y="19.84" width="1.85" height="9.73" rx="0.92"/><path class="cls-54" d="M157.13,45.89l2.9-.1a.8.8,0,0,1,.82.84v8.78a.88.88,0,0,1-.79.94h-2.93a.86.86,0,0,1-.87-.84V46.74A.88.88,0,0,1,157.13,45.89Z" transform="translate(-108.89 -26.43)"/><path class="cls-49" d="M160.53,47.23v1.42a11.37,11.37,0,0,1-3.86,0V47.23A11.37,11.37,0,0,1,160.53,47.23Z" transform="translate(-108.89 -26.43)"/><path class="cls-49" d="M194,47.29v1.44c0,.22-.92.22-.92,0V47.29C193.1,47.07,194,47.07,194,47.29Z" transform="translate(-108.89 -26.43)"/><path class="cls-24" d="M156.78,45.54h0a3.37,3.37,0,0,0,.41,1.58,7.43,7.43,0,0,0,2.12.31h0a7.43,7.43,0,0,0-2.12.31,9.67,9.67,0,0,0-.4,2.72h0a10,10,0,0,0-.39-2.72,6.33,6.33,0,0,0-2-.35h0a6.36,6.36,0,0,0,2-.27A3.48,3.48,0,0,0,156.78,45.54Z" transform="translate(-108.89 -26.43)"/><path class="cls-50" d="M229.25,50.3v2.82c0,.44-.77.44-.77,0V50.3C228.48,49.86,229.25,49.86,229.25,50.3Z" transform="translate(-108.89 -26.43)"/><path class="cls-50" d="M160.46,50.53V54c0,.58-3.86.53-3.86,0V50.53C156.6,50,160.46,50,160.46,50.53Z" transform="translate(-108.89 -26.43)"/><path class="cls-50" d="M246.09,50.53v2.15c0,.33-.76.33-.76,0V50.53C245.33,50.2,246.09,50.2,246.09,50.53Z" transform="translate(-108.89 -26.43)"/><path class="cls-50" d="M194.62,50.53v4.15a.46.46,0,1,1-.92,0V50.53A.46.46,0,1,1,194.62,50.53Z" transform="translate(-108.89 -26.43)"/><path class="cls-40" d="M214.68,59.08c.44,2.58.9,4.56.9,4.56L203.79,67s-.7-1.24-2.09-3.74C205.72,60.61,209.88,58.75,214.68,59.08Z" transform="translate(-108.89 -26.43)"/><path class="cls-32" d="M220.26,86.76c.33,0,.22-1,1.41-.76.54.09.55,1.1.9,1.1,8.64.17,11.46-2.94,16.46-3.53,7-9,17.79-7.79,19.84-1A9.28,9.28,0,0,1,251,94c-1.32.2-3.89.82-5,1-17.79,2.58-24.6,6.66-26.71,6.3s-5.45,1.76-7.63-5.46c-2.24-1.77-6.47-24-10.32-30.14,6.7-4,10.38-5.19,15-4.28C216.86,73.78,217,79.4,220.26,86.76Z" transform="translate(-108.89 -26.43)"/><path class="cls-33" d="M203.4,66.3a36.32,36.32,0,0,1,6.6-2.95c3.16,12.33,2.47,21.33,5.75,29.24q3.33-3.39,2.88-3.23c-1,2.64-1.54,4-1.54,4q1.23,2,3.68-3.82l.15,2.78c5.4-1,8.7-1.37,9.91-1.19q13.51-1.64,12.44-4.28,12.87-2.39,11.35-6.64,6.53,5.6.5,10.83-4.44,3.41-21.3,5.28L221,99.74q-6.15,1.71-7.46-3C212.08,93.71,203.88,66.72,203.4,66.3Z" transform="translate(-108.89 -26.43)"/><path class="cls-55" d="M205,67a1,1,0,0,1,1.14.74,1,1,0,0,1-.41,1.3,1,1,0,0,1-1.14-.74A1,1,0,0,1,205,67Z" transform="translate(-108.89 -26.43)"/><path class="cls-55" d="M206.73,71.58a1,1,0,0,1,1.14.74,1,1,0,0,1-.41,1.31,1.13,1.13,0,0,1-.73-2Z" transform="translate(-108.89 -26.43)"/><path class="cls-37" d="M246.07,234.25Q257.91,232,263,229.49l12.63.65a30.49,30.49,0,0,1,1.78,8.73s.16.65.51,2c.15.67-2.15.69-7.92,1.38l-1.44-.39a13,13,0,0,0-.41-1.54s-1.76-.12-7.49,2.32q-20,1.11-24.24-7.25a6.22,6.22,0,0,1,3-3C240.35,232.55,240.94,233,246.07,234.25Z" transform="translate(-108.89 -26.43)"/><path class="cls-56" d="M266.34,231.33c1.33.93,2,1.77,1.86,2.51q-3.72,2.83-15.09,5.38l-2-.36c.1-.08.1.17,0,.75q-7.44-1.7-10.28-4.27l2.46,0a42.15,42.15,0,0,0,6.81,3.09l-.51-1.62,2.47.88q11.94-3.3,13.19-5.64l1.16.55C266.32,231.57,266.31,231.14,266.34,231.33Z" transform="translate(-108.89 -26.43)"/><path class="cls-36" d="M262.53,189.1l8.41-.78c2.48.32.48,3.9-.69,4.31q8.94,28.89,8.54,41.2A47.73,47.73,0,0,1,267.27,232Q263,199.21,262.53,189.1Z" transform="translate(-108.89 -26.43)"/><path class="cls-33" d="M257.73,193.86c-4.15-11.87,5.95-9.24,5.95-9.24-.42,13.63,7.33,4.47,3.72,30.71-.75,5.48,2.58,13.4,4.5,17.74a37.59,37.59,0,0,1-11-3.48C263.2,219,260.32,207.24,257.73,193.86Z" transform="translate(-108.89 -26.43)"/><rect class="cls-57" x="66.23" y="162.9" width="67.03" height="10.17" rx="0.93"/><path class="cls-58" d="M234.31,242.65h30.14a1.16,1.16,0,0,1,1.16,1.16v5.08H233.15v-5.08A1.16,1.16,0,0,1,234.31,242.65Z" transform="translate(-108.89 -26.43)"/><polygon class="cls-40" points="100.99 84.32 106.34 92.92 98.19 98.99 11.43 376.89 1.19 376.89 92.64 89.95 100.99 84.32"/><path class="cls-58" d="M249,291.91h30.14a1.17,1.17,0,0,1,1.16,1.16v5.09H247.86v-5.09A1.16,1.16,0,0,1,249,291.91Z" transform="translate(-108.89 -26.43)"/><path class="cls-58" d="M264.36,341.43H294.5a1.17,1.17,0,0,1,1.16,1.17v5.08H263.2V342.6A1.17,1.17,0,0,1,264.36,341.43Z" transform="translate(-108.89 -26.43)"/><path class="cls-59" d="M195.63,76.19q3.48-.06,2.12,3.57L193.43,81c-.65,0-1.16.52-1.51,1.55Q191.26,79.5,195.63,76.19Z" transform="translate(-108.89 -26.43)"/><path class="cls-60" d="M199.56,75c-2.11.57-3.24.67-3.72,1h0c-1.21.41-3.7,3.55-4,5.21.27,0,.33-.37.94-1.17a16.43,16.43,0,0,1,1.66-2,.89.89,0,0,1,1.46.24h0c.12.38.25.82.4,1.33l92.43,317.45H299L205.48,77C204.34,73.13,204.53,73.63,199.56,75Z" transform="translate(-108.89 -26.43)"/><polygon class="cls-2" points="190.08 370.62 179.84 370.64 181.51 376.89 191.77 376.89 190.08 370.62"/><path class="cls-61" d="M249.38,249.35a3.58,3.58,0,1,0-3.57-3.58A3.59,3.59,0,0,0,249.38,249.35Z" transform="translate(-108.89 -26.43)"/><path class="cls-62" d="M249.38,247.18a1.41,1.41,0,1,0-1.41-1.41A1.42,1.42,0,0,0,249.38,247.18Z" transform="translate(-108.89 -26.43)"/><path class="cls-61" d="M264.09,298.61a3.58,3.58,0,1,0-3.58-3.58A3.58,3.58,0,0,0,264.09,298.61Z" transform="translate(-108.89 -26.43)"/><path class="cls-62" d="M264.09,296.45a1.42,1.42,0,1,0-1.42-1.42A1.42,1.42,0,0,0,264.09,296.45Z" transform="translate(-108.89 -26.43)"/><path class="cls-61" d="M279.43,348.13a3.58,3.58,0,1,0-3.58-3.57A3.58,3.58,0,0,0,279.43,348.13Z" transform="translate(-108.89 -26.43)"/><path class="cls-62" d="M279.43,346a1.42,1.42,0,1,0-1.41-1.41A1.41,1.41,0,0,0,279.43,346Z" transform="translate(-108.89 -26.43)"/><path class="cls-61" d="M234.43,197.65a3.58,3.58,0,1,0-3.57-3.58A3.59,3.59,0,0,0,234.43,197.65Z" transform="translate(-108.89 -26.43)"/><path class="cls-62" d="M234.43,195.49a1.42,1.42,0,1,0-1.41-1.42A1.43,1.43,0,0,0,234.43,195.49Z" transform="translate(-108.89 -26.43)"/><path class="cls-61" d="M181.48,197.42a3.58,3.58,0,1,0-3.58-3.58A3.59,3.59,0,0,0,181.48,197.42Z" transform="translate(-108.89 -26.43)"/><path class="cls-62" d="M181.48,195.25a1.41,1.41,0,1,0-1.41-1.41A1.41,1.41,0,0,0,181.48,195.25Z" transform="translate(-108.89 -26.43)"/><polygon class="cls-2" points="2.42 371.46 13.89 371.49 11.48 377.89 0 377.89 2.42 371.46"/><path class="cls-61" d="M135.3,347.63a3.58,3.58,0,1,0-3.57-3.58A3.59,3.59,0,0,0,135.3,347.63Z" transform="translate(-108.89 -26.43)"/><path class="cls-62" d="M135.3,345.46a1.41,1.41,0,1,0-1.41-1.41A1.42,1.42,0,0,0,135.3,345.46Z" transform="translate(-108.89 -26.43)"/><path class="cls-61" d="M212.42,119.83a3.58,3.58,0,1,0-3.57-3.57A3.58,3.58,0,0,0,212.42,119.83Z" transform="translate(-108.89 -26.43)"/><path class="cls-62" d="M212.42,117.67a1.42,1.42,0,1,0-1.41-1.41A1.42,1.42,0,0,0,212.42,117.67Z" transform="translate(-108.89 -26.43)"/></svg>