<svg id="Layer_1" data-name="Layer 1" xmlns="http://www.w3.org/2000/svg" viewBox="0 0 209.51 292.2"><defs><style>.cls-1{fill:#7d7c9b;}.cls-2{fill:#575772;}.cls-3{fill:#a3c4c6;}.cls-4{fill:#d3e0e2;}.cls-5{fill:#edf9f9;}.cls-6{fill:#96a6a8;}.cls-7{fill:#ffd400;}.cls-8{fill:#ffa300;}.cls-9{fill:#e58010;}.cls-10{fill:#fff0a4;}.cls-11{fill:#ffc200;}.cls-12{fill:#fff2bb;}.cls-13{opacity:0;}.cls-14{fill:none;stroke:#e58010;stroke-miterlimit:10;stroke-width:7px;}</style></defs><title>2</title><path class="cls-1" d="M515.11,351.45V305.18a14.74,14.74,0,0,0-14.75-14.74h-103a14.74,14.74,0,0,0-14.74,14.74v46.27H382a14.32,14.32,0,0,0-14.32,14.32v5.17H530.05v-5.17a14.32,14.32,0,0,0-14.32-14.32Z" transform="translate(-344.11 -87.73)"/><path class="cls-2" d="M500.36,290.44H448.87v83.91l81.18-3.41v-5.17a14.32,14.32,0,0,0-14.32-14.32h-.62V305.18A14.74,14.74,0,0,0,500.36,290.44Z" transform="translate(-344.11 -87.73)"/><rect class="cls-2" x="38.52" y="254.74" width="132.48" height="8.99"/><rect class="cls-2" x="23.57" y="283.21" width="162.37" height="8.99"/><rect class="cls-3" x="69.71" y="220.17" width="70.09" height="35.27" rx="4.52"/><rect class="cls-4" x="69.71" y="216.67" width="70.09" height="35.27" rx="4.52"/><path class="cls-5" d="M482.7,305.85a4.48,4.48,0,0,0-3.3-1.46h-2.68l-35.27,35.27h7.43Z" transform="translate(-344.11 -87.73)"/><path class="cls-5" d="M416.29,339.15a4.49,4.49,0,0,0,2.06.51h15.44l35.27-35.27h-18Z" transform="translate(-344.11 -87.73)"/><path class="cls-6" d="M427.34,315H470.4a1.77,1.77,0,0,0,0-3.54H427.34a1.77,1.77,0,0,0,0,3.54Z" transform="translate(-344.11 -87.73)"/><path class="cls-6" d="M434.92,322.22h27.9a1.77,1.77,0,0,0,0-3.54h-27.9a1.77,1.77,0,0,0,0,3.54Z" transform="translate(-344.11 -87.73)"/><path class="cls-6" d="M427.34,332.62H470.4a1.77,1.77,0,0,0,0-3.54H427.34a1.77,1.77,0,0,0,0,3.54Z" transform="translate(-344.11 -87.73)"/><path class="cls-7" d="M404,212.24a51.69,51.69,0,0,1-44.59-51.13v-17.5H404v-15.3h-59.9v32.8A67,67,0,0,0,404,227.67Z" transform="translate(-344.11 -87.73)"/><path class="cls-8" d="M344.11,143.78v17.33A67,67,0,0,0,404,227.67V212.24a51.69,51.69,0,0,1-44.59-51.13V143.78Z" transform="translate(-344.11 -87.73)"/><path class="cls-9" d="M493.73,212.24a51.69,51.69,0,0,0,44.59-51.13v-17.5H493.73v-15.3h59.89v32.8a67,67,0,0,1-59.89,66.56Z" transform="translate(-344.11 -87.73)"/><path class="cls-8" d="M553.62,143.78v17.33a67,67,0,0,1-59.89,66.56V212.24a51.69,51.69,0,0,0,44.59-51.13V143.78Z" transform="translate(-344.11 -87.73)"/><path class="cls-7" d="M465.43,270.37,462.38,250H463a4.86,4.86,0,0,0,0-9.72H434.47a4.86,4.86,0,0,0,0,9.72h.65l-3,20.41A19.8,19.8,0,0,0,414.47,290v.2H483V290A19.8,19.8,0,0,0,465.43,270.37Z" transform="translate(-344.11 -87.73)"/><path class="cls-7" d="M523.54,105.91l-.75,7.29-7.7,74.34c-.06.55-.13,1.09-.21,1.63s-.12.85-.19,1.26c0,.25-.07.49-.11.73s-.11.68-.18,1-.09.48-.14.71c-.09.51-.2,1-.32,1.53-.15.75-.34,1.5-.52,2.24s-.45,1.68-.71,2.51c-.18.63-.38,1.25-.58,1.86s-.35,1-.54,1.53-.29.8-.43,1.2c-.75,2-1.6,3.86-2.52,5.73-.3.63-.63,1.23-.95,1.84s-.67,1.22-1,1.81l-.17.3c-.7,1.2-1.44,2.37-2.2,3.51a2.61,2.61,0,0,1-.19.27c-.37.55-.75,1.09-1.13,1.63s-.88,1.19-1.33,1.77-.91,1.16-1.39,1.72-.95,1.12-1.43,1.67-1,1.09-1.48,1.62-1,1.06-1.55,1.57c-.08.07-.15.16-.22.23l-1.38,1.3c-.52.49-1.07,1-1.64,1.46s-.93.79-1.4,1.18l-.28.23c-.58.45-1.15.91-1.74,1.36a3,3,0,0,0-.3.23l-1.49,1.06c-.59.42-1.2.83-1.82,1.24-1.23.81-2.48,1.57-3.77,2.3l-1.7.92-.25.12c-.65.34-1.32.68-2,1-1.33.66-2.69,1.25-4.08,1.79-.87.34-1.76.66-2.66,1-.43.16-.87.31-1.31.45l-.4.14-.74.21c-.77.23-1.53.46-2.31.67l-.28.08-1,.23c-.65.16-1.29.32-1.94.46-1.05.22-2.11.42-3.17.6l-2.1.31c-.62.08-1.24.15-1.88.21-.82.08-1.64.16-2.46.2-1.38.1-2.76.14-4.16.14h-1.19a66.17,66.17,0,0,1-65.75-58.74l-7.69-74.34-.75-7.29.75-.14c2.06-.42,146-.42,148.07,0Z" transform="translate(-344.11 -87.73)"/><path class="cls-8" d="M523.54,105.91l-.75,7.29-7.7,74.34c-.06.55-.13,1.09-.21,1.63s-.12.85-.19,1.26c0,.25-.07.49-.11.73s-.11.68-.18,1-.09.48-.14.71c-.09.51-.2,1-.32,1.53-.15.75-.34,1.5-.52,2.23s-.45,1.69-.71,2.52c-.18.63-.38,1.25-.58,1.86s-.35,1-.54,1.53-.29.8-.43,1.2c-.75,2-1.6,3.86-2.52,5.73-.3.63-.63,1.23-.95,1.84s-.67,1.22-1,1.81c-.05.1-.11.2-.17.3-.7,1.2-1.44,2.37-2.2,3.51a2.61,2.61,0,0,1-.19.27c-.37.55-.75,1.09-1.13,1.63s-.88,1.19-1.33,1.77-.91,1.16-1.39,1.72-.95,1.12-1.43,1.67-1,1.09-1.48,1.62-1,1.06-1.55,1.57c-.08.07-.15.16-.22.23l-1.38,1.3c-.53.49-1.09,1-1.64,1.46s-.93.79-1.4,1.18l-.28.23c-.58.45-1.15.91-1.74,1.36a3,3,0,0,0-.3.23l-1.49,1.06c-.59.42-1.2.83-1.82,1.24-1.23.81-2.48,1.57-3.77,2.3l-1.7.92-.25.12c-.65.34-1.32.68-2,1-1.33.64-2.69,1.24-4.08,1.79s-2.89,1.07-4.37,1.56c-1.09.33-2.21.66-3.33,1q-3,.78-6.11,1.29l-2.1.31c-.62.08-1.24.15-1.88.21-.82.08-1.64.16-2.46.2-1.38.1-2.76.14-4.16.14h-.6V105.46c24.8,0,47.84.31,74,.31Z" transform="translate(-344.11 -87.73)"/><path class="cls-8" d="M465.43,270.37,462.38,250H463a4.86,4.86,0,0,0,0-9.72H448.75v50H483V290A19.8,19.8,0,0,0,465.43,270.37Z" transform="translate(-344.11 -87.73)"/><polygon class="cls-9" points="119.79 172.44 118.32 162.59 90.96 162.59 89.49 172.44 119.79 172.44"/><path class="cls-10" d="M399.13,201.74c-6.8-15.38-7.07-33.67-9.05-50.19-.27-2.23-3.81-2.26-3.54,0,2.07,17.21,2.46,36,9.53,52,.92,2.08,4,.28,3.06-1.78Z" transform="translate(-344.11 -87.73)"/><path class="cls-10" d="M413.83,222.17a67.68,67.68,0,0,1-8.18-9.23c-1.33-1.82-4.4-.06-3,1.78a71.84,71.84,0,0,0,8.73,9.95c1.65,1.57,4.16-.93,2.5-2.5Z" transform="translate(-344.11 -87.73)"/><path class="cls-11" d="M501.69,200a66.34,66.34,0,0,1-32.5,32.15c-2.07,1-.27,4,1.78,3.05a69.36,69.36,0,0,0,33.78-33.41c1-2.05-2.08-3.85-3.06-1.79Z" transform="translate(-344.11 -87.73)"/><path class="cls-11" d="M507.07,180.69a67,67,0,0,1-1.26,7.18c-.5,2.22,2.91,3.16,3.42.94a76.9,76.9,0,0,0,1.38-8.12c.26-2.26-3.28-2.24-3.54,0Z" transform="translate(-344.11 -87.73)"/><path class="cls-10" d="M428.8,274.27a22.3,22.3,0,0,0-6.23,4.59c-1.57,1.65.93,4.16,2.51,2.51a19.3,19.3,0,0,1,5.51-4.05c2-1,.25-4.06-1.79-3.05Z" transform="translate(-344.11 -87.73)"/><path class="cls-9" d="M523.54,105.91l-.75,7.29H374.72l-.75-7.29.75-.14c2.06-.42,146-.42,148.07,0Z" transform="translate(-344.11 -87.73)"/><path class="cls-11" d="M524.55,106.83H373.1a9.55,9.55,0,0,1-9.56-9.55h0a9.55,9.55,0,0,1,9.56-9.55H524.55a9.55,9.55,0,0,1,9.55,9.55h0A9.55,9.55,0,0,1,524.55,106.83Z" transform="translate(-344.11 -87.73)"/><path class="cls-12" d="M380.85,99.44h-4.93a3.58,3.58,0,0,1-3.58-3.58h0a3.57,3.57,0,0,1,3.58-3.57h4.93a3.57,3.57,0,0,1,3.57,3.57h0A3.57,3.57,0,0,1,380.85,99.44Z" transform="translate(-344.11 -87.73)"/><path class="cls-12" d="M416.94,99.44H392.19a3.57,3.57,0,0,1-3.57-3.58h0a3.57,3.57,0,0,1,3.57-3.57h24.75a3.57,3.57,0,0,1,3.57,3.57h0A3.57,3.57,0,0,1,416.94,99.44Z" transform="translate(-344.11 -87.73)"/><g class="cls-13"><path class="cls-8" d="M448.46,196a33.59,33.59,0,1,1,0-67.17h.37l.47.06v67l-.47.06A2.3,2.3,0,0,1,448.46,196Z" transform="translate(-344.11 -87.73)"/><path class="cls-8" d="M448.46,129.32h.3V195.4h-.3a33,33,0,1,1,0-66.09m0-1.08a34.13,34.13,0,1,0,0,68.25,3.24,3.24,0,0,0,.44,0l1-.12v-68l-1-.11a3.24,3.24,0,0,0-.44,0Z" transform="translate(-344.11 -87.73)"/></g><g class="cls-13"><path class="cls-7" d="M448.22,128.79h.55a33.58,33.58,0,0,1,0,67.15h-.55Z" transform="translate(-344.11 -87.73)"/><path class="cls-7" d="M448.76,129.33a33,33,0,0,1,0,66.07V129.33m-1.08-1.09v68.25h1.09a34.12,34.12,0,0,0,0-68.23Z" transform="translate(-344.11 -87.73)"/></g><line class="cls-14" x1="104.53" y1="50.75" x2="104.53" y2="86.91"/><line class="cls-14" x1="115.18" y1="51.47" x2="93.87" y2="51.47"/><line class="cls-14" x1="115.18" y1="86.18" x2="93.87" y2="86.18"/><g id="_52CFjl" data-name="52CFjl"><path class="cls-9" d="M485,187.14c-.61-.1-1.21-.25-1.83-.3a21,21,0,0,0-11.27,1.68,5.91,5.91,0,0,0-3.29,3.51.86.86,0,0,0,.36,1.18,6.34,6.34,0,0,0,3.9,1,15.67,15.67,0,0,0,8.2-3.29c1.44-1,2.73-2.24,4.08-3.38Z" transform="translate(-344.11 -87.73)"/><path class="cls-9" d="M469.31,197.07c-.93-.61-1.83-1.29-2.8-1.82a17.82,17.82,0,0,0-8-2.43,5.29,5.29,0,0,0-4.18,1.42.8.8,0,0,0-.13,1.17,6.48,6.48,0,0,0,4.27,2.82,18.86,18.86,0,0,0,10.77-.88Z" transform="translate(-344.11 -87.73)"/><path class="cls-9" d="M489.93,173.9c-1,.27-1.93.43-2.78.73a16.61,16.61,0,0,0-7.84,5,4.81,4.81,0,0,0-1.14,3.34.72.72,0,0,0,.69.77,5.84,5.84,0,0,0,4.42-1,17.87,17.87,0,0,0,6.44-8A5.26,5.26,0,0,0,489.93,173.9Z" transform="translate(-344.11 -87.73)"/><path class="cls-9" d="M471.45,182.33a1.62,1.62,0,0,0-.42-.1c-3.52.35-6.46,1.76-8.35,4.87a4.25,4.25,0,0,0-.45,3.28,1.11,1.11,0,0,0,.54.66,3.68,3.68,0,0,0,4-.65,12.48,12.48,0,0,0,3.8-5.49C470.93,184.08,471.16,183.23,471.45,182.33Z" transform="translate(-344.11 -87.73)"/><path class="cls-9" d="M479.28,153.68c-.36,1.14-.75,2.13-1,3.15a15.58,15.58,0,0,0-.23,6.86,5.11,5.11,0,0,0,1.88,3.17c.6.45,1,.4,1.45-.15a5.62,5.62,0,0,0,1.28-3.64,16.11,16.11,0,0,0-3-9A3.61,3.61,0,0,0,479.28,153.68Z" transform="translate(-344.11 -87.73)"/><path class="cls-9" d="M477.61,169.51a14.26,14.26,0,0,0-3.08,4.37,12.89,12.89,0,0,0-1.53,4.83,4.62,4.62,0,0,0,.91,3.48.67.67,0,0,0,.94.22,4.82,4.82,0,0,0,2.15-2,11.72,11.72,0,0,0,1.41-6.58c-.06-1.45-.29-2.89-.45-4.33Z" transform="translate(-344.11 -87.73)"/><path class="cls-9" d="M487.68,163.14c-.76.54-1.46,1-2.09,1.51a16.2,16.2,0,0,0-3.95,4.73,5.32,5.32,0,0,0-.72,3.93c.28,1.1.54,1.24,1.59.89a5.9,5.9,0,0,0,3.3-3,15.71,15.71,0,0,0,1.95-7.6A3.33,3.33,0,0,0,487.68,163.14Z" transform="translate(-344.11 -87.73)"/></g><g id="_52CFjl-2" data-name="52CFjl"><path class="cls-9" d="M413,187.14c.6-.1,1.2-.25,1.82-.3a21,21,0,0,1,11.27,1.68,5.91,5.91,0,0,1,3.29,3.51.86.86,0,0,1-.36,1.18,6.34,6.34,0,0,1-3.9,1,15.67,15.67,0,0,1-8.2-3.29c-1.44-1-2.73-2.24-4.08-3.38Z" transform="translate(-344.11 -87.73)"/><path class="cls-9" d="M428.67,197.07c.93-.61,1.83-1.29,2.8-1.82a17.82,17.82,0,0,1,8-2.43,5.29,5.29,0,0,1,4.18,1.42.8.8,0,0,1,.13,1.17,6.48,6.48,0,0,1-4.27,2.82,18.87,18.87,0,0,1-10.77-.88Z" transform="translate(-344.11 -87.73)"/><path class="cls-9" d="M408.05,173.9c1,.27,1.93.43,2.78.73a16.61,16.61,0,0,1,7.84,5,4.81,4.81,0,0,1,1.14,3.34.71.71,0,0,1-.69.77,5.84,5.84,0,0,1-4.42-1,17.87,17.87,0,0,1-6.44-8A5.26,5.26,0,0,1,408.05,173.9Z" transform="translate(-344.11 -87.73)"/><path class="cls-9" d="M426.53,182.33a1.71,1.71,0,0,1,.42-.1c3.52.35,6.46,1.76,8.35,4.87a4.25,4.25,0,0,1,.45,3.28,1.11,1.11,0,0,1-.54.66,3.68,3.68,0,0,1-4-.65,12.48,12.48,0,0,1-3.8-5.49C427.05,184.08,426.82,183.23,426.53,182.33Z" transform="translate(-344.11 -87.73)"/><path class="cls-9" d="M418.7,153.68c.36,1.14.75,2.13,1,3.15a15.58,15.58,0,0,1,.23,6.86,5.11,5.11,0,0,1-1.88,3.17.89.89,0,0,1-1.45-.15,5.62,5.62,0,0,1-1.28-3.64,16.11,16.11,0,0,1,3-9A4.72,4.72,0,0,1,418.7,153.68Z" transform="translate(-344.11 -87.73)"/><path class="cls-9" d="M420.37,169.51a14.26,14.26,0,0,1,3.08,4.37,12.89,12.89,0,0,1,1.53,4.83,4.62,4.62,0,0,1-.91,3.48.67.67,0,0,1-.94.22,4.87,4.87,0,0,1-2.15-2,11.72,11.72,0,0,1-1.41-6.58c.06-1.45.29-2.89.45-4.33Z" transform="translate(-344.11 -87.73)"/><path class="cls-9" d="M410.3,163.14c.76.54,1.46,1,2.09,1.51a16.2,16.2,0,0,1,3.95,4.73,5.32,5.32,0,0,1,.72,3.93c-.28,1.1-.54,1.24-1.59.89a5.88,5.88,0,0,1-3.29-3,15.61,15.61,0,0,1-2-7.6A3.33,3.33,0,0,1,410.3,163.14Z" transform="translate(-344.11 -87.73)"/></g></svg>