<svg xmlns="http://www.w3.org/2000/svg" xmlns:xlink="http://www.w3.org/1999/xlink" viewBox="0 0 463.83 465.34"><defs><style>.cls-1{isolation:isolate;}.cls-2{fill:#9b55e5;}.cls-3{fill:#f9327a;}.cls-4{fill:#fcc103;}.cls-5{fill:#42dabf;}.cls-6{fill:#35bae9;}.cls-7{opacity:0.92;mix-blend-mode:multiply;fill:url(#radial-gradient);}.cls-8{fill:#fff;}</style><radialGradient id="radial-gradient" cx="365.6" cy="255.87" r="98.88" gradientUnits="userSpaceOnUse"><stop offset="0"/><stop offset="1" stop-color="#fff"/></radialGradient></defs><title>designdafaterbillpay-1-min</title><g class="cls-1"><g id="OBJECTS"><circle class="cls-2" cx="238.33" cy="205.83" r="113.29" transform="translate(-200.75 238.15) rotate(-45)"/><path class="cls-3" d="M370.39,399.11a113.29,113.29,0,1,1-25.07-158.25l.6.44A113.3,113.3,0,0,1,370.39,399.11Z" transform="translate(-125.02 9.33)"/><circle class="cls-4" cx="411.71" cy="333.25" r="113.29" transform="translate(-240.07 398.06) rotate(-45)"/><circle class="cls-5" cx="453.5" cy="207.01" r="113.29" transform="translate(-138.57 390.63) rotate(-45)"/><circle class="cls-6" cx="221.33" cy="137.59" r="113.29"/><path class="cls-6" d="M346.07,240.85c-.07.23-.15.45-.24.69a113.32,113.32,0,0,1-107-149A113.36,113.36,0,0,1,346.07,240.85Z" transform="translate(-125.02 9.33)"/><path class="cls-2" d="M346.07,240.85c-.07.23-.15.45-.24.69a113.32,113.32,0,0,1-107-149A113.36,113.36,0,0,1,346.07,240.85Z" transform="translate(-125.02 9.33)"/><path class="cls-7" d="M435.52,186a98.89,98.89,0,1,0,29,69.92A98.57,98.57,0,0,0,435.52,186ZM365.6,255.87Z" transform="translate(-125.02 9.33)"/><circle class="cls-8" cx="344.3" cy="234.91" r="95.65" transform="translate(-190.28 321.59) rotate(-45)"/><polygon class="cls-6" points="249.77 44.1 225.17 0 200.56 44.1 249.77 44.1"/><polygon class="cls-3" points="75.25 409.91 69.23 460.05 115.06 438.83 75.25 409.91"/><polygon class="cls-4" points="312.24 444.13 358.07 465.34 352.05 415.2 312.24 444.13"/><polygon class="cls-5" points="429.49 211.08 463.83 174.05 414.29 164.28 429.49 211.08"/></g></g></svg>