<svg xmlns="http://www.w3.org/2000/svg" viewBox="0 0 638 355.21"><defs><style>.cls-1{fill:#d37d3d;}.cls-2{fill:#ea4924;}.cls-3{fill:#f9b466;}.cls-4{fill:#f49f4c;}.cls-5{fill:#3e385a;}.cls-6{fill:#e58f48;}.cls-7{fill:#ffcd85;}</style></defs><title>hands</title><g id="Icon"><path class="cls-1" d="M684.14,646.75s-3.11,10.1,1.76,16.84,26.89,24.22,26.89,24.22A16.91,16.91,0,0,1,698,687c-7.4-4.35-18.45-18.74-18.45-18.74S674.48,657.29,684.14,646.75Z" transform="translate(-227 -417.57)"/><path class="cls-2" d="M382.38,454.15l-41.91-21.37a26.08,26.08,0,0,0-35,11.34L229.82,592.46a26.07,26.07,0,0,0,11.35,35l41.91,21.38a26.07,26.07,0,0,0,35-11.35l2.28-4.45-.67-.29L391,494.39h0l2.68-5.26A26.09,26.09,0,0,0,382.38,454.15Z" transform="translate(-227 -417.57)"/><path class="cls-3" d="M701,482c-18.42,18.41-49.07,24-82.52,25.62l10.18,18.9a13.48,13.48,0,0,1,1.35,3.66,11.24,11.24,0,0,1,.26,2.65c-.07,4.87-2.26,12.6-14.67,15.07a28.08,28.08,0,0,1-4.41.49c-13.65.62-28.95-7.31-35.31-11a13.25,13.25,0,0,1-4.72-4.66l-6.71-11.09-3-5a13.45,13.45,0,0,0-11.53-6.52H524.76c-5.82,2-12.3,5.32-20.83,10.52l-1,.62a289.45,289.45,0,0,0-36.78,26.33,20.45,20.45,0,0,0-6.15,5L375,655.57l-1,1.19a20.51,20.51,0,0,0-4.43,9.82A20.74,20.74,0,0,0,376.77,686l2.69,2.22a20.5,20.5,0,0,0,11.36,4.64c-2-.79-3-1.46-2.49-1.35,3.4,1.62,9.46-.59,15.55-5.48h0c1.09-.88,2.18-1.83,3.26-2.87s3-3.28,5.64-6.42c10.74-12.88,32.54-40.7,48.09-59.51,6.24-7.56,11.48-13.67,14.57-16.77s5.47-4.44,7.32-4.75c5.77-1,6.35,8.32,6.35,8.32s-4.16,5.42-10.48,13.53c-3.44,4.42-7.52,9.63-11.92,15.21-14.12,17.92-31.56,39.6-41.8,50.75-1.4,1.53-2.67,2.87-3.78,4a20.81,20.81,0,0,0,4.54,26.67l2.69,2.22a20.59,20.59,0,0,0,6.88,3.74c-.44-.29-.69-.48-.69-.48s13.28,2.13,20.7-4.57c.17-.16.35-.29.52-.45,1.34-1.34,4.16-4.75,7.91-9.44,7.13-8.92,17.67-22.59,28.25-36.18,5.81-7.47,11.63-14.91,16.88-21.51a14.36,14.36,0,0,1,3.15.24A11,11,0,0,1,517,650a11.1,11.1,0,0,1,3.67,6.34c-3.48,4.57-7.24,9.48-11.09,14.47-2.17,2.8-4.36,5.64-6.56,8.45-9.71,12.46-19.44,24.65-26.62,33a112.73,112.73,0,0,1-8.22,8.82c-.14.13-.28.23-.41.35a5.36,5.36,0,0,0-.28.53,20.77,20.77,0,0,0,4.93,25.94l3.79,3.13a20.58,20.58,0,0,0,13.84,4.69c-2.25-.85-3.4-1.6-2.84-1.49,4,1.91,11.72-1.48,18.81-8.34,1.75-1.69,6-6.79,11.6-13.68,6.32-7.79,14.36-17.88,22.49-28,2.14-2.67,4.28-5.34,6.4-8l4-5c3.21,1.06,5.38,3.62,6.26,7.28a14.28,14.28,0,0,1,.13,5.77c-.16,1-.4,2-.66,3l-2.87,3.59c-2.27,2.83-4.55,5.66-6.81,8.44-7.34,9.06-14.42,17.56-20,23.86a20.57,20.57,0,0,0,6.33,22.4h0a20.34,20.34,0,0,0,8.14,4.06c4.22-.38,10-3.59,15.41-8.83,2.21-2.14,8.45-9.76,16.37-19.6l-.11-.24a18.46,18.46,0,0,1-2.14-9.34v-.44a.89.89,0,0,1,0-.15,21,21,0,0,1,3.74-11.34,15.83,15.83,0,0,1,2.53-3h0a18.58,18.58,0,0,1,1.48-1.32,21,21,0,0,1,18.36-4l3.65-4.52a11,11,0,0,1,1.74.22,2.24,2.24,0,0,1,.37.1l.24-.14a21.24,21.24,0,0,1,.71-9.79c.08-.26.18-.51.27-.76s.28-.77.44-1.14c0-.07,0-.13.07-.19l0-.07a20.86,20.86,0,0,1,32.85-7.26l2.85-1.6a17.61,17.61,0,0,1,5-14.87l4.7-4.7a17.68,17.68,0,0,1,25,0l.15.15,3.53-2A17.69,17.69,0,0,1,682.89,648l4.7-4.7a17.7,17.7,0,0,1,24.95,0l1.55,1.55,43.23-24.16C746.32,593.47,702.39,484.8,701,482Z" transform="translate(-227 -417.57)"/><path class="cls-4" d="M478.63,617.51C485,609.4,489.11,604,489.11,604s-.58-9.29-6.35-8.32c-1.85.31-4.24,1.67-7.32,4.75s-8.33,9.21-14.57,16.77c-15.55,18.81-37.35,46.63-48.09,59.51-2.62,3.14-4.59,5.41-5.64,6.42s-2.17,2-3.26,2.87h0c-6.09,4.89-12.15,7.1-15.55,5.48-.53-.11.48.56,2.49,1.35,4.71,1.86,15,4.4,24.12-.58a23.35,23.35,0,0,0,4.28-3c.57-.5,1.21-1.11,1.91-1.8,1.11-1.1,2.38-2.44,3.78-4,10.24-11.15,27.68-32.83,41.8-50.75C471.11,627.14,475.19,621.93,478.63,617.51Z" transform="translate(-227 -417.57)"/><path class="cls-4" d="M509.6,670.85c3.85-5,7.61-9.9,11.09-14.47A11.1,11.1,0,0,0,517,650a11,11,0,0,0-5.06-2.36,14.36,14.36,0,0,0-3.15-.24c-5.25,6.6-11.07,14-16.88,21.51-10.58,13.59-21.12,27.26-28.25,36.18-3.75,4.69-6.57,8.1-7.91,9.44-.17.16-.35.29-.52.45-7.42,6.7-20.7,4.57-20.7,4.57s.25.19.69.48c3.49,2.3,19.64,11.88,32.05,1.75l.5-.4c.13-.12.27-.22.41-.35a112.73,112.73,0,0,0,8.22-8.82c7.18-8.3,16.91-20.49,26.62-33C505.24,676.49,507.43,673.65,509.6,670.85Z" transform="translate(-227 -417.57)"/><path class="cls-4" d="M553.43,710.82l2.87-3.59c.26-1,.5-2,.66-3a14.28,14.28,0,0,0-.13-5.77c-.88-3.66-3.05-6.22-6.26-7.28l-4,5c-2.12,2.63-4.26,5.3-6.4,8-8.13,10.14-16.17,20.23-22.49,28-5.6,6.89-9.85,12-11.6,13.68-7.09,6.86-14.79,10.25-18.81,8.34-.56-.11.59.64,2.84,1.49,5.66,2.14,18.27,4.93,28.06-3.7a116.66,116.66,0,0,0,8.5-8.89c5.57-6.3,12.65-14.8,20-23.86C548.88,716.48,551.16,713.65,553.43,710.82Z" transform="translate(-227 -417.57)"/><path class="cls-4" d="M771.78,620.84l-.8-1.57-2.47-4.84-31.11-61L701,482c1.43,2.79,45.36,111.46,56.36,138.67l-43.23,24.16,9,9L774,625.09Z" transform="translate(-227 -417.57)"/><path class="cls-4" d="M607.89,718.48l.89,1.1.19-.24c-1.13-1.09-2-1.9-2.4-2.34C607,717.47,607.47,718,607.89,718.48Z" transform="translate(-227 -417.57)"/><path class="cls-4" d="M572.88,741.15c-7.92,9.84-14.16,17.46-16.37,19.6-5.42,5.24-11.19,8.45-15.41,8.83a6.64,6.64,0,0,1-3.41-.48c-2-.38,17.22,9.85,30.9-2.22a165.45,165.45,0,0,0,13-14.09,97.06,97.06,0,0,1-7.37-9.37A22,22,0,0,1,572.88,741.15Z" transform="translate(-227 -417.57)"/><path class="cls-4" d="M604.35,712.29a20.86,20.86,0,0,1-1.59-5.26l-.24.14a2.24,2.24,0,0,0-.37-.1,11,11,0,0,0-1.74-.22l-3.65,4.52a20.79,20.79,0,0,1,9.46,5.3l0,0A31.47,31.47,0,0,1,604.35,712.29Z" transform="translate(-227 -417.57)"/><path class="cls-4" d="M641.43,691.2s-.11-.22-.27-.6c0-.13-.09-.27-.15-.4l0-.09a17.47,17.47,0,0,1-1-3.89l-2.85,1.6c.37.32.74.63,1.09,1l4.11,4.11a15,15,0,0,1-.89-1.68Z" transform="translate(-227 -417.57)"/><path class="cls-4" d="M678.3,664.83l-3.53,2,9.17,9.16,1.25-.71-2.3-2.3A17.46,17.46,0,0,1,678.3,664.83Z" transform="translate(-227 -417.57)"/><path class="cls-5" d="M862.18,580.08,786.51,431.74a26.08,26.08,0,0,0-35-11.34l-41.91,21.37a26.09,26.09,0,0,0-11.34,35L701,482l36.44,71.44,31.11,61,3.27,6.41,2.17,4.25a26.07,26.07,0,0,0,35,11.34l41.91-21.38A26.08,26.08,0,0,0,862.18,580.08Z" transform="translate(-227 -417.57)"/><polygon class="cls-5" points="544.78 203.26 541.51 196.86 543.98 201.7 544.78 203.26"/><path class="cls-6" d="M610.34,547.82a33.42,33.42,0,0,0,5.22.09c12.41-2.47,14.6-10.2,14.67-15.07a11.24,11.24,0,0,0-.26-2.65,10.8,10.8,0,0,1-1.43,1.1l-7.48,4.77a9.49,9.49,0,0,1-13-2.9l-6.78-10.66a3.52,3.52,0,0,1,1.08-4.85l15.72-10,.31-.19-28.06-52.11a13.47,13.47,0,0,0-11.87-7.1H502.87a13.52,13.52,0,0,0-6.87,1.88l-81.55,48.28a13.49,13.49,0,0,1-6.87,1.88h-5.42a13.42,13.42,0,0,0-3.56.49,61,61,0,0,1-7.56-6.39l4.67,7.56-5.82,17.79L350,641.61l25,14,85-102.92a20.45,20.45,0,0,1,6.15-5,289.45,289.45,0,0,1,36.78-26.33l1-.62-5.71,0h0c-.38-.08-14.39-3.25,8.62-17,9.14-5.15,55.45-9.06,62.72,4.42a7,7,0,0,1,.53,1.15c3.68,6.44,7.88,14.1,13.07,20.9C590,539.16,598.72,546.68,610.34,547.82Z" transform="translate(-227 -417.57)"/><path class="cls-6" d="M723.49,654.23l-.41-.4-9-9-1.55-1.55a17.7,17.7,0,0,0-24.95,0l-4.7,4.7a17.69,17.69,0,0,0-4.59,16.84,17.46,17.46,0,0,0,4.59,8.12l2.3,2.3,8.64,8.64a17.7,17.7,0,0,0,24.95,0l4.71-4.7A17.71,17.71,0,0,0,723.49,654.23Zm-38.81,7a9.79,9.79,0,0,1,3.14-10.64l6.91-5.57A9.46,9.46,0,0,1,708,646.48l1,1.21.87,1.08a3.53,3.53,0,0,1-.53,5l-16.4,13.22a3.54,3.54,0,0,1-4.95-.53l-1.63-2A9.71,9.71,0,0,1,684.68,661.27Z" transform="translate(-227 -417.57)"/><path class="cls-6" d="M646.84,696.93c-3.08-3.21-5.19-5.49-5.38-5.7a15,15,0,0,0,.89,1.68l-4.11-4.11c-.35-.35-.72-.66-1.09-1a20.86,20.86,0,0,0-32.85,7.26c4.29-6.27,5.66-6.27,5.66-6.27.26,1.15-1.89,5.87.29,12.19a9.66,9.66,0,0,1,3.34-5.42L620.5,690a9.46,9.46,0,0,1,12.17.31,9.79,9.79,0,0,1,1.11,1.12l1.84,2.29a3.52,3.52,0,0,1-.53,4.95l-16.4,13.22a3.79,3.79,0,0,1-.56.36l.55.59c11.8,12.34,35.63,33.71,35.67,33.74a20.82,20.82,0,0,0,7.3-4.72h0a21,21,0,0,0,2.89-26,17.46,17.46,0,0,0,7.64,4.4C667.23,717.81,654.26,704.68,646.84,696.93Z" transform="translate(-227 -417.57)"/><path class="cls-6" d="M683.94,676l-9.17-9.16-.15-.15a17.68,17.68,0,0,0-25,0l-4.7,4.7a17.61,17.61,0,0,0-5,14.87,18.88,18.88,0,0,0,.71,3,17.09,17.09,0,0,1-.57-3.11c-.37-4.1.52-10.22,6.65-16.63a10.88,10.88,0,0,0,.89,12.33,9.74,9.74,0,0,1,3.52-6.26l6.91-5.57a9.61,9.61,0,0,1,13.27,1.43l1.85,2.29a3.54,3.54,0,0,1-.53,5l-15.09,12.15-.27.22c11.72,10.42,29.72,25.58,29.72,25.58a21,21,0,0,1-6.89,4,17.52,17.52,0,0,0,9.21-4.84l4.7-4.71a17.68,17.68,0,0,0,0-24.94Z" transform="translate(-227 -417.57)"/><path class="cls-6" d="M640.71,689.26c.09.32.19.61.27.85C640.88,689.83,640.8,689.54,640.71,689.26Z" transform="translate(-227 -417.57)"/><path class="cls-6" d="M632,741.87a20.51,20.51,0,0,0,4.39,3.33c-2.61-2.17-8.23-7.43-13.92-12.86Z" transform="translate(-227 -417.57)"/><path class="cls-6" d="M654.28,746.61a32.24,32.24,0,0,1-8.52,1.33A21.24,21.24,0,0,0,654.28,746.61Z" transform="translate(-227 -417.57)"/><path class="cls-6" d="M602.76,707a20.86,20.86,0,0,0,1.59,5.26A33.09,33.09,0,0,1,603,706.9a21.55,21.55,0,0,1,.47-9.66A21.24,21.24,0,0,0,602.76,707Z" transform="translate(-227 -417.57)"/><path class="cls-6" d="M586.82,758.52l-.36-.31Z" transform="translate(-227 -417.57)"/><path class="cls-6" d="M601.74,763.43h0Z" transform="translate(-227 -417.57)"/><path class="cls-6" d="M586.82,758.52a21,21,0,0,0,14.92,4.91C599.48,763.48,592.51,763.18,586.82,758.52Z" transform="translate(-227 -417.57)"/><path class="cls-6" d="M586.46,758.21c-.31-.27-.61-.54-.9-.83C585.85,757.67,586.15,757.94,586.46,758.21Z" transform="translate(-227 -417.57)"/><path class="cls-6" d="M585.56,757.38a21.68,21.68,0,0,1-1.52-1.65A20.21,20.21,0,0,0,585.56,757.38Z" transform="translate(-227 -417.57)"/><path class="cls-6" d="M608.78,719.58l-.89-1.1c-.42-.52-.87-1-1.32-1.48l-.35-.33a21.06,21.06,0,0,0-27.82-1.35,18.58,18.58,0,0,0-1.48,1.32c.8,1.28-4.07,9.63-1,14.51.42.69,1.27,1.84,2.4,3.29,2.27,2.92,5.69,7.07,9.26,11.34,7.14,8.53,14.85,17.46,15,17.61a20.75,20.75,0,0,0,11-4.5h0a21,21,0,0,0,3.16-29.48Zm-23,16.43a3.54,3.54,0,0,1-4.95-.54,9.55,9.55,0,0,1-1.41-2.5,9.78,9.78,0,0,1,2.89-11.26l3.35-2.69A9.54,9.54,0,0,1,599,720.44l.22.27a3.54,3.54,0,0,1-.53,4.95Z" transform="translate(-227 -417.57)"/><path class="cls-6" d="M572.77,740.91l.11.24a22,22,0,0,0,1.36,2.27c-.49-.75-.94-1.51-1.34-2.28Z" transform="translate(-227 -417.57)"/><path class="cls-6" d="M574.39,719.64A21,21,0,0,0,570.65,731,22.78,22.78,0,0,1,574.39,719.64Z" transform="translate(-227 -417.57)"/><path class="cls-1" d="M467.51,722a5.36,5.36,0,0,1,.28-.53l-.5.4Z" transform="translate(-227 -417.57)"/><path class="cls-1" d="M414.94,692.23l3.6,2a20.59,20.59,0,0,1,2.59-6.83c-.7.69-1.34,1.3-1.91,1.8A23.35,23.35,0,0,1,414.94,692.23Z" transform="translate(-227 -417.57)"/><path class="cls-1" d="M575.84,537.39c6.36,3.7,21.66,11.63,35.31,11a28.08,28.08,0,0,0,4.41-.49,33.42,33.42,0,0,1-5.22-.09c-11.62-1.14-20.3-8.66-27.21-17.7-5.19-6.8-9.39-14.46-13.07-20.9a7,7,0,0,0-.53-1.15c-7.27-13.48-53.58-9.57-62.72-4.42-23,13.74-9,16.91-8.62,17h0l13.21-8.39a13.39,13.39,0,0,1,7.23-2.1h31.22a13.45,13.45,0,0,1,11.53,6.52l3,5,6.71,11.09A13.25,13.25,0,0,0,575.84,537.39Z" transform="translate(-227 -417.57)"/><path class="cls-1" d="M587.53,745.78c-3.57-4.27-7-8.42-9.26-11.34-1.13-1.45-2-2.6-2.4-3.29-3-4.88,1.85-13.23,1-14.51h0a15.83,15.83,0,0,0-2.53,3A22.78,22.78,0,0,0,570.65,731a.89.89,0,0,0,0,.15v.12c0,.11,0,.21,0,.32a18.46,18.46,0,0,0,2.14,9.34l.13.23c.4.77.85,1.53,1.34,2.28a97.06,97.06,0,0,0,7.37,9.37q1.21,1.43,2.43,2.94c6.48,8,16.8,7.77,18.29,7.69l.19,0h0C602.38,763.24,594.67,754.31,587.53,745.78Z" transform="translate(-227 -417.57)"/><path class="cls-1" d="M618.68,712.85l-.55-.59a3.53,3.53,0,0,1-4.39-.9l-1.63-2A9.74,9.74,0,0,1,610,703a10.13,10.13,0,0,1,.25-2c-2.18-6.32,0-11-.29-12.19,0,0-1.37,0-5.66,6.27l0,.07c0,.06,0,.12-.07.19a11.19,11.19,0,0,0-.44,1.14c-.09.25-.19.5-.27.76a21.55,21.55,0,0,0-.47,9.66,33.09,33.09,0,0,0,1.35,5.39,31.47,31.47,0,0,0,1.84,4.35l0,0,.35.33c.44.44,1.27,1.25,2.4,2.34,3.08,3,8.32,8.06,13.5,13,5.69,5.43,11.31,10.69,13.92,12.86l0,0c2.58,2.15,6.1,2.74,9.33,2.71a32.24,32.24,0,0,0,8.52-1.33l.07,0h0S630.48,725.19,618.68,712.85Z" transform="translate(-227 -417.57)"/><path class="cls-1" d="M657.34,691.06l-1.05.85a3.53,3.53,0,0,1-4.95-.54l-1.62-2a9.75,9.75,0,0,1-2.06-7.41.29.29,0,0,0,0-.09,10.88,10.88,0,0,1-.89-12.33c-6.13,6.41-7,12.53-6.65,16.63a17.11,17.11,0,0,0,.84,4l0,.09c.06.15.11.28.15.4.16.38.27.6.27.6l0,0c.19.21,2.3,2.49,5.38,5.7,7.42,7.75,20.39,20.88,25.34,23.33h0a10.46,10.46,0,0,0,8,.34,21,21,0,0,0,6.89-4S669.06,701.48,657.34,691.06Z" transform="translate(-227 -417.57)"/><path class="cls-1" d="M391,494.39,319.66,632.72l.67.29-2.28,4.45,51.5,29.12a20.51,20.51,0,0,1,4.43-9.82l1-1.19-25-14,39.91-121.87L395.71,502,391,494.39Z" transform="translate(-227 -417.57)"/><path class="cls-7" d="M599,720.44A9.54,9.54,0,0,0,585.69,719l-3.35,2.69A9.78,9.78,0,0,0,579.45,733a9.55,9.55,0,0,0,1.41,2.5,3.54,3.54,0,0,0,4.95.54l12.84-10.35a3.54,3.54,0,0,0,.53-4.95Z" transform="translate(-227 -417.57)"/><path class="cls-7" d="M633.78,691.44a9.79,9.79,0,0,0-1.11-1.12A9.46,9.46,0,0,0,620.5,690l-6.91,5.57a9.66,9.66,0,0,0-3.34,5.42,10.13,10.13,0,0,0-.25,2,9.74,9.74,0,0,0,2.11,6.36l1.63,2a3.53,3.53,0,0,0,4.39.9,3.79,3.79,0,0,0,.56-.36l16.4-13.22a3.52,3.52,0,0,0,.53-4.95Z" transform="translate(-227 -417.57)"/><path class="cls-7" d="M671.38,671.45A9.61,9.61,0,0,0,658.11,670l-6.91,5.57a9.74,9.74,0,0,0-3.52,6.26.29.29,0,0,1,0,.09,9.75,9.75,0,0,0,2.06,7.41l1.62,2a3.53,3.53,0,0,0,4.95.54l1.05-.85.27-.22,15.09-12.15a3.54,3.54,0,0,0,.53-5Z" transform="translate(-227 -417.57)"/><path class="cls-7" d="M709.85,648.77l-.87-1.08-1-1.21a9.46,9.46,0,0,0-13.27-1.42l-6.91,5.57a9.88,9.88,0,0,0-1.48,13.76l1.63,2a3.54,3.54,0,0,0,4.95.53l16.4-13.22A3.53,3.53,0,0,0,709.85,648.77Z" transform="translate(-227 -417.57)"/><path class="cls-7" d="M621.06,536.06l7.48-4.77a10.8,10.8,0,0,0,1.43-1.1,13.48,13.48,0,0,0-1.35-3.66l-10.18-18.9-.09-.17-.31.19-15.72,10a3.52,3.52,0,0,0-1.08,4.85L608,533.16A9.49,9.49,0,0,0,621.06,536.06Z" transform="translate(-227 -417.57)"/></g></svg>