<svg xmlns="http://www.w3.org/2000/svg" viewBox="0 0 601.94 689.32"><defs><style>.cls-1{fill:#f4d242;}.cls-2{fill:#59595b;}.cls-3{fill:#808183;}.cls-4{fill:#fff;}</style></defs><title>1</title><g id="Objects"><path class="cls-1" d="M760.39,507.27c0-109.29-88.6-197.89-197.9-197.9S364.22,398.67,364.6,508a197.19,197.19,0,0,0,57.77,139,224.65,224.65,0,0,1,58.15,99.83l16,59H626.2L641.31,750a225.16,225.16,0,0,1,59.92-101.58A197.25,197.25,0,0,0,760.39,507.27Z" transform="translate(-260.03 -185.65)"/><path class="cls-2" d="M592.46,875H529.21c-17.92,0-33.25-13.23-34.27-30l-5.34-64.81,143.24-.92L626.73,845C625.71,861.74,610.38,875,592.46,875Z" transform="translate(-260.03 -185.65)"/><path class="cls-3" d="M620,807.48c-40,1.71-80.18-.34-120.19,1.43-3.55.16-3.28,5.35.2,5.46,40,1.33,80.19-1.15,120.24.12C624.71,814.64,624.51,807.29,620,807.48Z" transform="translate(-260.03 -185.65)"/><path class="cls-3" d="M620,824.86c-40,1.71-80.18-.34-120.19,1.43-3.55.16-3.28,5.35.2,5.46,40,1.33,80.19-1.15,120.24.12C624.71,832,624.51,824.67,620,824.86Z" transform="translate(-260.03 -185.65)"/><path class="cls-1" d="M578.63,208.74c0,12.76-6.78,58.6-15.15,58.6s-15.14-45.84-15.14-58.6,6.78-23.09,15.14-23.09S578.63,196,578.63,208.74Z" transform="translate(-260.03 -185.65)"/><path class="cls-1" d="M767.34,279.16c-9.67,8.31-40,43.33-34.57,49.68s44.64-18.4,54.31-26.71,13.1-20.19,7.65-26.53S777,270.85,767.34,279.16Z" transform="translate(-260.03 -185.65)"/><path class="cls-1" d="M840.89,483.75c-12.65,1.61-59,.66-60-7.64s43.57-20.8,56.23-22.41,23.76,3.82,24.81,12.12S853.54,482.15,840.89,483.75Z" transform="translate(-260.03 -185.65)"/><path class="cls-1" d="M376.94,263.93c10,7.86,42,41.47,36.8,48.06s-45.43-16.35-55.47-24.21-14-19.58-8.84-26.16S366.9,256.07,376.94,263.93Z" transform="translate(-260.03 -185.65)"/><path class="cls-1" d="M281.11,451c12.65,1.6,59,.65,60-7.64s-43.57-20.81-56.23-22.41-23.76,3.81-24.81,12.11S268.46,449.37,281.11,451Z" transform="translate(-260.03 -185.65)"/><path class="cls-4" d="M647.91,608A50.9,50.9,0,0,1,633,590.44c7.18-8.86,10.34-20.78,11.65-31.85a195.28,195.28,0,0,0,1.14-20.38c.11-6.56-.75-12.14-6.32-16.23-5-3.64-11.57-.35-15.38,3.18-4.39,4.08-6.52,10.77-8.21,16.33-3.42,11.24-3.36,23.28-1.21,34.74A69.11,69.11,0,0,0,618,587.94a30.64,30.64,0,0,1-9.51,5.07c-10.81,3.46-19-2.77-24-12-.83-1.51-1.61-3.12-2.34-4.79.85-2.28,1.66-4.56,2.42-6.81a142,142,0,0,0,6.63-33.92c.76-9.53,1-20.92-8.14-26.57-2.95-1.81-6.26-.44-8.11,2.13-13.4,18.59-12.65,43.24-5.37,64.33a140.59,140.59,0,0,1-8.14,16.29c-3.36,5.78-9.78,14.71-17.56,13.58-7.24-1.06-13-10.15-16.63-15.77a64.09,64.09,0,0,1-6.34-13.1q1.38-3.63,2.56-7.35a134.61,134.61,0,0,0,5.63-30c.67-8.49.94-20.41-8.34-24.48-2.7-1.18-6.69-1.06-8.12,2.13A85,85,0,0,0,508,573.9c.18.66.38,1.3.58,2A126,126,0,0,1,484,614.74c-4.67,5.06,2.72,12.53,7.58,7.58a132.24,132.24,0,0,0,23-31.88,83.73,83.73,0,0,0,6,9.65c6.06,8.4,13.66,16.26,24.57,16.85,10.19.55,18.47-8,24-15.47a81,81,0,0,0,7-11.52c5,7.95,12.19,14.26,22,15.63,9,1.27,17.77-1.54,25.16-6.49a74.91,74.91,0,0,0,16.45,19.47C647.23,624.8,655.74,613.76,647.91,608Zm-68.17-82.54c.42,4.75-.68,10.6-.94,13.47a113,113,0,0,1-2.61,15.59C575,544.44,575.78,534.08,579.74,525.49ZM626,555.32a56.62,56.62,0,0,1,3.32-14.41,29.33,29.33,0,0,1,2.88-6,14,14,0,0,1,.93-1.15,8.31,8.31,0,0,1,.23,1.43c.63,12-.36,25-4.1,36.42a35.19,35.19,0,0,1-1.65,4.13A67.93,67.93,0,0,1,626,555.32Z" transform="translate(-260.03 -185.65)"/><path class="cls-4" d="M659.16,578.92c-21,64.23-43.19,128.13-67,191.39-2.85,7.57,8.82,12.21,11.65,4.64,23.72-63.35,45.74-127.28,65.49-192C671.35,576.3,661.36,572.2,659.16,578.92Z" transform="translate(-260.03 -185.65)"/><path class="cls-4" d="M467.77,574.86c16.79,65.47,32.48,131.26,46.43,197.39,1.67,7.92,14,5.55,12.32-2.35-14.07-66.17-29.87-131.91-48-197.08C476.64,566.1,466,568,467.77,574.86Z" transform="translate(-260.03 -185.65)"/></g></svg>