<svg xmlns="http://www.w3.org/2000/svg" viewBox="0 0 786.45 736.57"><defs><style>.cls-1{fill:#949494;}.cls-2{fill:#c5c5c5;}.cls-3{fill:#3fb7b6;}.cls-4{fill:#2f8989;}.cls-5{fill:#145050;}.cls-6{fill:#1a6b6a;}.cls-7{fill:#e8e8e8;}.cls-8{fill:#aeaeae;}.cls-9{fill:#894a2f;}.cls-10{fill:#b7623f;}</style></defs><title>multi-company</title><g id="Icon"><rect class="cls-1" x="169.9" y="709.8" width="261.81" height="26.77"/><rect class="cls-2" x="169.9" y="57.98" width="261.81" height="36.16"/><polygon class="cls-3" points="250.2 174.45 431.71 174.45 431.71 147.68 223.44 147.68 250.2 174.45"/><polygon class="cls-4" points="223.44 147.68 169.9 147.68 169.9 174.45 250.2 174.45 223.44 147.68"/><polygon class="cls-3" points="303.74 227.99 431.71 227.99 431.71 201.22 276.97 201.22 303.74 227.99"/><polygon class="cls-4" points="276.97 201.22 169.9 201.22 169.9 227.99 303.74 227.99 276.97 201.22"/><polygon class="cls-4" points="330.5 254.74 169.9 254.74 169.9 281.51 357.27 281.51 330.5 254.74"/><polygon class="cls-3" points="357.27 281.51 431.71 281.51 431.71 254.74 330.5 254.74 357.27 281.51"/><polygon class="cls-4" points="384.05 308.29 169.9 308.29 169.9 335.05 410.81 335.05 384.05 308.29"/><polygon class="cls-3" points="410.81 335.05 431.71 335.05 431.71 308.29 384.05 308.29 410.81 335.05"/><rect class="cls-4" x="169.9" y="361.82" width="261.81" height="26.77"/><rect class="cls-4" x="169.9" y="415.36" width="261.81" height="26.76"/><rect class="cls-4" x="169.9" y="468.89" width="261.81" height="26.77"/><rect class="cls-4" x="169.9" y="522.43" width="261.81" height="26.77"/><rect class="cls-4" x="169.9" y="575.96" width="261.81" height="26.76"/><rect class="cls-4" x="169.9" y="629.49" width="261.81" height="26.77"/><rect class="cls-4" x="169.9" y="683.03" width="261.81" height="26.76"/><polygon class="cls-5" points="250.2 174.45 169.9 174.45 169.9 201.22 276.97 201.22 250.2 174.45"/><polygon class="cls-6" points="276.97 201.22 431.71 201.22 431.71 174.45 250.2 174.45 276.97 201.22"/><polygon class="cls-4" points="169.9 94.14 169.9 120.91 196.66 120.91 169.9 94.14"/><polygon class="cls-3" points="431.71 120.91 431.71 94.14 169.9 94.14 196.66 120.91 431.71 120.91"/><polygon class="cls-5" points="196.66 120.91 169.9 120.91 169.9 147.68 223.44 147.68 196.66 120.91"/><polygon class="cls-6" points="223.44 147.68 431.71 147.68 431.71 120.91 196.66 120.91 223.44 147.68"/><polygon class="cls-5" points="303.74 227.99 169.9 227.99 169.9 254.74 330.5 254.74 303.74 227.99"/><polygon class="cls-6" points="330.5 254.74 431.71 254.74 431.71 227.99 303.74 227.99 330.5 254.74"/><polygon class="cls-6" points="384.05 308.29 431.71 308.29 431.71 281.51 357.27 281.51 384.05 308.29"/><polygon class="cls-5" points="357.27 281.51 169.9 281.51 169.9 308.29 384.05 308.29 357.27 281.51"/><polygon class="cls-5" points="410.81 335.05 169.9 335.05 169.9 361.82 431.71 361.82 431.71 355.95 410.81 335.05"/><polygon class="cls-6" points="431.71 355.95 431.71 335.05 410.81 335.05 431.71 355.95"/><rect class="cls-5" x="169.9" y="388.59" width="261.81" height="26.77"/><rect class="cls-5" x="169.9" y="442.12" width="261.81" height="26.77"/><rect class="cls-5" x="169.9" y="495.66" width="261.81" height="26.76"/><rect class="cls-5" x="169.9" y="549.2" width="261.81" height="26.76"/><rect class="cls-5" x="169.9" y="602.72" width="261.81" height="26.77"/><rect class="cls-5" x="169.9" y="656.26" width="261.81" height="26.77"/><rect class="cls-2" x="15.48" y="120.91" width="154.42" height="615.65"/><rect class="cls-3" x="29.89" y="147.68" width="140.01" height="26.77"/><rect class="cls-3" x="29.89" y="201.22" width="140.01" height="26.77"/><rect class="cls-3" x="29.89" y="254.74" width="140.01" height="26.77"/><rect class="cls-3" x="29.89" y="308.28" width="140.01" height="26.76"/><rect class="cls-3" x="29.89" y="361.82" width="140.01" height="26.77"/><rect class="cls-3" x="29.89" y="415.36" width="140.01" height="26.76"/><rect class="cls-3" x="29.89" y="468.89" width="140.01" height="26.77"/><rect class="cls-3" x="29.89" y="522.43" width="140.01" height="26.77"/><rect class="cls-3" x="29.89" y="575.96" width="140.01" height="26.76"/><rect class="cls-3" x="29.89" y="629.49" width="140.01" height="26.77"/><rect class="cls-3" x="29.89" y="683.03" width="140.01" height="26.76"/><rect class="cls-6" x="29.89" y="174.45" width="140.01" height="26.77"/><rect class="cls-6" x="29.89" y="227.99" width="140.01" height="26.75"/><rect class="cls-6" x="29.89" y="281.51" width="140.01" height="26.77"/><rect class="cls-6" x="29.89" y="335.05" width="140.01" height="26.77"/><rect class="cls-6" x="29.89" y="388.59" width="140.01" height="26.77"/><rect class="cls-6" x="29.89" y="442.12" width="140.01" height="26.77"/><rect class="cls-6" x="29.89" y="495.66" width="140.01" height="26.76"/><rect class="cls-6" x="29.89" y="549.2" width="140.01" height="26.76"/><rect class="cls-6" x="29.89" y="602.72" width="140.01" height="26.77"/><rect class="cls-6" x="29.89" y="656.26" width="140.01" height="26.77"/><rect class="cls-2" x="621.94" y="388.59" width="140" height="347.98"/><rect class="cls-3" x="621.94" y="415.36" width="140" height="26.76"/><rect class="cls-3" x="621.94" y="468.89" width="140" height="26.77"/><rect class="cls-3" x="621.94" y="522.43" width="140" height="26.77"/><rect class="cls-3" x="621.94" y="575.96" width="140" height="26.76"/><rect class="cls-3" x="621.94" y="629.49" width="140" height="26.77"/><rect class="cls-3" x="621.94" y="683.03" width="140" height="26.76"/><rect class="cls-6" x="621.94" y="442.12" width="140" height="26.77"/><rect class="cls-6" x="621.94" y="495.66" width="140" height="26.76"/><rect class="cls-6" x="621.94" y="549.2" width="140" height="26.76"/><rect class="cls-6" x="621.94" y="602.72" width="140" height="26.77"/><rect class="cls-6" x="621.94" y="656.26" width="140" height="26.77"/><rect class="cls-2" x="431.71" y="281.51" width="190.23" height="455.05"/><rect class="cls-3" x="431.71" y="308.28" width="190.23" height="26.76"/><rect class="cls-3" x="431.71" y="361.82" width="190.23" height="26.77"/><rect class="cls-3" x="431.71" y="415.36" width="190.23" height="26.76"/><rect class="cls-3" x="431.71" y="468.89" width="190.23" height="26.77"/><rect class="cls-3" x="431.71" y="522.43" width="190.23" height="26.77"/><rect class="cls-3" x="431.71" y="575.96" width="190.23" height="26.76"/><rect class="cls-3" x="431.71" y="629.49" width="190.23" height="26.77"/><rect class="cls-3" x="431.71" y="683.03" width="190.23" height="26.76"/><rect class="cls-6" x="431.71" y="335.05" width="190.23" height="26.77"/><rect class="cls-6" x="431.71" y="388.59" width="190.23" height="26.77"/><rect class="cls-6" x="431.71" y="442.12" width="190.23" height="26.77"/><rect class="cls-6" x="431.71" y="495.66" width="190.23" height="26.76"/><rect class="cls-6" x="431.71" y="549.2" width="190.23" height="26.76"/><rect class="cls-6" x="431.71" y="602.72" width="190.23" height="26.77"/><rect class="cls-6" x="431.71" y="656.26" width="190.23" height="26.77"/><rect class="cls-7" y="94.14" width="169.9" height="53.53"/><rect class="cls-7" x="621.92" y="361.82" width="164.53" height="53.54"/><rect class="cls-7" x="431.71" y="254.74" width="216.45" height="53.54"/><rect class="cls-7" x="146.27" y="40.61" width="309.42" height="53.53"/><rect class="cls-7" x="431.71" y="308.28" width="14.42" height="401.51"/><rect class="cls-7" x="15.48" y="147.68" width="14.41" height="562.12"/><rect class="cls-7" x="621.94" y="415.36" width="14.41" height="294.44"/><polygon class="cls-7" points="184.31 94.14 169.9 94.14 184.31 108.56 184.31 94.14"/><polygon class="cls-8" points="169.9 94.14 169.9 709.8 184.31 709.8 184.31 108.56 169.9 94.14"/><rect class="cls-9" x="300.98" width="104.57" height="40.61"/><rect class="cls-10" x="196.41" width="104.57" height="40.61"/></g></svg>