<svg xmlns="http://www.w3.org/2000/svg" viewBox="0 0 698.65 654.57"><defs><style>.cls-1{isolation:isolate;}.cls-2{fill:#90a4ae;}.cls-3{fill:#b0bec5;}.cls-4{fill:#cfd8dc;}.cls-5{fill:#68787a;}.cls-6{fill:#2a445d;}.cls-7{fill:#bdbdbd;opacity:0.41;mix-blend-mode:overlay;}.cls-8{fill:#0ec0c0;}.cls-9{fill:#184f78;}.cls-10{fill:#a6dae8;}.cls-11{fill:#f94e63;}.cls-12{fill:#17c5cc;}.cls-13{fill:#ffd740;}.cls-14{fill:#fff;}.cls-15{fill:#ff6f00;}.cls-16{fill:#f4cd25;}</style></defs><title>pages-title-icons-erp.</title><g class="cls-1"><g id="Icon"><g id="_8" data-name="8"><g id="_5" data-name="5"><polygon class="cls-2" points="383.66 532.73 323.82 524.86 263.99 532.73 259.86 556.16 387.79 556.16 383.66 532.73"/><polygon class="cls-3" points="387.79 556.16 259.86 556.16 247.55 625.95 400.09 625.95 387.79 556.16"/><path class="cls-4" d="M677.44,851.25l-7.27-11.11c-8.57-5.64-57.6-8.79-57.6-8.79h-.25l-.6-3.39H459.19l-.6,3.39h-.25s-49,3.15-57.59,8.79l-7.27,11.11c-3,2,.06,5.32,4.82,5.32H672.62C677.38,856.57,680.43,853.22,677.44,851.25Z" transform="translate(-211.64 -202)"/><path class="cls-4" d="M856.76,326.17H214.15a2.51,2.51,0,0,0-2.51,2.52V734.35a2.51,2.51,0,0,0,2.51,2.52H856.76a2.52,2.52,0,0,0,2.52-2.52V328.69A2.52,2.52,0,0,0,856.76,326.17Z" transform="translate(-211.64 -202)"/><rect class="cls-5" x="34.75" y="152.6" width="578.14" height="353.83"/><polygon class="cls-6" points="449.5 159.54 43.23 159.54 43.23 162.8 43.23 497.63 359.13 497.63 449.5 497.63 602.66 497.63 602.66 159.54 449.5 159.54"/></g><polygon class="cls-7" points="43.23 164.66 43.23 497.63 359.13 497.63 449.5 497.63 602.66 497.63 602.66 495.24 43.23 164.66"/><path class="cls-8" d="M737.75,303.94l-2.14-23.85-18-1.41a61,61,0,0,0-5.28-11.28l10.33-14.63-17-16.89-14.51,10.34a62.36,62.36,0,0,0-11.49-5.33l-1.46-17.65-23.86-2L650,238.32a60.82,60.82,0,0,0-12.36,3.34l-12.38-12.47-.56.39-19,13.38,7.59,15.91a62.4,62.4,0,0,0-7.3,10.54l-17.5-1.6L582.33,291l16.14,7.35a62.06,62.06,0,0,0,1.2,12.66l-14.55,10.09,10.17,21.67,17.28-4.78a60,60,0,0,0,8.91,8.77L616.77,364l21.72,10.07,10.25-14.92a61.94,61.94,0,0,0,12.31,1l7.57,16.39,23.11-6.25-.89-9.22-.86-8.87c1.71-1,3.42-2.06,5.07-3.21s3.38-2.53,5-3.89l16.39,7.74,13.68-19.65-13-12.74a61.85,61.85,0,0,0,3.15-11.89Zm-56,26.13a39.57,39.57,0,0,1-5,2.92,37.84,37.84,0,1,1,5-2.92Z" transform="translate(-211.64 -202)"/><path class="cls-9" d="M910.29,284.74l-2.15-23.85-18-1.42a60.7,60.7,0,0,0-5.28-11.28l10.33-14.63-17-16.89L863.75,227a61.29,61.29,0,0,0-11.48-5.33L850.8,204l-23.86-2-4.41,17.11a61.44,61.44,0,0,0-12.37,3.34L797.8,210l-.56.39-19,13.38,7.59,15.92a61.3,61.3,0,0,0-7.29,10.53L761,248.61l-6.14,23.13L771,279.1a60,60,0,0,0,1.2,12.65l-14.56,10.09,10.17,21.67,17.28-4.77a61,61,0,0,0,8.91,8.77l-4.71,17.27L811,354.85l10.26-14.91a61.81,61.81,0,0,0,12.31,1l7.56,16.39,23.11-6.24-.89-9.23-.86-8.87c1.72-1,3.42-2.06,5.06-3.21s3.4-2.52,5-3.88l16.39,7.73L902.62,314l-13-12.75a61.87,61.87,0,0,0,3.16-11.89Zm-56,26.12a39.57,39.57,0,0,1-5,2.92,38.15,38.15,0,0,1-38.92-65.37,39.46,39.46,0,0,1,4.67-2.76,38.15,38.15,0,0,1,39.26,65.21Z" transform="translate(-211.64 -202)"/><rect class="cls-10" x="76.45" y="340.31" width="68.89" height="119.05"/><rect class="cls-11" x="158.97" y="277.99" width="68.89" height="181.37"/><rect class="cls-12" x="241.5" y="220.32" width="68.89" height="239.04"/><rect class="cls-13" x="324.02" y="322.73" width="68.89" height="136.62"/><rect class="cls-14" x="411.32" y="268.67" width="68.89" height="190.69"/><rect class="cls-15" x="493.84" y="319.93" width="68.89" height="139.43"/><path class="cls-16" d="M869.45,409.47,866.53,377l-24.45-1.92a82.72,82.72,0,0,0-7.2-15.37L849,339.78l-23.11-23-19.76,14.09a84,84,0,0,0-15.64-7.26l-2-24L756,296.8l-6,23.3a83.92,83.92,0,0,0-16.83,4.55l-16.85-17-.76.55-25.91,18.22,10.33,21.66A84.77,84.77,0,0,0,690,362.45l-23.84-2.18-8.36,31.5,22,10A82.82,82.82,0,0,0,681.41,419l-19.83,13.74,13.86,29.51L699,455.77a82.88,82.88,0,0,0,12.13,11.94l-6.41,23.53L734.27,505l14-20.32A84.88,84.88,0,0,0,765,486l10.31,22.32,31.46-8.51-1.2-12.56-1.18-12.08c2.34-1.35,4.66-2.8,6.9-4.37s4.61-3.43,6.76-5.29L840.37,476,859,449.29l-17.63-17.35a84.78,84.78,0,0,0,4.3-16.19Zm-76.3,35.58a51.36,51.36,0,0,1-6.81,4,52,52,0,0,1-53-89,53.24,53.24,0,0,1,6.36-3.75,52,52,0,0,1,53.46,88.8Z" transform="translate(-211.64 -202)"/></g></g></g></svg>