<svg xmlns="http://www.w3.org/2000/svg" xmlns:xlink="http://www.w3.org/1999/xlink" viewBox="0 0 445.21 373.08"><defs><style>.cls-1{isolation:isolate;}.cls-2{fill:#bcbcbc;}.cls-3{opacity:0.3;mix-blend-mode:multiply;fill:url(#linear-gradient);}.cls-4{fill:#d4d5d8;}.cls-5{fill:#2a2b30;}.cls-6{fill:#3b3d40;}.cls-7{fill:#fff;opacity:0.25;mix-blend-mode:overlay;}</style><linearGradient id="linear-gradient" x1="599.01" y1="778.5" x2="599.01" y2="712.18" gradientUnits="userSpaceOnUse"><stop offset="0" stop-color="#fff" stop-opacity="0"/><stop offset="1" stop-color="#a8abad"/></linearGradient></defs><title>screen</title><g class="cls-1"><g id="Layer_1" data-name="Layer 1"><path class="cls-2" d="M568.76,712.18s-1.16,57.6-44.79,57.6v8.72H674.05v-9.31s-41.3-6.4-41.3-57Z" transform="translate(-376.79 -412.98)"/><path class="cls-3" d="M568.76,712.18s-1.16,57.6-44.79,57.6v8.72H674.05v-9.31s-41.3-6.4-41.3-57Z" transform="translate(-376.79 -412.98)"/><rect class="cls-4" x="105.37" y="356.26" width="233.7" height="16.82"/><path class="cls-5" d="M803.78,413H394.66a17.46,17.46,0,0,0-17.45,17.46V674.27H822V431.2C822,421.57,813.42,413,803.78,413Z" transform="translate(-376.79 -412.98)"/><path class="cls-5" d="M795.64,673.36" transform="translate(-376.79 -412.98)"/><path class="cls-6" d="M803.78,657.94v15.81H394.24V444.14a15.8,15.8,0,0,1,15.81-15.8H788a15.8,15.8,0,0,1,15.8,15.8Z" transform="translate(-376.79 -412.98)"/><path class="cls-4" d="M394.24,723.24H803.78a17.45,17.45,0,0,0,17.45-17.45v-32H376.79v32A17.45,17.45,0,0,0,394.24,723.24Z" transform="translate(-376.79 -412.98)"/><path class="cls-6" d="M614.43,698.8c0,3.86-6.91,7-15.42,7s-15.41-3.13-15.41-7,6.9-7,15.41-7S614.43,695,614.43,698.8Z" transform="translate(-376.79 -412.98)"/><path class="cls-7" d="M503.53,413.75c-43.83,47.78-85.74,97.46-126.74,147.4V628.5c57.76-75.06,121.49-145.07,185.84-214.75Z" transform="translate(-376.79 -412.98)"/><path class="cls-7" d="M821.23,597.35c-13.83,25.44-27.42,51-41.38,76.4h15.28c8.73-16.18,17.5-32.36,26.1-48.64Z" transform="translate(-376.79 -412.98)"/><path class="cls-7" d="M821.23,501.14c-39.59,57.06-78.84,114.18-116.08,172.61h45.53c22.38-42.18,45.69-83.41,70.55-123.57Z" transform="translate(-376.79 -412.98)"/><path class="cls-7" d="M445.56,413.75c-23.46,24.6-46.3,49.81-68.77,75.31v24.3q40.41-51.64,85-99.61Z" transform="translate(-376.79 -412.98)"/></g></g></svg>