<svg xmlns="http://www.w3.org/2000/svg" viewBox="0 0 563.57 616.11"><defs><style>.cls-1{isolation:isolate;}.cls-2,.cls-6{fill:#71bdc1;}.cls-3{fill:#da4643;}.cls-4{fill:#fff;}.cls-5{fill:#c3b7a0;}.cls-6{mix-blend-mode:multiply;}</style></defs><title>search</title><g class="cls-1"><g id="Layer_1" data-name="Layer 1"><path class="cls-2" d="M639.3,396.52a138.3,138.3,0,1,0-25.22,194A138.3,138.3,0,0,0,639.3,396.52Z" transform="translate(-317.82 -289.1)"/><polygon class="cls-3" points="96.7 275.13 96.7 0 14.04 0 14.04 303.39 65.26 285.87 96.7 275.13"/><polygon class="cls-3" points="163.84 252.07 165.91 253.78 199.19 281.15 199.19 60.11 116.57 60.11 116.57 268.29 142.5 259.42 163.84 252.07"/><polygon class="cls-3" points="241.09 315.51 246.67 313.37 301.71 292.35 301.71 28.56 219.1 28.56 219.1 297.42 237.99 312.96 241.09 315.51"/><polygon class="cls-3" points="404.22 253.16 404.22 60.11 321.56 60.11 321.56 284.73 353.83 272.41 404.22 253.16"/><polygon class="cls-3" points="445.63 214.59 461.3 254.08 458.95 255 404.22 275.88 353.83 295.17 321.56 307.51 308.35 312.59 301.71 315.11 246.67 336.12 241.09 338.27 237.99 335.72 219.1 320.21 199.19 303.88 165.91 276.54 163.84 274.88 142.5 282.18 116.57 291.08 96.7 297.86 65.26 308.65 14.04 326.2 0 331 18.79 375.7 96.7 349.23 96.7 349.23 116.57 342.5 148.9 331.48 153.4 329.97 155.68 331.84 199.19 367.82 227.53 391.26 263.55 377.81 301.71 363.55 321.56 356.11 360.53 341.55 362.94 340.65 404.22 325.22 474.85 298.78 493.64 338.27 563.57 233.28 445.63 214.59"/><polygon class="cls-4" points="390.71 397.21 364.79 417.18 286.23 315.14 312.17 295.19 390.71 397.21"/><path class="cls-5" d="M858.9,847.63c11.32,14.7,7.32,36.77-8.9,49.27h0c-16.24,12.49-38.6,10.71-49.9-4L678.66,735.18c-11.32-14.7-7.32-36.76,8.91-49.26h0c16.23-12.49,38.58-10.71,49.9,4Z" transform="translate(-317.82 -289.1)"/><path class="cls-4" d="M662,379.05a166.94,166.94,0,1,0-30.43,234.12A166.93,166.93,0,0,0,662,379.05ZM614.08,590.47a138.3,138.3,0,1,1,25.22-194A138.3,138.3,0,0,1,614.08,590.47Z" transform="translate(-317.82 -289.1)"/><path class="cls-6" d="M639.3,396.52a138.3,138.3,0,1,0-25.22,194A138.3,138.3,0,0,0,639.3,396.52Z" transform="translate(-317.82 -289.1)"/></g></g></svg>