<svg id="Layer_1" data-name="Layer 1" xmlns="http://www.w3.org/2000/svg" viewBox="0 0 377.65 355.47"><defs><style>.cls-1,.cls-6{fill:#1d1d1b;}.cls-1,.cls-9{fill-rule:evenodd;}.cls-1,.cls-5{opacity:0.4;}.cls-2{fill:#f6f6f6;}.cls-3{fill:#28324e;}.cls-4{fill:#454444;}.cls-7{fill:#dadada;}.cls-8{fill:#df4937;}.cls-9{fill:#3cc4d6;}.cls-10{fill:#ffe80a;}.cls-11{fill:#575756;}</style></defs><title>services</title><path class="cls-1" d="M417.08,761.37a15.91,15.91,0,0,0,3.43,9.88h0a16.26,16.26,0,0,0,3.13,3,15.81,15.81,0,0,0,9.55,3.25H772.05a16.16,16.16,0,0,0,16.09-16.1v-8.19H417.08Z" transform="translate(-410.49 -422)"/><rect class="cls-2" x="25.46" y="112.53" width="320.15" height="202.61" rx="15.35"/><path class="cls-3" d="M729.86,724.8H462.19c-7.84,0-14.19-5.87-14.19-13.11V564.86c0-7.24,6.35-13.11,14.19-13.11H729.86c7.84,0,14.19,5.87,14.19,13.11V711.69C744.05,718.93,737.7,724.8,729.86,724.8Z" transform="translate(-410.49 -422)"/><path class="cls-2" d="M781.55,747.13v8.2a16.16,16.16,0,0,1-16.09,16.09H426.59a16.18,16.18,0,0,1-16.1-16.09v-8.2Z" transform="translate(-410.49 -422)"/><rect class="cls-4" y="325.13" width="371.06" height="8.19"/><g class="cls-5"><polygon class="cls-6" points="182.18 112.52 182.19 113.18 162.13 137.62 131.05 143.44 103.5 127.93 97.7 112.52 66.98 112.52 71.63 113.96 77.61 129.85 68.48 144.75 81.81 160.3 97.92 153.54 112.72 161.87 115.3 179.16 135.5 182.49 143.51 166.96 160.2 163.83 173.29 175.41 190.91 164.98 187.05 147.94 197.83 134.81 215.29 135.27 222.09 115.95 217.57 112.52 182.18 112.52"/><polygon class="cls-6" points="160.91 112.52 153.25 121.85 134.38 125.39 117.66 115.97 116.36 112.52 106.45 112.52 110.17 122.39 132.77 135.12 158.28 130.34 172.91 112.52 160.91 112.52"/><polygon class="cls-6" points="182.18 112.52 182.19 113.18 162.13 137.62 131.05 143.44 103.5 127.93 97.7 112.52 66.98 112.52 71.63 113.96 77.61 129.85 68.48 144.75 81.81 160.3 97.92 153.54 112.72 161.87 115.3 179.16 135.5 182.49 143.51 166.96 160.2 163.83 173.29 175.41 190.91 164.98 187.05 147.94 197.83 134.81 215.29 135.27 222.09 115.95 217.57 112.52 182.18 112.52"/><polygon class="cls-6" points="160.91 112.52 153.25 121.85 134.38 125.39 117.66 115.97 116.36 112.52 106.45 112.52 110.17 122.39 132.77 135.12 158.28 130.34 172.91 112.52 160.91 112.52"/><path class="cls-6" d="M691.38,608l-11-20.63L658,580.59l-20.63,11L630.58,614l11,20.63,22.36,6.8,20.63-11Zm-43.59,19-7.49-14,4.63-15.22,14-7.48,15.22,4.62,7.49,14L677,624.19l-14,7.48Z" transform="translate(-410.49 -422)"/><path class="cls-6" d="M680.62,662.94l12.94-7,14.86,5.6,11.67-14.31-8.49-13.43,4.22-14.07,14.47-6.55-1.87-18.37-15.49-3.49-7-12.94,5.6-14.86-14.31-11.66-13.43,8.48-14.07-4.22-6.55-14.47-18.37,1.87L641.34,559l-12.94,7-14.85-5.6-11.67,14.31,8.48,13.43-4.22,14.07-14.47,6.55,1.88,18.37L609,630.63l7,12.94-5.6,14.86,14.32,11.66,13.42-8.48,14.07,4.22,6.55,14.47,18.37-1.87Zm-43.78-22.57-13.71-25.68,8.47-27.84,25.68-13.71,27.85,8.47,13.7,25.68-8.47,27.84-25.68,13.71Z" transform="translate(-410.49 -422)"/><path class="cls-6" d="M585.47,696.11l8.21-7.12,13.53.7,5.83-13.5-9.78-9.37L602.82,656l9-10.14-6.91-13-13.42,1.8-8.77-6.42-2.34-13.34L565.9,612.2l-7,11.61-10.5,2.85-11.88-6.49-11.11,9.63,4.74,12.68-4.31,10-12.49,5.25L514,672.4l12.87,4.2,5.11,9.59-3.68,13,11.86,8.69,11.31-7.44,10.69,2,7.89,11,14.19-3.86Zm-39.85-8.67L533.08,664l10.53-24.42,25.65-7,21.47,15.69,1.11,26.57-20.07,17.44Z" transform="translate(-410.49 -422)"/><path class="cls-6" d="M585.32,651.15,568.15,638.6l-20.52,5.6-8.41,19.52,10,18.76,20.91,3.86,16.06-13.94Zm-29.64,23L549.73,663l5-11.61,12.18-3.32,10.2,7.46.53,12.62-9.54,8.28Z" transform="translate(-410.49 -422)"/></g><path class="cls-7" d="M563.8,573l13.09,11.58,17.62-10.43-3.86-17L601.43,544l17.47.45,6.79-19.31-13.91-10.58-.18-17,13.68-10.88-7.21-19.16-17.46.83-11.06-12.89L593,438.31,575.2,428.26l-12.84,11.87-16.75-2.77L537.27,422l-20.12,3.77-2.21,17.34-14.61,8.65-16.26-6.41-13,15.83,9.45,14.7-5.64,16-16.57,5.54.22,20.47,16.69,5.19,6,15.89-9.13,14.9,13.33,15.54,16.12-6.75L516.32,571l2.59,17.28,20.2,3.34,8-15.54Zm-29.15-20.39L507.1,537.07,496,507.48l10.49-29.83,27.21-16.1,31.19,5.15,20.59,24,.34,31.61-20.06,24.44Z" transform="translate(-410.49 -422)"/><path class="cls-7" d="M513.77,531.53l-9.14-24.28,8.61-24.48,22.33-13.21,25.6,4.22,16.89,19.7.28,25.94-16.46,20.06-25.5,4.78Zm.73-24.39,6.76,18L538,534.52,556.85,531,569,516.15l-.21-19.2-12.49-14.56-18.94-3.13L520.87,489Z" transform="translate(-410.49 -422)"/><path class="cls-8" d="M563.8,573l13.09,11.58,17.62-10.43-3.86-17L601.43,544l17.47.45,6.79-19.31-13.91-10.58-.18-17,13.68-10.88-7.21-19.16-17.46.83-11.06-12.89L593,438.31,575.2,428.26l-12.84,11.87-16.75-2.77L537.27,422l-20.12,3.77-2.21,17.34-14.61,8.65-16.26-6.41-13,15.83,9.45,14.7-5.64,16-16.57,5.54.22,20.47,16.69,5.19,6,15.89-9.13,14.9,13.33,15.54,16.12-6.75L516.32,571l2.59,17.28,20.2,3.34,8-15.54Zm-29.15-20.39L507.1,537.07,496,507.48l10.49-29.83,27.21-16.1,31.19,5.15,20.59,24,.34,31.61-20.06,24.44Z" transform="translate(-410.49 -422)"/><path class="cls-8" d="M513.77,531.53l-9.14-24.28,8.61-24.48,22.33-13.21,25.6,4.22,16.89,19.7.28,25.94-16.46,20.06-25.5,4.78Zm.73-24.39,6.76,18L538,534.52,556.85,531,569,516.15l-.21-19.2-12.49-14.56-18.94-3.13L520.87,489Z" transform="translate(-410.49 -422)"/><path class="cls-9" d="M684.49,595.15l-11-20.62-22.37-6.8-20.63,11-6.8,22.37,11,20.62,22.37,6.81,20.63-11Zm-43.59,19-7.49-14L638,584.93l14-7.49,15.22,4.63,7.49,14-4.63,15.22-14,7.49Z" transform="translate(-410.49 -422)"/><path class="cls-9" d="M673.74,650.07l12.93-7,14.86,5.61,11.67-14.32L704.72,621l4.21-14.08,14.47-6.54L721.53,582,706,578.48l-7-12.93,5.6-14.86L690.36,539l-13.42,8.48-14.08-4.21-6.54-14.47-18.38,1.87-3.49,15.49-12.93,7-14.86-5.6L595,561.86l8.48,13.42-4.22,14.08-14.46,6.54,1.87,18.38,15.49,3.49,7,12.94-5.61,14.85,14.32,11.67,13.42-8.48L645.33,653l6.54,14.46,18.37-1.87ZM630,627.5l-13.7-25.67L624.72,574l25.67-13.7,27.85,8.47,13.7,25.68-8.47,27.84L657.79,636Z" transform="translate(-410.49 -422)"/><path class="cls-10" d="M578.58,683.25l8.22-7.12,13.52.69,5.83-13.49L596.38,654l-.45-10.87,9-10.14L598,620l-13.42,1.8-8.77-6.43L573.47,602,559,599.33l-7,11.62-10.49,2.85-11.89-6.49-11.11,9.63,4.74,12.68-4.31,10-12.48,5.24.6,14.69,12.87,4.2,5.12,9.6-3.69,13,11.86,8.69,11.31-7.45,10.69,2,7.89,11,14.19-3.86Zm-39.85-8.68L526.2,651.12l10.52-24.42,25.66-7,21.47,15.7L585,662,564.88,679.4Z" transform="translate(-410.49 -422)"/><path class="cls-10" d="M578.43,638.29l-17.17-12.55-20.51,5.59-8.42,19.53,10,18.76,20.92,3.86,16.05-13.94Zm-29.64,23-5.95-11.15,5-11.6L560,635.22l10.2,7.45.52,12.63-9.53,8.28Z" transform="translate(-410.49 -422)"/><rect class="cls-11" x="46.13" y="315.14" width="278.82" height="9.99"/></svg>