<svg id="Layer_1" data-name="Layer 1" xmlns="http://www.w3.org/2000/svg" viewBox="0 0 588.14 531.86"><defs><style>.cls-1,.cls-2{fill:#fff;}.cls-2{isolation:isolate;font-size:110.8px;font-family:DINNextLTArabic-Regular, DIN Next LT Arabic;}</style></defs><title>stamp-desw</title><path class="cls-1" d="M506.22,304.49c-16.14,87.64-86,159.75-178.88,174.25S145.93,445.86,103.85,367.32l-6.67,1C140,450.42,231.91,500.11,328.33,485.05s168.84-90.35,184.56-181.6ZM259.81,46.27c-96.42,15-168.76,90.38-184.57,181.61l6.67-1c16.15-87.59,86-159.71,178.89-174.21S442.17,85.5,484.29,164l6.67-1C448.09,80.91,356.23,31.21,259.81,46.27Z" transform="translate(0.04 0.02)"/><path class="cls-1" d="M521.38,137.24a17,17,0,0,1-11.84-18.93,16.93,16.93,0,0,0-14-19.46c-.28,0-.57-.09-.85-.12a16.94,16.94,0,0,1-15-16.51,16.92,16.92,0,0,0-17.21-16.63l-.86,0A17,17,0,0,1,443.84,52a16.93,16.93,0,0,0-20-13.18l-.77.18a17,17,0,0,1-19.93-10.24,16.93,16.93,0,0,0-21.95-9.54l-.79.34A17,17,0,0,1,359,13.08,17,17,0,0,0,335.6,7.71l-.57.37a17,17,0,0,1-22.19-2.56,17,17,0,0,0-24-1.1l-.53.51A16.89,16.89,0,0,1,266,6.36a17,17,0,0,0-23.83,3.2c-.15.19-.29.39-.43.59a16.94,16.94,0,0,1-21.68,5.44,16.92,16.92,0,0,0-22.8,7.23c-.13.25-.25.51-.37.77a17,17,0,0,1-20.39,9.2,17,17,0,0,0-21.15,11.43c-.07.23-.13.47-.19.7a16.9,16.9,0,0,1-18.38,12.69,17,17,0,0,0-18.81,15c0,.24,0,.49-.07.73a17,17,0,0,1-15.85,15.77A16.91,16.91,0,0,0,86.23,107c0,.28,0,.57.07.85a17,17,0,0,1-12.75,18.35,16.91,16.91,0,0,0-12.38,20.46c.07.28.14.57.23.85a17,17,0,0,1-9.32,20.32,17,17,0,0,0-9.79,18.08A16.24,16.24,0,0,0,43.92,191a16.88,16.88,0,0,1-5.5,21.64A16.92,16.92,0,0,0,33,234.47l32.19-5C80.49,132.8,156.45,52.71,258.36,36.8S457,74,501,161.4l32.19-5A16.9,16.9,0,0,0,521.38,137.24Zm31.48,160L523,301.91c-15.27,96.7-91.2,176.76-193.14,192.67A231.67,231.67,0,0,1,87.17,369.93l-30,4.69a16.72,16.72,0,0,1,9.56,12.68,17,17,0,0,1-.33,6.82,17,17,0,0,0,12.29,20.66c.23.07.47.12.71.17a17,17,0,0,1,13.51,17.8,17,17,0,0,0,15.78,18.13l.75,0A16.89,16.89,0,0,1,125.83,466a2.46,2.46,0,0,0,.09.8,17,17,0,0,0,19.4,14.11,17,17,0,0,1,18.91,11.94,17,17,0,0,0,21.16,11.41l.69-.22a17,17,0,0,1,20.72,8.38,17,17,0,0,0,22.87,7.42l.61-.33A17,17,0,0,1,252.17,524a16.92,16.92,0,0,0,23.71,3.32l.66-.52a16.93,16.93,0,0,1,22.34.58,17,17,0,0,0,24-1.07l.48-.55a17,17,0,0,1,22.06-3.44,17,17,0,0,0,23.45-5.3c.13-.21.26-.42.38-.63A16.93,16.93,0,0,1,390.36,509a17,17,0,0,0,22.13-9.38c.09-.22.17-.43.25-.65a16.92,16.92,0,0,1,19.43-11,17,17,0,0,0,20.07-13.23c.05-.23.09-.46.13-.69a17,17,0,0,1,17.19-14.3A17,17,0,0,0,487,443.18v-.71a17,17,0,0,1,14.34-17.14A16.91,16.91,0,0,0,515.44,406c0-.29-.09-.57-.15-.85a5.37,5.37,0,0,0-.15-.76,17,17,0,0,1,11.24-18.63,17,17,0,0,0,10.46-21.65c-.08-.23-.17-.46-.26-.69A16.89,16.89,0,0,1,544,342.4a17,17,0,0,0,6.38-23.18c-.12-.21-.25-.42-.38-.63a17,17,0,0,1,2.86-21.38Z" transform="translate(0.04 0.02)"/><path class="cls-1" d="M415.49,318.66a132.47,132.47,0,0,1-220.94,34.5l-7.38,1.16A138.84,138.84,0,0,0,423,317.5ZM272.63,128.37a138.93,138.93,0,0,0-107.46,85.46l7.43-1.16a132.45,132.45,0,0,1,220.93-34.49L401,177A138.92,138.92,0,0,0,272.63,128.37Z" transform="translate(0.04 0.02)"/><path class="cls-1" d="M205.74,351.59a123.21,123.21,0,0,0,198.61-31Z" transform="translate(0.04 0.02)"/><path class="cls-1" d="M382.5,179.9,183.66,211A123.2,123.2,0,0,1,382.5,179.9Z" transform="translate(0.04 0.02)"/><rect class="cls-1" x="-2.99" y="204.96" width="576.08" height="6.43" transform="translate(-28.65 46.46) rotate(-8.87)"/><rect class="cls-1" x="14.97" y="320.05" width="576.08" height="6.43" transform="translate(-46.18 50.61) rotate(-8.87)"/><text class="cls-2" transform="translate(40.73 323.29) rotate(-9.18)">دمتعم عزوم</text></svg>