<svg xmlns="http://www.w3.org/2000/svg" viewBox="0 0 484 655.76"><defs><style>.cls-1{fill:#333;}.cls-2{fill:#666;}.cls-3{fill:#e6e6e6;}.cls-4{fill:#999;}.cls-5{fill:#ccc;}.cls-6{fill:#dd9043;}.cls-7{fill:#4d4d4d;}</style></defs><title>20</title><g id="Icon"><path class="cls-1" d="M880,850.51a36.09,36.09,0,0,1-35.86,36.37H431.85c-19.8,0-35.86-16.31-35.85-36.46V272.28c0-20.13,16.16-36.44,36-36.44H844.25c19.8,0,35.76,16.39,35.75,36.53Z" transform="translate(-396 -231.12)"/><path class="cls-2" d="M880,845.8a36.08,36.08,0,0,1-35.86,36.36H431.85c-19.8,0-35.86-16.31-35.85-36.45V267.57c0-20.12,16.16-36.45,36-36.45H844.25c19.8,0,35.76,16.41,35.75,36.53Z" transform="translate(-396 -231.12)"/><path class="cls-3" d="M843.48,407.94a17.6,17.6,0,0,1-17.54,17.68l-375.74-.07a17.59,17.59,0,0,1-17.52-17.68V296.64A17.61,17.61,0,0,1,450.23,279L826,279a17.63,17.63,0,0,1,17.53,17.71Z" transform="translate(-396 -231.12)"/><path class="cls-4" d="M519.16,619.6a9.3,9.3,0,0,1-9.51,9H453.8a9.29,9.29,0,0,1-9.5-9.06V568.3a9.29,9.29,0,0,1,9.5-9.06h55.85a9.3,9.3,0,0,1,9.5,9.08Z" transform="translate(-396 -231.12)"/><path class="cls-4" d="M519.14,723.7a9.3,9.3,0,0,1-9.5,9.07H453.78a9.28,9.28,0,0,1-9.49-9.06V672.41a9.3,9.3,0,0,1,9.5-9.07l55.85,0a9.28,9.28,0,0,1,9.5,9.07Z" transform="translate(-396 -231.12)"/><path class="cls-4" d="M519.12,827.81a9.29,9.29,0,0,1-9.5,9.07l-55.86,0a9.27,9.27,0,0,1-9.49-9.06V776.52a9.29,9.29,0,0,1,9.49-9.07h55.86a9.29,9.29,0,0,1,9.5,9.07Z" transform="translate(-396 -231.12)"/><path class="cls-4" d="M623.36,619.61a9.28,9.28,0,0,1-9.5,9.06H558a9.31,9.31,0,0,1-9.51-9.07V568.32a9.29,9.29,0,0,1,9.52-9.06h55.85a9.27,9.27,0,0,1,9.48,9.06Z" transform="translate(-396 -231.12)"/><path class="cls-4" d="M623.34,723.72a9.27,9.27,0,0,1-9.49,9.06H558a9.29,9.29,0,0,1-9.5-9.06V672.44a9.3,9.3,0,0,1,9.51-9.07l55.85,0a9.27,9.27,0,0,1,9.48,9.05Z" transform="translate(-396 -231.12)"/><path class="cls-4" d="M623.32,827.83a9.27,9.27,0,0,1-9.49,9.06H558a9.28,9.28,0,0,1-9.51-9V776.55a9.31,9.31,0,0,1,9.51-9.08l55.85,0a9.26,9.26,0,0,1,9.49,9Z" transform="translate(-396 -231.12)"/><path class="cls-4" d="M727.57,619.61a9.29,9.29,0,0,1-9.5,9.08H662.22a9.29,9.29,0,0,1-9.5-9.07V568.33a9.29,9.29,0,0,1,9.51-9.06h55.86a9.29,9.29,0,0,1,9.49,9.07Z" transform="translate(-396 -231.12)"/><path class="cls-4" d="M829.15,621a9.3,9.3,0,0,1-9.51,9.06H763.79a9.31,9.31,0,0,1-9.5-9.09V569.67a9.3,9.3,0,0,1,9.5-9.08h55.86a9.32,9.32,0,0,1,9.5,9.09Z" transform="translate(-396 -231.12)"/><path class="cls-4" d="M727.55,723.74a9.28,9.28,0,0,1-9.49,9.06H662.2a9.3,9.3,0,0,1-9.5-9.07V672.44a9.3,9.3,0,0,1,9.51-9.05h55.86a9.29,9.29,0,0,1,9.48,9.07Z" transform="translate(-396 -231.12)"/><path class="cls-4" d="M727.53,827.85a9.28,9.28,0,0,1-9.49,9.06H662.19a9.28,9.28,0,0,1-9.51-9.06V776.56a9.29,9.29,0,0,1,9.51-9.06h55.85a9.29,9.29,0,0,1,9.49,9.07Z" transform="translate(-396 -231.12)"/><path class="cls-5" d="M521.8,520.13a8,8,0,0,1-8.23,7.85H449.92a8.06,8.06,0,0,1-8.24-7.87V476.27a8,8,0,0,1,8.24-7.84h63.65a8,8,0,0,1,8.22,7.84Z" transform="translate(-396 -231.12)"/><path class="cls-5" d="M626,520.15a8,8,0,0,1-8.22,7.84H554.13a8.06,8.06,0,0,1-8.23-7.86V476.28a8,8,0,0,1,8.23-7.84h63.65A8.06,8.06,0,0,1,626,476.3Z" transform="translate(-396 -231.12)"/><path class="cls-5" d="M730.21,520.16A8,8,0,0,1,722,528H658.34a8.05,8.05,0,0,1-8.25-7.84l0-43.83a8,8,0,0,1,8.24-7.86H722a8.06,8.06,0,0,1,8.23,7.87Z" transform="translate(-396 -231.12)"/><path class="cls-5" d="M834.41,520.18a8,8,0,0,1-8.22,7.85H762.54a8.06,8.06,0,0,1-8.23-7.86V476.33a8,8,0,0,1,8.23-7.86h63.64a8.05,8.05,0,0,1,8.23,7.87Z" transform="translate(-396 -231.12)"/><path class="cls-6" d="M834.37,811.83c0,12.27-3.69,22.23-8.23,22.21H762.48c-4.54,0-8.23-10-8.23-22.23l0-124.12c0-12.28,3.69-22.24,8.24-22.24h63.64c4.55,0,8.23,10,8.23,22.25Z" transform="translate(-396 -231.12)"/><polygon class="cls-7" points="298.7 74.85 294.2 69.4 298.69 63.95 338.34 63.91 342.94 69.36 338.34 74.82 298.7 74.85"/><polygon class="cls-7" points="295.92 126.77 291.43 121.32 295.91 115.85 335.56 115.83 340.17 121.28 335.55 126.74 295.92 126.77"/><polygon class="cls-7" points="293.55 180.24 287.19 174.76 293.54 169.34 333.18 169.31 337.79 174.75 333.18 180.21 293.55 180.24"/><polygon class="cls-7" points="376.1 74.09 371.59 68.63 376.09 63.17 415.72 63.15 420.34 68.6 415.73 74.05 376.1 74.09"/><polygon class="cls-7" points="370.95 126.78 366.45 121.33 370.95 115.86 410.58 115.85 415.19 121.3 410.58 126.75 370.95 126.78"/><polygon class="cls-7" points="367.25 179.47 362.74 174.02 367.24 168.56 406.88 168.54 411.48 173.99 406.88 179.43 367.25 179.47"/><polygon class="cls-7" points="263.87 168.45 258.16 172.55 253.18 167.56 256.48 127.39 262.2 123.17 267.16 128.29 263.87 168.45"/><polygon class="cls-7" points="423.05 115.85 417.35 119.98 412.37 114.96 415.66 74.79 421.38 70.56 426.35 75.7 423.05 115.85"/><polygon class="cls-7" points="347.51 115.85 341.8 119.96 336.83 114.94 340.12 74.78 345.84 70.56 350.81 75.7 347.51 115.85"/><polygon class="cls-7" points="268.04 115.84 262.33 119.96 257.35 114.93 260.64 74.77 266.37 70.55 271.32 75.68 268.04 115.84"/><polygon class="cls-7" points="418.89 168.48 413.18 172.59 408.19 167.57 411.5 127.42 417.21 123.2 422.18 128.32 418.89 168.48"/><polygon class="cls-7" points="290.9 168.46 285.19 172.56 280.2 167.56 283.51 127.39 289.24 123.19 294.19 128.3 290.9 168.46"/></g></svg>