<svg id="Layer_1" data-name="Layer 1" xmlns="http://www.w3.org/2000/svg" viewBox="0 0 951.09 480.47"><defs><style>.cls-1{fill:#ff9d00;}.cls-2{fill:#ff3654;}.cls-3{fill:#338ae8;}.cls-4{fill:#00b59a;}.cls-5{fill:#fff;}</style></defs><title>agreement2</title><path class="cls-1" d="M472.61,705.23l-44.08-44.08a255.73,255.73,0,0,1,182-75.35v62.35A193.82,193.82,0,0,0,472.61,705.23Z" transform="translate(-138.91 -362.72)"/><path class="cls-2" d="M748.52,705.23a193.78,193.78,0,0,0-137.95-57.08V585.8a255.73,255.73,0,0,1,182,75.35Z" transform="translate(-138.91 -362.72)"/><path class="cls-3" d="M415.53,843.19H353.18a255.73,255.73,0,0,1,75.35-182l44.08,44.08A193.82,193.82,0,0,0,415.53,843.19Z" transform="translate(-138.91 -362.72)"/><path class="cls-4" d="M868,843.19H805.61a193.79,193.79,0,0,0-57.09-138l44.09-44.08A255.73,255.73,0,0,1,868,843.19Z" transform="translate(-138.91 -362.72)"/><path d="M672.07,453l-.33,0A401.55,401.55,0,0,0,557,451.82a2.08,2.08,0,0,1-.56-4.12,405.92,405.92,0,0,1,116,1.11,2.08,2.08,0,0,1-.31,4.14Z" transform="translate(-138.91 -362.72)"/><path d="M672.84,443.17a7.81,7.81,0,1,1-8.9,6.55A7.82,7.82,0,0,1,672.84,443.17Z" transform="translate(-138.91 -362.72)"/><path d="M556,442a7.81,7.81,0,1,0,8.8,6.69A7.81,7.81,0,0,0,556,442Z" transform="translate(-138.91 -362.72)"/><path d="M213.58,837.83h0a2.07,2.07,0,0,1-2-2.11,403.92,403.92,0,0,1,4.19-51.1,2.08,2.08,0,1,1,4.11.61,400.8,400.8,0,0,0-4.15,50.56A2.07,2.07,0,0,1,213.58,837.83Z" transform="translate(-138.91 -362.72)"/><path d="M210,784.21a7.81,7.81,0,1,1,6.61,8.85A7.82,7.82,0,0,1,210,784.21Z" transform="translate(-138.91 -362.72)"/><path d="M205.86,835.21a7.81,7.81,0,1,0,8-7.65A7.81,7.81,0,0,0,205.86,835.21Z" transform="translate(-138.91 -362.72)"/><path d="M306,590.34a2,2,0,0,1-1.33-.49,2.08,2.08,0,0,1-.26-2.93c7.56-9,15.58-17.79,23.83-26A405.63,405.63,0,0,1,360,532.38a2.08,2.08,0,1,1,2.61,3.23,401.11,401.11,0,0,0-31.39,28.23c-8.16,8.15-16.1,16.81-23.59,25.75A2.08,2.08,0,0,1,306,590.34Z" transform="translate(-138.91 -362.72)"/><path d="M312.33,593.12a7.81,7.81,0,1,1-.89-11A7.82,7.82,0,0,1,312.33,593.12Z" transform="translate(-138.91 -362.72)"/><path d="M366.08,540.39a7.81,7.81,0,1,0-11-1A7.82,7.82,0,0,0,366.08,540.39Z" transform="translate(-138.91 -362.72)"/><path d="M918,593.86a2.07,2.07,0,0,1-1.61-.76c-8.3-10.14-17.22-20-26.49-29.26-8.52-8.52-17.5-16.72-26.7-24.38a2.08,2.08,0,1,1,2.66-3.19c9.29,7.73,18.37,16,27,24.63,9.37,9.37,18.38,19.32,26.76,29.57a2.07,2.07,0,0,1-.29,2.92A2,2,0,0,1,918,593.86Z" transform="translate(-138.91 -362.72)"/><path d="M923.64,586.57a7.81,7.81,0,1,1-11-1A7.81,7.81,0,0,1,923.64,586.57Z" transform="translate(-138.91 -362.72)"/><path d="M869.81,532.26a7.81,7.81,0,1,0,.91,11A7.81,7.81,0,0,0,869.81,532.26Z" transform="translate(-138.91 -362.72)"/><path d="M1007.56,837.84a2.08,2.08,0,0,1-2.08-2,398.48,398.48,0,0,0-3.92-49,2.08,2.08,0,1,1,4.11-.59,403,403,0,0,1,4,49.47,2.09,2.09,0,0,1-2,2.12Z" transform="translate(-138.91 -362.72)"/><path d="M1015.28,835.21a7.81,7.81,0,1,1-8-7.65A7.81,7.81,0,0,1,1015.28,835.21Z" transform="translate(-138.91 -362.72)"/><path d="M1011.33,785.85a7.82,7.82,0,1,0-6.64,8.84A7.83,7.83,0,0,0,1011.33,785.85Z" transform="translate(-138.91 -362.72)"/><path class="cls-3" d="M353.72,735.58l-12.21-26.13a102.27,102.27,0,1,0-14.71,29.11Z" transform="translate(-138.91 -362.72)"/><path class="cls-5" d="M244.14,783.86a105.14,105.14,0,1,1,100.71-74.64l13.53,29-29.88,3.31A105.61,105.61,0,0,1,244.14,783.86Zm0-204.22a99,99,0,1,0,80.14,157.09l.81-1.11,24-2.66-10.88-23.3.37-1.15a99,99,0,0,0-94.4-128.87Z" transform="translate(-138.91 -362.72)"/><path class="cls-1" d="M508.22,385A102.11,102.11,0,1,0,480.87,564.8l23.61,13.27,5.33-28.35A102.15,102.15,0,0,0,508.22,385Z" transform="translate(-138.91 -362.72)"/><path class="cls-5" d="M506.75,582.92l-26.21-14.74A105.22,105.22,0,1,1,510,382.42h0a105.29,105.29,0,0,1,2.61,169.06ZM481.2,561.4l21,11.82L507,548l1-.72a99.16,99.16,0,1,0-28.05,14.61Z" transform="translate(-138.91 -362.72)"/><path class="cls-4" d="M984.77,576.52A102.17,102.17,0,0,0,887.4,709.45l-12.2,26.13,26.92,3a102.1,102.1,0,1,0,82.65-162Z" transform="translate(-138.91 -362.72)"/><path class="cls-5" d="M984.77,783.86a105.6,105.6,0,0,1-84.35-42.35l-29.89-3.31,13.54-29a105.24,105.24,0,1,1,100.7,74.64ZM879.86,733l24,2.66.81,1.11a98.36,98.36,0,1,0-14.27-28.22l.37,1.15Z" transform="translate(-138.91 -362.72)"/><path class="cls-2" d="M863.19,408.37A102.11,102.11,0,1,0,719.11,549.72l5.32,28.35L748,564.8A102.1,102.1,0,0,0,863.19,408.37Z" transform="translate(-138.91 -362.72)"/><path class="cls-5" d="M722.17,582.92l-5.91-31.44A105.24,105.24,0,1,1,865.73,406.55h0A105.21,105.21,0,0,1,748.38,568.18Zm57.94-214A99,99,0,0,0,721,547.23l1,.72,4.74,25.27,21-11.82,1.31.44A99,99,0,1,0,780.11,369Z" transform="translate(-138.91 -362.72)"/></svg>