<svg xmlns="http://www.w3.org/2000/svg" viewBox="0 0 478.33 406.56"><defs><style>.cls-1{isolation:isolate;}.cls-2{fill:#d32a26;}.cls-3{fill:#c6c6c5;}.cls-3,.cls-7,.cls-8{mix-blend-mode:multiply;}.cls-4{fill:#8b1f14;}.cls-5,.cls-6{fill:#fff;}.cls-5{mix-blend-mode:soft-light;}.cls-7{fill:#d9d9d9;}.cls-8{fill:#9c9b9b;}.cls-9{fill:#f29100;}</style></defs><title>call</title><g class="cls-1"><g id="Layer_1" data-name="Layer 1"><path class="cls-2" d="M690,729.14s49.4,7.55,83.15-41.56l-36.87-48.81-5.72-7.58-36.87-48.81C637.19,601.43,631,651,631,651s-3.09,62.1-83.48-57.09L508,623.74S581.85,724.61,690,729.14Z" transform="translate(-447.61 -323)"/><path class="cls-3" d="M677.06,605.33c14.63,10.91,27.33,25.43,35.13,42,7.71,16.37,9.27,28.93,5.49,45.52-2.29,10.06-12.56,38.89-27.7,36.28,0,0,49.41,7.54,83.15-41.56l-79.46-105.2a102,102,0,0,0-29,15.08A95.89,95.89,0,0,1,677.06,605.33Z" transform="translate(-447.61 -323)"/><path class="cls-4" d="M764.06,700.58a11.37,11.37,0,0,0,2.16-1.3l6.52-4.92a12.26,12.26,0,0,0,2.39-17.16L704,583.05a12.25,12.25,0,0,0-17.16-2.39l-6.52,4.92a13.76,13.76,0,0,0-1.85,1.72Z" transform="translate(-447.61 -323)"/><path class="cls-3" d="M733.56,635.64c5.29,10.29,11.15,22.13,11.89,33.87a34.05,34.05,0,0,1-.11,6.29l18.82,24.9a11.61,11.61,0,0,0,2.15-1.3l6.52-4.92a12.25,12.25,0,0,0,2.39-17.16L704.1,583.17a12.25,12.25,0,0,0-17.16-2.38l-4.88,3.69c8.24,3.62,15.47,9.36,22.44,15A108.75,108.75,0,0,1,733.56,635.64Z" transform="translate(-447.61 -323)"/><path class="cls-5" d="M763.45,699.77l-84.16-111.4c-1.74.87-3.42,1.79-5,2.72l85.19,112.77C760.8,702.56,762.12,701.2,763.45,699.77Z" transform="translate(-447.61 -323)"/><path class="cls-5" d="M642.17,655.43l13.53,17.91c5-15.61,14.35-35.76,31.39-48.18-10.42-10.3-20.82-13.91-20.82-13.91C645.84,624.32,642.17,655.43,642.17,655.43Z" transform="translate(-447.61 -323)"/><path class="cls-2" d="M452.43,414.69s6.24-49.58,62.72-68.62L552,394.87l5.73,7.58,36.87,48.81c-33.75,49.11-83.16,41.56-83.16,41.56s-55.74-7.6,36.93,102.29l-39.47,29.81S427.23,519.94,452.43,414.69Z" transform="translate(-447.61 -323)"/><path class="cls-3" d="M568,461c-6.49-17.06-17-33.24-30.8-45.28C523.55,403.79,511.9,398.86,494.9,398c-10.3-.55-40.83,1.45-42.47,16.73,0,0,6.26-49.59,62.72-68.62l79.46,105.19a102,102,0,0,1-22.45,23.81A94.14,94.14,0,0,0,568,461Z" transform="translate(-447.61 -323)"/><path class="cls-4" d="M500.15,351.23a12.16,12.16,0,0,1,1.85-1.72l6.51-4.92A12.25,12.25,0,0,1,525.67,347l71.12,94.14a12.25,12.25,0,0,1-2.39,17.16l-6.51,4.92a12.45,12.45,0,0,1-2.16,1.31Z" transform="translate(-447.61 -323)"/><path class="cls-3" d="M554.28,398.33c-8.45-7.91-18.24-16.78-29.32-20.71a34.13,34.13,0,0,0-6.08-1.6l-18.82-24.91a12.63,12.63,0,0,1,1.84-1.73l6.52-4.91a12.24,12.24,0,0,1,17.15,2.38L596.7,441a12.27,12.27,0,0,1-2.39,17.16l-4.89,3.69c-1.24-8.92-4.78-17.44-8.3-25.69A108.74,108.74,0,0,0,554.28,398.33Z" transform="translate(-447.61 -323)"/><path class="cls-5" d="M500.77,352.05l84.15,111.4q-2,2.15-4,4.09L495.74,354.77Q498.16,353.36,500.77,352.05Z" transform="translate(-447.61 -323)"/><path class="cls-5" d="M510.27,480.82l-13.53-17.9c16.37-.53,38.32-4,54.92-17,7.06,12.83,7.69,23.84,7.69,23.84C541.2,485.81,510.27,480.82,510.27,480.82Z" transform="translate(-447.61 -323)"/><path class="cls-2" d="M704.76,481.26s20.61,34.61,0,63.65c0,0,63.33-13.58,63.74-55.54Z" transform="translate(-447.61 -323)"/><path class="cls-3" d="M704.76,481.26s20.61,34.61,0,63.65c0,0,63.33-13.58,63.74-55.54Z" transform="translate(-447.61 -323)"/><ellipse class="cls-2" cx="308.22" cy="92.41" rx="129.17" ry="92.41"/><path class="cls-3" d="M884.63,408.78c-4.28,39.7-50.63,71-107.22,71-59.41,0-107.58-34.45-107.58-77s48.17-77,107.58-77c4.47,0,8.87.22,13.2.6A177.75,177.75,0,0,0,755.83,323c-71.34,0-129.17,41.37-129.17,92.41s57.83,92.41,129.17,92.41S885,466.45,885,415.41A66.28,66.28,0,0,0,884.63,408.78Z" transform="translate(-447.61 -323)"/><path class="cls-5" d="M843.2,387.74c0,19-29.85,34.39-66.68,34.39s-66.67-15.39-66.67-34.39,29.86-34.39,66.67-34.39S843.2,368.75,843.2,387.74Z" transform="translate(-447.61 -323)"/><circle class="cls-6" cx="255.55" cy="92.41" r="14.33"/><path class="cls-7" d="M705.9,401.35a14.49,14.49,0,0,0-2.75-.27,14.33,14.33,0,1,0,6.7,27C700.78,422.74,699.47,409.1,705.9,401.35Z" transform="translate(-447.61 -323)"/><path class="cls-6" d="M770.15,415.41a14.33,14.33,0,1,1-14.33-14.33A14.33,14.33,0,0,1,770.15,415.41Z" transform="translate(-447.61 -323)"/><path class="cls-7" d="M758.58,401.35a14.68,14.68,0,0,0-2.76-.27,14.33,14.33,0,1,0,6.71,27C753.45,422.74,752.14,409.1,758.58,401.35Z" transform="translate(-447.61 -323)"/><path class="cls-6" d="M822.83,415.41a14.33,14.33,0,1,1-14.33-14.33A14.33,14.33,0,0,1,822.83,415.41Z" transform="translate(-447.61 -323)"/><path class="cls-7" d="M811.25,401.35a14.65,14.65,0,0,0-2.75-.27,14.33,14.33,0,1,0,6.7,27C806.12,422.74,804.81,409.1,811.25,401.35Z" transform="translate(-447.61 -323)"/><path class="cls-8" d="M903.52,544.6h0c8.62-27.86-10.85-61.51-45.94-80.63l-.63-.34q-2-1.08-4.11-2.1l-1.16-.57c-1.63-.77-3.28-1.53-5-2.23-43.73-18.44-89.88-8-103.07,23.28-10.39,24.63,2.76,54.84,30.16,75.57-1.62,8.16-5.75,17.81-15.74,24,0,0,29.69,5.62,45.85-7.6,42.22,15.65,85.43,4.88,98.11-25.23.32-.76.61-1.53.88-2.3.22-.61.42-1.22.6-1.84Z" transform="translate(-447.61 -323)"/><path class="cls-9" d="M794.88,543.79s3.7,26.54-16.45,39c0,0,42.34,8,53.43-17.58Z" transform="translate(-447.61 -323)"/><path class="cls-3" d="M794.88,543.79s3.7,26.54-16.45,39c0,0,42.34,8,53.43-17.58Z" transform="translate(-447.61 -323)"/><path class="cls-9" d="M922.39,550c-13.18,31.29-59.33,41.71-103.06,23.28s-68.51-58.74-55.32-90S823.34,441.52,867.08,460,935.58,518.7,922.39,550Z" transform="translate(-447.61 -323)"/><path class="cls-3" d="M923.89,545.83c-12.89,23.23-49.38,30.42-84.07,15.8-36.43-15.35-57.06-48.92-46.08-75s49.42-34.74,85.85-19.39c2.74,1.15,5.38,2.42,7.93,3.78A118.1,118.1,0,0,0,867.08,460c-43.74-18.43-89.88-8-103.07,23.29s11.58,71.6,55.32,90,89.88,8,103.06-23.28C923,548.62,923.45,547.23,923.89,545.83Z" transform="translate(-447.61 -323)"/><path class="cls-5" d="M903.92,522.23c-4.9,11.64-27.19,13.37-49.76,3.85s-36.9-26.67-32-38.31,27.18-13.37,49.76-3.86S908.83,510.58,903.92,522.23Z" transform="translate(-447.61 -323)"/><path class="cls-6" d="M817.69,516.31a9.53,9.53,0,1,1-9.41-9.65A9.53,9.53,0,0,1,817.69,516.31Z" transform="translate(-447.61 -323)"/><path class="cls-7" d="M810.1,506.86a9.94,9.94,0,0,0-1.82-.2,9.54,9.54,0,1,0,4.24,18C806.52,521.05,805.75,512,810.1,506.86Z" transform="translate(-447.61 -323)"/><path class="cls-6" d="M852.74,516.72a9.54,9.54,0,1,1-9.42-9.64A9.52,9.52,0,0,1,852.74,516.72Z" transform="translate(-447.61 -323)"/><path class="cls-7" d="M845.15,507.28a10.15,10.15,0,0,0-1.83-.2,9.53,9.53,0,1,0,4.24,18C841.56,521.47,840.8,512.38,845.15,507.28Z" transform="translate(-447.61 -323)"/><path class="cls-6" d="M887.78,517.14a9.54,9.54,0,1,1-9.42-9.64A9.54,9.54,0,0,1,887.78,517.14Z" transform="translate(-447.61 -323)"/><path class="cls-7" d="M880.18,507.7a8.32,8.32,0,0,0-1.82-.2,9.53,9.53,0,1,0,4.24,18C876.6,521.88,875.84,512.8,880.18,507.7Z" transform="translate(-447.61 -323)"/></g></g></svg>