<svg xmlns="http://www.w3.org/2000/svg" viewBox="0 0 643.41 676.82"><defs><style>.cls-1,.cls-10,.cls-11,.cls-12,.cls-13,.cls-14,.cls-15,.cls-16,.cls-17,.cls-18,.cls-19,.cls-2,.cls-20,.cls-21,.cls-22,.cls-23,.cls-24,.cls-25,.cls-26,.cls-27,.cls-28,.cls-29,.cls-3,.cls-30,.cls-31,.cls-32,.cls-33,.cls-34,.cls-35,.cls-36,.cls-37,.cls-38,.cls-39,.cls-4,.cls-40,.cls-41,.cls-42,.cls-5,.cls-6,.cls-7,.cls-8,.cls-9{fill:#221f1f;}.cls-1{opacity:0;}.cls-2{opacity:0.02;}.cls-3{opacity:0.05;}.cls-4{opacity:0.07;}.cls-5{opacity:0.1;}.cls-6{opacity:0.12;}.cls-7{opacity:0.15;}.cls-8{opacity:0.17;}.cls-9{opacity:0.2;}.cls-10{opacity:0.22;}.cls-11{opacity:0.24;}.cls-12{opacity:0.27;}.cls-13{opacity:0.29;}.cls-14{opacity:0.32;}.cls-15{opacity:0.34;}.cls-16{opacity:0.37;}.cls-17{opacity:0.39;}.cls-18{opacity:0.41;}.cls-19{opacity:0.44;}.cls-20{opacity:0.46;}.cls-21{opacity:0.49;}.cls-22{opacity:0.51;}.cls-23{opacity:0.54;}.cls-24{opacity:0.56;}.cls-25{opacity:0.59;}.cls-26{opacity:0.61;}.cls-27{opacity:0.63;}.cls-28{opacity:0.66;}.cls-29{opacity:0.68;}.cls-30{opacity:0.71;}.cls-31{opacity:0.73;}.cls-32{opacity:0.76;}.cls-33{opacity:0.78;}.cls-34{opacity:0.8;}.cls-35{opacity:0.83;}.cls-36{opacity:0.85;}.cls-37{opacity:0.88;}.cls-38{opacity:0.9;}.cls-39{opacity:0.93;}.cls-40{opacity:0.95;}.cls-41{opacity:0.98;}.cls-43{fill:#f0f1f1;}.cls-44{fill:#403f41;}.cls-45{fill:#914e93;}.cls-46{fill:#bbbdbf;}.cls-47{fill:#29a9e0;}.cls-48{fill:#f69322;}.cls-49{fill:#d34040;}.cls-50{fill:#929597;}.cls-51{fill:#fff;opacity:0.3;}</style></defs><title>DEVICES</title><g id="Icon"><path class="cls-1" d="M935,887.27c0,10.26-69.93,18.59-156.21,18.59s-156.22-8.33-156.22-18.59,69.94-18.6,156.22-18.6S935,877,935,887.27Z" transform="translate(-291.59 -229.04)"/><path class="cls-2" d="M931.79,887.27c0,10.05-68.5,18.2-153,18.2s-153-8.15-153-18.2,68.5-18.21,153-18.21S931.79,877.21,931.79,887.27Z" transform="translate(-291.59 -229.04)"/><path class="cls-3" d="M928.58,887.27c0,9.84-67.06,17.82-149.79,17.82S629,897.11,629,887.27s67.06-17.83,149.79-17.83S928.58,877.43,928.58,887.27Z" transform="translate(-291.59 -229.04)"/><path class="cls-4" d="M925.37,887.27c0,9.63-65.62,17.44-146.58,17.44s-146.58-7.81-146.58-17.44,65.62-17.45,146.58-17.45S925.37,877.64,925.37,887.27Z" transform="translate(-291.59 -229.04)"/><path class="cls-5" d="M922.16,887.27c0,9.42-64.19,17.06-143.37,17.06s-143.37-7.64-143.37-17.06S699.6,870.2,778.79,870.2,922.16,877.85,922.16,887.27Z" transform="translate(-291.59 -229.04)"/><path class="cls-6" d="M919,887.27c0,9.2-62.75,16.68-140.16,16.68s-140.16-7.48-140.16-16.68,62.75-16.68,140.16-16.68S919,878.06,919,887.27Z" transform="translate(-291.59 -229.04)"/><path class="cls-7" d="M915.73,887.27c0,9-61.3,16.29-136.94,16.29s-136.95-7.3-136.95-16.29S703.15,871,778.79,871,915.73,878.27,915.73,887.27Z" transform="translate(-291.59 -229.04)"/><path class="cls-8" d="M912.52,887.27c0,8.78-59.87,15.91-133.73,15.91s-133.74-7.13-133.74-15.91,59.87-15.92,133.74-15.92S912.52,878.48,912.52,887.27Z" transform="translate(-291.59 -229.04)"/><path class="cls-9" d="M909.31,887.27c0,8.57-58.43,15.53-130.52,15.53s-130.53-7-130.53-15.53,58.44-15.54,130.53-15.54S909.31,878.69,909.31,887.27Z" transform="translate(-291.59 -229.04)"/><path class="cls-10" d="M906.1,887.27c0,8.36-57,15.15-127.31,15.15s-127.32-6.79-127.32-15.15,57-15.16,127.32-15.16S906.1,878.9,906.1,887.27Z" transform="translate(-291.59 -229.04)"/><ellipse class="cls-11" cx="487.2" cy="658.23" rx="124.1" ry="14.77"/><ellipse class="cls-12" cx="487.2" cy="658.23" rx="120.89" ry="14.39"/><path class="cls-13" d="M896.47,887.27c0,7.73-52.69,14-117.68,14s-117.68-6.27-117.68-14,52.68-14,117.68-14S896.47,879.54,896.47,887.27Z" transform="translate(-291.59 -229.04)"/><path class="cls-14" d="M893.26,887.27c0,7.52-51.25,13.62-114.47,13.62s-114.47-6.1-114.47-13.62,51.24-13.63,114.47-13.63S893.26,879.75,893.26,887.27Z" transform="translate(-291.59 -229.04)"/><path class="cls-15" d="M890.05,887.27c0,7.31-49.81,13.24-111.26,13.24s-111.26-5.93-111.26-13.24S717.34,874,778.79,874,890.05,880,890.05,887.27Z" transform="translate(-291.59 -229.04)"/><path class="cls-16" d="M886.84,887.27c0,7.1-48.38,12.85-108.05,12.85s-108-5.75-108-12.85,48.37-12.86,108-12.86S886.84,880.17,886.84,887.27Z" transform="translate(-291.59 -229.04)"/><path class="cls-17" d="M883.62,887.27c0,6.89-46.93,12.47-104.83,12.47S674,894.16,674,887.27s46.93-12.48,104.84-12.48S883.62,880.38,883.62,887.27Z" transform="translate(-291.59 -229.04)"/><path class="cls-18" d="M880.41,887.27c0,6.68-45.49,12.09-101.62,12.09S677.16,894,677.16,887.27s45.5-12.1,101.63-12.1S880.41,880.59,880.41,887.27Z" transform="translate(-291.59 -229.04)"/><path class="cls-19" d="M877.2,887.27c0,6.46-44.06,11.71-98.41,11.71s-98.42-5.25-98.42-11.71,44.06-11.72,98.42-11.72S877.2,880.8,877.2,887.27Z" transform="translate(-291.59 -229.04)"/><path class="cls-20" d="M874,887.27c0,6.25-42.62,11.33-95.2,11.33s-95.21-5.08-95.21-11.33,42.62-11.33,95.21-11.33S874,881,874,887.27Z" transform="translate(-291.59 -229.04)"/><path class="cls-21" d="M870.78,887.27c0,6-41.19,10.94-92,10.94s-92-4.9-92-10.94,41.19-10.95,92-10.95S870.78,881.22,870.78,887.27Z" transform="translate(-291.59 -229.04)"/><path class="cls-22" d="M867.57,887.27c0,5.83-39.75,10.56-88.78,10.56S690,893.1,690,887.27s39.75-10.57,88.79-10.57S867.57,881.43,867.57,887.27Z" transform="translate(-291.59 -229.04)"/><path class="cls-23" d="M864.36,887.27c0,5.62-38.31,10.18-85.57,10.18s-85.57-4.56-85.57-10.18,38.3-10.19,85.57-10.19S864.36,881.64,864.36,887.27Z" transform="translate(-291.59 -229.04)"/><path class="cls-24" d="M861.15,887.27c0,5.41-36.88,9.8-82.36,9.8s-82.36-4.39-82.36-9.8,36.87-9.8,82.36-9.8S861.15,881.86,861.15,887.27Z" transform="translate(-291.59 -229.04)"/><path class="cls-25" d="M857.94,887.27c0,5.2-35.44,9.42-79.15,9.42s-79.15-4.22-79.15-9.42,35.43-9.42,79.15-9.42S857.94,882.07,857.94,887.27Z" transform="translate(-291.59 -229.04)"/><path class="cls-26" d="M854.73,887.27c0,5-34,9-75.94,9s-75.94-4-75.94-9,34-9,75.94-9S854.73,882.28,854.73,887.27Z" transform="translate(-291.59 -229.04)"/><path class="cls-27" d="M851.51,887.27c0,4.78-32.56,8.65-72.72,8.65s-72.73-3.87-72.73-8.65,32.56-8.66,72.73-8.66S851.51,882.49,851.51,887.27Z" transform="translate(-291.59 -229.04)"/><path class="cls-28" d="M848.3,887.27c0,4.57-31.12,8.27-69.51,8.27s-69.52-3.7-69.52-8.27S740.39,879,778.79,879,848.3,882.7,848.3,887.27Z" transform="translate(-291.59 -229.04)"/><path class="cls-29" d="M845.09,887.27c0,4.36-29.68,7.89-66.3,7.89s-66.31-3.53-66.31-7.89,29.68-7.89,66.31-7.89S845.09,882.91,845.09,887.27Z" transform="translate(-291.59 -229.04)"/><path class="cls-30" d="M841.88,887.27c0,4.15-28.25,7.51-63.09,7.51s-63.1-3.36-63.1-7.51,28.25-7.51,63.1-7.51S841.88,883.12,841.88,887.27Z" transform="translate(-291.59 -229.04)"/><path class="cls-31" d="M838.67,887.27c0,3.94-26.81,7.12-59.88,7.12s-59.89-3.18-59.89-7.12,26.81-7.13,59.89-7.13S838.67,883.33,838.67,887.27Z" transform="translate(-291.59 -229.04)"/><path class="cls-32" d="M835.46,887.27c0,3.73-25.37,6.74-56.67,6.74s-56.68-3-56.68-6.74,25.37-6.75,56.68-6.75S835.46,883.54,835.46,887.27Z" transform="translate(-291.59 -229.04)"/><path class="cls-33" d="M832.25,887.27c0,3.51-23.94,6.36-53.46,6.36s-53.46-2.85-53.46-6.36,23.93-6.36,53.46-6.36S832.25,883.75,832.25,887.27Z" transform="translate(-291.59 -229.04)"/><path class="cls-34" d="M829,887.27c0,3.3-22.5,6-50.25,6s-50.25-2.68-50.25-6,22.49-6,50.25-6S829,884,829,887.27Z" transform="translate(-291.59 -229.04)"/><path class="cls-35" d="M825.83,887.27c0,3.09-21.07,5.6-47,5.6s-47-2.51-47-5.6,21-5.6,47-5.6S825.83,884.18,825.83,887.27Z" transform="translate(-291.59 -229.04)"/><path class="cls-36" d="M822.62,887.27c0,2.88-19.63,5.21-43.83,5.21S735,890.15,735,887.27s19.62-5.22,43.83-5.22S822.62,884.39,822.62,887.27Z" transform="translate(-291.59 -229.04)"/><path class="cls-37" d="M819.4,887.27c0,2.67-18.18,4.83-40.61,4.83s-40.62-2.16-40.62-4.83,18.18-4.83,40.62-4.83S819.4,884.6,819.4,887.27Z" transform="translate(-291.59 -229.04)"/><path class="cls-38" d="M816.19,887.27c0,2.46-16.75,4.45-37.4,4.45s-37.41-2-37.41-4.45,16.75-4.45,37.41-4.45S816.19,884.81,816.19,887.27Z" transform="translate(-291.59 -229.04)"/><path class="cls-39" d="M813,887.27c0,2.25-15.31,4.07-34.19,4.07s-34.2-1.82-34.2-4.07,15.31-4.07,34.2-4.07S813,885,813,887.27Z" transform="translate(-291.59 -229.04)"/><path class="cls-40" d="M809.77,887.27c0,2-13.87,3.68-31,3.68s-31-1.64-31-3.68,13.87-3.69,31-3.69S809.77,885.23,809.77,887.27Z" transform="translate(-291.59 -229.04)"/><path class="cls-41" d="M806.56,887.27c0,1.83-12.44,3.3-27.77,3.3S751,889.1,751,887.27,763.45,884,778.79,884,806.56,885.44,806.56,887.27Z" transform="translate(-291.59 -229.04)"/><path class="cls-42" d="M803.35,887.27c0,1.62-11,2.92-24.56,2.92s-24.56-1.3-24.56-2.92,11-2.92,24.56-2.92S803.35,885.65,803.35,887.27Z" transform="translate(-291.59 -229.04)"/><path class="cls-1" d="M820.14,781.14c0,14.89-118.31,27-264.28,27s-264.27-12.07-264.27-27S409.9,754.2,555.86,754.2,820.14,766.27,820.14,781.14Z" transform="translate(-291.59 -229.04)"/><path class="cls-2" d="M814.7,781.14c0,14.59-115.87,26.41-258.84,26.41S297,795.73,297,781.14s115.88-26.39,258.84-26.39S814.7,766.58,814.7,781.14Z" transform="translate(-291.59 -229.04)"/><path class="cls-3" d="M809.27,781.14c0,14.28-113.44,25.85-253.41,25.85s-253.41-11.57-253.41-25.85S415.9,755.3,555.86,755.3,809.27,766.88,809.27,781.14Z" transform="translate(-291.59 -229.04)"/><path class="cls-4" d="M803.84,781.14c0,14-111,25.3-248,25.3s-248-11.32-248-25.3,111-25.28,248-25.28S803.84,767.19,803.84,781.14Z" transform="translate(-291.59 -229.04)"/><path class="cls-5" d="M798.41,781.14c0,13.67-108.58,24.75-242.55,24.75s-242.54-11.08-242.54-24.75,108.58-24.73,242.54-24.73S798.41,767.49,798.41,781.14Z" transform="translate(-291.59 -229.04)"/><path class="cls-6" d="M793,781.14c0,13.36-106.15,24.19-237.12,24.19S318.75,794.5,318.75,781.14,424.9,757,555.86,757,793,767.8,793,781.14Z" transform="translate(-291.59 -229.04)"/><path class="cls-7" d="M787.54,781.14c0,13.06-103.72,23.64-231.68,23.64S324.18,794.2,324.18,781.14s103.72-23.62,231.68-23.62S787.54,768.11,787.54,781.14Z" transform="translate(-291.59 -229.04)"/><path class="cls-8" d="M782.11,781.14c0,12.75-101.29,23.08-226.25,23.08s-226.25-10.33-226.25-23.08,101.29-23.07,226.25-23.07S782.11,768.41,782.11,781.14Z" transform="translate(-291.59 -229.04)"/><path class="cls-9" d="M776.68,781.14c0,12.45-98.86,22.53-220.82,22.53S335,793.59,335,781.14s98.86-22.51,220.82-22.51S776.68,768.72,776.68,781.14Z" transform="translate(-291.59 -229.04)"/><path class="cls-10" d="M771.25,781.14c0,12.14-96.43,22-215.39,22s-215.38-9.84-215.38-22,96.42-22,215.38-22S771.25,769,771.25,781.14Z" transform="translate(-291.59 -229.04)"/><path class="cls-11" d="M765.81,781.14c0,11.84-94,21.42-209.95,21.42S345.91,793,345.91,781.14s94-21.4,210-21.4S765.81,769.33,765.81,781.14Z" transform="translate(-291.59 -229.04)"/><path class="cls-12" d="M760.38,781.14c0,11.53-91.56,20.87-204.52,20.87s-204.52-9.34-204.52-20.87,91.56-20.85,204.52-20.85S760.38,769.64,760.38,781.14Z" transform="translate(-291.59 -229.04)"/><path class="cls-13" d="M755,781.14c0,11.22-89.13,20.31-199.09,20.31s-199.09-9.09-199.09-20.31,89.13-20.3,199.09-20.3S755,769.94,755,781.14Z" transform="translate(-291.59 -229.04)"/><path class="cls-14" d="M749.52,781.14c0,10.92-86.7,19.76-193.66,19.76s-193.65-8.84-193.65-19.76S448.9,761.4,555.86,761.4,749.52,770.25,749.52,781.14Z" transform="translate(-291.59 -229.04)"/><path class="cls-15" d="M744.09,781.14c0,10.61-84.27,19.21-188.23,19.21s-188.22-8.6-188.22-19.21S451.9,762,555.86,762,744.09,770.55,744.09,781.14Z" transform="translate(-291.59 -229.04)"/><path class="cls-16" d="M738.65,781.14c0,10.31-81.83,18.65-182.79,18.65s-182.79-8.34-182.79-18.65,81.83-18.63,182.79-18.63S738.65,770.86,738.65,781.14Z" transform="translate(-291.59 -229.04)"/><path class="cls-17" d="M733.22,781.14c0,10-79.4,18.1-177.36,18.1s-177.36-8.1-177.36-18.1,79.4-18.08,177.36-18.08S733.22,771.16,733.22,781.14Z" transform="translate(-291.59 -229.04)"/><path class="cls-18" d="M727.79,781.14c0,9.7-77,17.54-171.93,17.54s-171.92-7.84-171.92-17.54,77-17.52,171.92-17.52S727.79,771.47,727.79,781.14Z" transform="translate(-291.59 -229.04)"/><path class="cls-19" d="M722.36,781.14c0,9.39-74.54,17-166.5,17s-166.49-7.6-166.49-17,74.53-17,166.49-17S722.36,771.78,722.36,781.14Z" transform="translate(-291.59 -229.04)"/><path class="cls-20" d="M716.93,781.14c0,9.09-72.11,16.44-161.07,16.44S394.8,790.23,394.8,781.14s72.1-16.42,161.06-16.42S716.93,772.08,716.93,781.14Z" transform="translate(-291.59 -229.04)"/><path class="cls-21" d="M711.49,781.14c0,8.78-69.67,15.88-155.63,15.88s-155.63-7.1-155.63-15.88,69.67-15.86,155.63-15.86S711.49,772.39,711.49,781.14Z" transform="translate(-291.59 -229.04)"/><path class="cls-22" d="M706.06,781.14c0,8.47-67.24,15.33-150.2,15.33s-150.2-6.86-150.2-15.33,67.24-15.31,150.2-15.31S706.06,772.69,706.06,781.14Z" transform="translate(-291.59 -229.04)"/><path class="cls-23" d="M700.63,781.14c0,8.17-64.81,14.77-144.77,14.77s-144.76-6.6-144.76-14.77,64.8-14.75,144.76-14.75S700.63,773,700.63,781.14Z" transform="translate(-291.59 -229.04)"/><path class="cls-24" d="M695.2,781.14c0,7.86-62.38,14.22-139.34,14.22S416.53,789,416.53,781.14s62.37-14.2,139.33-14.2S695.2,773.31,695.2,781.14Z" transform="translate(-291.59 -229.04)"/><path class="cls-25" d="M689.76,781.14c0,7.56-59.94,13.67-133.9,13.67S422,788.7,422,781.14s59.94-13.65,133.9-13.65S689.76,773.61,689.76,781.14Z" transform="translate(-291.59 -229.04)"/><path class="cls-26" d="M684.33,781.14c0,7.25-57.52,13.11-128.47,13.11s-128.47-5.86-128.47-13.11,57.51-13.09,128.47-13.09S684.33,773.92,684.33,781.14Z" transform="translate(-291.59 -229.04)"/><path class="cls-27" d="M678.9,781.14c0,7-55.09,12.56-123,12.56s-123-5.61-123-12.56,55.07-12.54,123-12.54S678.9,774.22,678.9,781.14Z" transform="translate(-291.59 -229.04)"/><path class="cls-28" d="M673.47,781.14c0,6.64-52.66,12-117.61,12s-117.6-5.36-117.6-12,52.64-12,117.6-12S673.47,774.53,673.47,781.14Z" transform="translate(-291.59 -229.04)"/><path class="cls-29" d="M668,781.14c0,6.33-50.23,11.45-112.18,11.45s-112.17-5.12-112.17-11.45,50.22-11.43,112.17-11.43S668,774.83,668,781.14Z" transform="translate(-291.59 -229.04)"/><path class="cls-30" d="M662.6,781.14c0,6-47.79,10.9-106.74,10.9s-106.74-4.87-106.74-10.9,47.79-10.87,106.74-10.87S662.6,775.14,662.6,781.14Z" transform="translate(-291.59 -229.04)"/><path class="cls-31" d="M657.17,781.14c0,5.72-45.36,10.34-101.31,10.34s-101.3-4.62-101.3-10.34,45.35-10.32,101.3-10.32S657.17,775.45,657.17,781.14Z" transform="translate(-291.59 -229.04)"/><path class="cls-32" d="M651.74,781.14c0,5.42-42.93,9.79-95.88,9.79S460,786.56,460,781.14s42.92-9.77,95.87-9.77S651.74,775.75,651.74,781.14Z" transform="translate(-291.59 -229.04)"/><path class="cls-33" d="M646.31,781.14c0,5.11-40.5,9.23-90.45,9.23s-90.44-4.12-90.44-9.23,40.49-9.21,90.44-9.21S646.31,776.06,646.31,781.14Z" transform="translate(-291.59 -229.04)"/><path class="cls-34" d="M640.87,781.14c0,4.81-38.06,8.68-85,8.68s-85-3.87-85-8.68,38.06-8.66,85-8.66S640.87,776.36,640.87,781.14Z" transform="translate(-291.59 -229.04)"/><path class="cls-35" d="M635.44,781.14c0,4.5-35.63,8.13-79.58,8.13s-79.58-3.63-79.58-8.13,35.63-8.1,79.58-8.1S635.44,776.67,635.44,781.14Z" transform="translate(-291.59 -229.04)"/><path class="cls-36" d="M630,781.14c0,4.19-33.2,7.57-74.15,7.57s-74.14-3.38-74.14-7.57,33.19-7.55,74.14-7.55S630,777,630,781.14Z" transform="translate(-291.59 -229.04)"/><path class="cls-37" d="M624.58,781.14c0,3.89-30.77,7-68.72,7s-68.71-3.13-68.71-7,30.76-7,68.71-7S624.58,777.28,624.58,781.14Z" transform="translate(-291.59 -229.04)"/><path class="cls-38" d="M619.15,781.14c0,3.58-28.34,6.46-63.29,6.46s-63.28-2.88-63.28-6.46,28.33-6.44,63.28-6.44S619.15,777.59,619.15,781.14Z" transform="translate(-291.59 -229.04)"/><path class="cls-39" d="M613.71,781.14c0,3.28-25.9,5.91-57.85,5.91S498,784.42,498,781.14s25.9-5.89,57.85-5.89S613.71,777.89,613.71,781.14Z" transform="translate(-291.59 -229.04)"/><path class="cls-40" d="M608.28,781.14c0,3-23.47,5.36-52.42,5.36s-52.41-2.39-52.41-5.36,23.46-5.33,52.41-5.33S608.28,778.2,608.28,781.14Z" transform="translate(-291.59 -229.04)"/><path class="cls-41" d="M602.85,781.14c0,2.67-21,4.8-47,4.8s-47-2.13-47-4.8,21-4.78,47-4.78S602.85,778.5,602.85,781.14Z" transform="translate(-291.59 -229.04)"/><path class="cls-42" d="M597.42,781.14c0,2.36-18.61,4.25-41.56,4.25s-41.55-1.89-41.55-4.25,18.6-4.23,41.55-4.23S597.42,778.81,597.42,781.14Z" transform="translate(-291.59 -229.04)"/><path class="cls-42" d="M390.2,787.17A25.22,25.22,0,0,1,365,762V254.25A25.22,25.22,0,0,1,390.2,229H729.74A25.22,25.22,0,0,1,755,254.25V762a25.22,25.22,0,0,1-25.22,25.22Z" transform="translate(-291.59 -229.04)"/><rect class="cls-43" x="99.97" y="54.3" width="336.83" height="449.52"/><path class="cls-44" d="M586.26,761.45a9.24,9.24,0,0,1-9.24,9.24H548a9.24,9.24,0,0,1-9.24-9.24h0a9.24,9.24,0,0,1,9.24-9.24h29a9.24,9.24,0,0,1,9.24,9.24Z" transform="translate(-291.59 -229.04)"/><rect class="cls-45" x="117.77" y="79.11" width="104.26" height="44.36"/><rect class="cls-46" x="240.48" y="79.11" width="178.41" height="44.36"/><rect class="cls-47" x="117.77" y="147.32" width="301.11" height="124.64"/><rect class="cls-48" x="117.77" y="295.75" width="136.96" height="83.94"/><rect class="cls-49" x="280.06" y="295.75" width="136.96" height="83.94"/><rect class="cls-50" x="117.77" y="400.23" width="136.96" height="11.92"/><rect class="cls-46" x="117.77" y="424.55" width="136.96" height="11.92"/><rect class="cls-46" x="117.77" y="448.88" width="136.96" height="11.92"/><rect class="cls-46" x="117.77" y="473.2" width="136.96" height="11.92"/><rect class="cls-50" x="280.06" y="400.23" width="136.96" height="11.92"/><rect class="cls-46" x="280.06" y="424.55" width="136.96" height="11.92"/><rect class="cls-46" x="280.06" y="448.88" width="136.96" height="11.92"/><rect class="cls-46" x="280.06" y="473.2" width="136.96" height="11.92"/><path class="cls-51" d="M717.35,787.16h12.39A25.22,25.22,0,0,0,755,762V254.25A25.21,25.21,0,0,0,729.74,229H390.2a25,25,0,0,0-8.81,1.61Z" transform="translate(-291.59 -229.04)"/><path class="cls-42" d="M893.29,867.61A22.31,22.31,0,0,1,871,889.92H689.23a22.3,22.3,0,0,1-22.31-22.31V520.07a22.31,22.31,0,0,1,22.31-22.31H871a22.32,22.32,0,0,1,22.31,22.31Z" transform="translate(-291.59 -229.04)"/><rect class="cls-43" x="389.28" y="318.02" width="198.48" height="287.87"/><path class="cls-44" d="M788.44,525a8.34,8.34,0,1,1-8.34-8.34A8.33,8.33,0,0,1,788.44,525Z" transform="translate(-291.59 -229.04)"/><path class="cls-44" d="M803.71,862.69a9.18,9.18,0,0,1-9.18,9.18H765.68a9.18,9.18,0,0,1-9.18-9.18h0a9.17,9.17,0,0,1,9.18-9.17h28.85a9.17,9.17,0,0,1,9.18,9.17Z" transform="translate(-291.59 -229.04)"/><rect class="cls-45" x="399.25" y="327.17" width="179.1" height="28.93"/><rect class="cls-46" x="399.25" y="365.8" width="179.09" height="32.02"/><rect class="cls-47" x="399.25" y="409.64" width="179.09" height="72.28"/><rect class="cls-48" x="399.25" y="493.37" width="179.09" height="99.84"/><path class="cls-51" d="M890,877.82a22.17,22.17,0,0,0,2.49-10.21V520.07a22.31,22.31,0,0,0-22.31-22.31H688.43a22.26,22.26,0,0,0-20.14,12.78Z" transform="translate(-291.59 -229.04)"/></g></svg>