<svg id="Layer_1" data-name="Layer 1" xmlns="http://www.w3.org/2000/svg" viewBox="0 0 457.36 433.06"><defs><style>.cls-1{fill:#e3c08a;}.cls-2{fill:#c8a679;}.cls-3{fill:#f3f5fa;}.cls-4{fill:#c7c8cc;}.cls-5{fill:#c2a077;}</style></defs><title>ecommerce-s</title><rect class="cls-1" x="0.04" y="60.09" width="457.27" height="372.97"/><polygon class="cls-2" points="427.89 0.7 427.45 0.7 427.23 0 228.68 0.35 30.13 0 29.91 0.7 29.47 0.7 0 60 457.36 60 427.89 0.7"/><rect class="cls-3" x="196.72" y="60.09" width="63.92" height="154.63"/><polygon class="cls-4" points="251.85 0.33 247.71 0.33 209.65 0.33 205.52 0.33 196.72 60 260.64 60 251.85 0.33"/><rect class="cls-5" x="324.21" y="393.65" width="106.35" height="20.95"/><polygon class="cls-5" points="371.23 321.85 354.16 304.52 336.83 321.85 342.13 321.85 342.13 387.67 365.93 387.67 365.93 321.85 371.23 321.85"/><polygon class="cls-5" points="417.95 338.15 405.11 325.11 392.07 338.15 396.06 338.15 396.06 387.67 413.96 387.67 413.96 338.15 417.95 338.15"/><rect class="cls-5" x="16.25" y="89.5" width="73.05" height="13.96"/><rect class="cls-5" x="102.19" y="89.5" width="55.86" height="13.96"/><rect class="cls-5" x="16.25" y="118.56" width="40.83" height="13.97"/><rect class="cls-5" x="117.23" y="118.56" width="40.82" height="13.97"/><rect class="cls-5" x="66.74" y="118.56" width="40.82" height="13.97"/></svg>