<svg xmlns="http://www.w3.org/2000/svg" viewBox="0 0 572.69 421.9"><defs><style>.cls-1{isolation:isolate;}.cls-2{opacity:0.1;}.cls-10,.cls-11,.cls-13,.cls-3,.cls-9{fill:#eaffff;}.cls-4{fill:#b4e0ff;}.cls-5{fill:#a0cfff;}.cls-6{fill:#e3e3e3;}.cls-7{fill:#15182f;}.cls-8{fill:#ff8b00;}.cls-9{opacity:0.48;}.cls-10{opacity:0.27;}.cls-11{opacity:0.78;}.cls-12{fill:#f86f00;opacity:0.13;mix-blend-mode:multiply;}.cls-13{font-size:150.44px;font-family:FredokaOne-Regular, FredokaOne Regular;letter-spacing:-0.16em;}.cls-14{letter-spacing:-0.03em;}.cls-15{letter-spacing:-0.04em;}.cls-16{fill:#f8575d;}.cls-17{fill:#ffb853;}.cls-18{fill:#00a886;}.cls-19{fill:#00a4e9;}.cls-19,.cls-20{opacity:0.44;}.cls-20{fill:#aaecff;}.cls-21{fill:#152354;}.cls-22{fill:#0060c6;}.cls-23{fill:#ffdc00;}.cls-24{fill:#ffec00;}</style></defs><title>faq</title><g class="cls-1"><g id="Icon"><g class="cls-2"><path class="cls-3" d="M913.47,222.18h-1.32L664.25,470.09h18.9C735,418.26,842.66,310.57,913.47,239.77Z" transform="translate(-376.16 -222)"/><polygon class="cls-3" points="489.12 0.18 426.56 0.18 178.66 248.09 241.21 248.09 489.12 0.18"/><polygon class="cls-3" points="381.32 0.18 201.28 0.18 35.82 165.64 35.82 248.09 133.42 248.09 381.32 0.18"/></g><polygon class="cls-4" points="338.13 414.88 234.57 414.88 246.59 350.06 327.82 350.06 338.13 414.88"/><path class="cls-5" d="M666.42,581.1,620.71,583l-2.87,15.49c10.52-3.6,45.65-13.17,90.42.39l-2.81-17.65Z" transform="translate(-376.16 -222)"/><path class="cls-6" d="M0,0H572.69a0,0,0,0,1,0,0V353.53a16.23,16.23,0,0,1-16.23,16.23H16.23A16.23,16.23,0,0,1,0,353.53V0A0,0,0,0,1,0,0Z"/><rect class="cls-7" width="572.69" height="299.44"/><rect class="cls-8" x="19.92" y="17.76" width="533.86" height="263.91"/><rect class="cls-9" x="105.77" y="58.47" width="362.15" height="195.76"/><rect class="cls-9" x="105.77" y="58.47" width="362.15" height="25.84"/><rect class="cls-9" x="105.77" y="58.47" width="26.87" height="25.84"/><rect class="cls-10" x="159.51" y="58.47" width="26.87" height="25.84"/><rect class="cls-11" x="132.64" y="58.47" width="26.87" height="25.84"/><path class="cls-6" d="M216,407.84H356.66a6.81,6.81,0,0,1,6.81,6.81v7.26a0,0,0,0,1,0,0H209.23a0,0,0,0,1,0,0v-7.26A6.81,6.81,0,0,1,216,407.84Z"/><circle class="cls-7" cx="286.35" cy="329.27" r="17.94"/><path class="cls-12" d="M659,339.86c-2.53-5-6.42-7.47-11.67-7.34a13.08,13.08,0,0,0-6.93,2.23,13.3,13.3,0,0,0-4.88,5.55q-19.69,41.38-39.35,83.54-2.48,5.13-2.48,7.61c0,3.49,2.82,6.37,8.45,8.69a18.81,18.81,0,0,0,8.3,1.94,7.07,7.07,0,0,0,4.15-1.63,11.35,11.35,0,0,0,2.63-2.83c.53-.91,1.28-2.35,2.26-4.34q3.79-8.05,7.58-16.09,20.19-.9,40.4-1l7.59,15.71q1.46,2.91,2.26,4.37a8.86,8.86,0,0,0,2.63,2.79,7,7,0,0,0,4.15,1.34c2.24,0,5-.76,8.32-2.34,5.64-2.71,8.46-5.77,8.46-9.27,0-1.64-.83-4.14-2.48-7.48Q678.71,380.21,659,339.86Zm-21.44,55.38q4.8-10.14,9.62-20.22,4.89,9.84,9.78,19.74Q647.27,394.91,637.57,395.24Zm-42.41-6.55a25.64,25.64,0,0,0-.87-7.43,5.87,5.87,0,0,0-3-3.77,10.15,10.15,0,0,0-3.78-1.07,43.64,43.64,0,0,0-5.17.22q-14.33,1.28-28.63,2.94v-14.7q22.21-2.6,44.5-4.21a47.46,47.46,0,0,0,5.17-.58,13.78,13.78,0,0,0,3.86-1.57,6.68,6.68,0,0,0,3.06-4,26,26,0,0,0,.87-7.47,25,25,0,0,0-.87-7.37,5.91,5.91,0,0,0-3-3.74,10.27,10.27,0,0,0-3.78-1.14,40.82,40.82,0,0,0-5,.13q-28.68,2.08-57.26,5.77c-5.13.66-8.61,2.05-10.44,4.1s-2.76,5.55-2.75,10.5v80.92c0,1.84,0,3.22.07,4.14a12,12,0,0,0,.73,3.24,5,5,0,0,0,1.95,2.71,9.9,9.9,0,0,0,3.77,1.23,22.72,22.72,0,0,0,6.23-.1,27.52,27.52,0,0,0,7.4-1.81,7.57,7.57,0,0,0,3.92-3.52,13.37,13.37,0,0,0,1.38-3.95,44.32,44.32,0,0,0,.21-5.12V405.48q14.24-1.65,28.49-2.92c1.84-.16,3.22-.3,4.14-.43a13.9,13.9,0,0,0,3.35-1,6.88,6.88,0,0,0,3-2.21,12.37,12.37,0,0,0,1.74-3.91A23.05,23.05,0,0,0,595.16,388.69Zm220.93,41.78a12.52,12.52,0,0,0-2.25-2.86c-.72-.63-1.91-1.64-3.55-3s-4.35-3.64-7.83-6.42a53.41,53.41,0,0,0,5.37-23.31A59.76,59.76,0,0,0,792,353.43c-10.55-11.61-23-18.1-37.36-19.26a45.41,45.41,0,0,0-19.52,2.7,48.11,48.11,0,0,0-28.42,27.55,57.46,57.46,0,0,0-4.38,22.5c0,14.76,5.18,27.58,15.53,38.7A56.51,56.51,0,0,0,756,444a46.46,46.46,0,0,0,30.38-7.55c1.26.92,3,2.28,5.23,4.09s3.58,2.9,4.07,3.25c3.77,3.07,6.57,4.74,8.41,5,3,.38,6.13-1.57,9.42-5.87,2.51-3.44,3.77-6.31,3.77-8.64A7.45,7.45,0,0,0,816.09,430.47ZM773.86,412a24.88,24.88,0,0,1-18.77,6.18c-6.79-.55-13-3.67-18.56-9.41s-8.38-12.83-8.38-21.37c0-8.73,2.77-15.65,8.3-20.69s11.8-7.3,18.79-6.74c6.79.55,13,3.79,18.55,9.67s8.35,13.24,8.35,22C782.14,400.55,779.39,407.32,773.86,412Z" transform="translate(-376.16 -222)"/><text class="cls-13" transform="translate(141.01 213.49)">F<tspan class="cls-14" x="49.19" y="0">A</tspan><tspan class="cls-15" x="136.75" y="0">Q</tspan></text><circle class="cls-16" cx="119.12" cy="71.39" r="6.75"/><circle class="cls-17" cx="146.07" cy="71.39" r="6.75"/><circle class="cls-18" cx="172.94" cy="71.39" r="6.75"/><path class="cls-19" d="M727.41,471.58a63.51,63.51,0,1,0,89.81,0A63.51,63.51,0,0,0,727.41,471.58Z" transform="translate(-376.16 -222)"/><path class="cls-20" d="M737.62,481.79a21.42,21.42,0,1,0,30.29,0A21.43,21.43,0,0,0,737.62,481.79Z" transform="translate(-376.16 -222)"/><path class="cls-20" d="M790.48,519.51a10.71,10.71,0,1,0,15.14,0A10.71,10.71,0,0,0,790.48,519.51Z" transform="translate(-376.16 -222)"/><rect class="cls-21" x="826.05" y="551.3" width="18.7" height="56.55" rx="3.41" transform="translate(-541.3 538.47) rotate(-45)"/><path class="cls-22" d="M721.9,466.07a71.3,71.3,0,1,0,100.84,0A71.3,71.3,0,0,0,721.9,466.07Zm89.24,89.24a54.9,54.9,0,1,1,0-77.64A54.9,54.9,0,0,1,811.14,555.31Z" transform="translate(-376.16 -222)"/><rect class="cls-23" x="845.08" y="566.68" width="30.06" height="75.21" rx="8.21" transform="translate(-551.53 563.18) rotate(-45)"/><rect class="cls-24" x="839.86" y="587.19" width="6.87" height="18.38" rx="1.25" transform="translate(-550.87 548.97) rotate(-45)"/><rect class="cls-24" x="855.32" y="606.3" width="6.49" height="10.16" rx="1.18" transform="translate(-557 564.17) rotate(-45)"/></g></g></svg>