<svg xmlns="http://www.w3.org/2000/svg" viewBox="0 0 291.98 366.23"><defs><style>.cls-1{fill:#070707;}.cls-2{fill:#2b2b2a;}.cls-3{fill:#c6c6c6;}.cls-4{fill:#dcdcde;}.cls-5{fill:#282f89;}.cls-6{fill:#4551a3;}.cls-7{fill:#b8bcd9;}.cls-8{fill:#274c25;}.cls-9{fill:#3a6d3b;}.cls-10{fill:#c7d8d6;}.cls-11{fill:#871906;}.cls-12{fill:#af3225;}.cls-13{fill:#dab490;}</style></defs><title>folders</title><g id="object"><rect class="cls-1" x="218.6" width="7.27" height="366.23"/><rect class="cls-1" x="284.71" width="7.27" height="366.23"/><rect class="cls-2" x="225.87" width="58.85" height="366.23"/><circle class="cls-3" cx="689.3" cy="447.01" r="18.46" transform="translate(-344.28 842.86) rotate(-76.09)"/><circle class="cls-1" cx="255.29" cy="281.19" r="12.69"/><rect class="cls-4" x="232.44" y="57.57" width="45.69" height="176.32"/><rect class="cls-1" x="232.44" y="26.2" width="45.69" height="31.38"/><rect class="cls-5" x="145.73" width="7.27" height="366.23"/><rect class="cls-5" x="211.85" width="7.27" height="366.23"/><rect class="cls-6" x="153" width="58.85" height="366.23"/><circle class="cls-3" cx="616.43" cy="447.01" r="18.46" transform="translate(-569.54 400.99) rotate(-45)"/><circle class="cls-1" cx="182.42" cy="281.19" r="12.69"/><rect class="cls-7" x="159.57" y="57.57" width="45.69" height="176.32"/><rect class="cls-1" x="159.57" y="26.2" width="45.69" height="31.38"/><rect class="cls-8" x="72.87" width="7.27" height="366.23"/><rect class="cls-8" x="138.98" width="7.27" height="366.23"/><rect class="cls-9" x="80.13" width="58.85" height="366.23"/><circle class="cls-3" cx="543.57" cy="447.01" r="18.46" transform="translate(-418.51 746.41) rotate(-80.81)"/><circle class="cls-1" cx="109.56" cy="281.19" r="12.69"/><rect class="cls-10" x="86.71" y="57.57" width="45.69" height="176.32"/><rect class="cls-1" x="86.71" y="26.2" width="45.69" height="31.38"/><rect class="cls-11" width="7.27" height="366.23"/><rect class="cls-11" x="66.12" width="7.27" height="366.23"/><rect class="cls-12" x="7.27" width="58.85" height="366.23"/><circle class="cls-3" cx="470.7" cy="447.01" r="18.46" transform="translate(-503.66 640.92) rotate(-77.17)"/><circle class="cls-1" cx="36.69" cy="281.19" r="12.69"/><rect class="cls-13" x="13.84" y="57.57" width="45.69" height="176.32"/><rect class="cls-1" x="13.84" y="26.2" width="45.69" height="31.38"/></g></svg>