<svg xmlns="http://www.w3.org/2000/svg" viewBox="0 0 905.77 844.05"><defs><style>.cls-1{fill:#1eb1fa;}.cls-2{fill:#75ddff;}.cls-3{fill:#00b298;}.cls-4{fill:#fc3;}.cls-5{fill:#fff;}.cls-6{fill:#ff2b55;}</style></defs><title>language</title><g id="Icon"><path class="cls-1" d="M578.73,980.63h-.41a409.25,409.25,0,0,1-52.23-3.35,7.69,7.69,0,0,1,2-15.25,393,393,0,0,0,50.25,3.22,7.87,7.87,0,0,1,7.9,7.69A7.52,7.52,0,0,1,578.73,980.63Zm51.64-3.39a7.69,7.69,0,0,1-1-15.32A388.56,388.56,0,0,0,679.16,952a7.69,7.69,0,0,1,4,14.86,405.48,405.48,0,0,1-51.77,10.28A6.86,6.86,0,0,1,630.37,977.24ZM476.3,967.36a7.48,7.48,0,0,1-2-.26,402,402,0,0,1-50-16.9A7.69,7.69,0,1,1,430.16,936a386.05,386.05,0,0,0,48.11,16.26,7.69,7.69,0,0,1-2,15.12Zm253.87-16.88a7.69,7.69,0,0,1-3-14.79,389.41,389.41,0,0,0,45.46-22.5,7.69,7.69,0,1,1,7.71,13.3,404.65,404.65,0,0,1-47.27,23.4A7.64,7.64,0,0,1,730.17,950.48ZM380.76,927.9a7.55,7.55,0,0,1-3.84-1,404.78,404.78,0,0,1-43.9-29.3,7.69,7.69,0,1,1,9.35-12.2,389.79,389.79,0,0,0,42.24,28.19,7.69,7.69,0,0,1-3.85,14.35Zm438.76-29.18a7.68,7.68,0,0,1-4.69-13.78A391.18,391.18,0,0,0,853,851.44a7.69,7.69,0,1,1,10.88,10.87,405.69,405.69,0,0,1-39.64,34.82A7.69,7.69,0,0,1,819.52,898.72ZM298.73,865a7.65,7.65,0,0,1-5.43-2.24,405.49,405.49,0,0,1-34.85-39.61,7.69,7.69,0,1,1,12.18-9.38,389.81,389.81,0,0,0,33.53,38.1A7.68,7.68,0,0,1,298.73,865Zm593.81-39.4a7.7,7.7,0,0,1-6.1-12.37,389.28,389.28,0,0,0,28.23-42.21,7.69,7.69,0,0,1,13.32,7.7,407.78,407.78,0,0,1-29.35,43.87A7.7,7.7,0,0,1,892.54,825.64Zm-656.85-42.4a7.66,7.66,0,0,1-6.65-3.83,402.92,402.92,0,0,1-23.44-47.24,7.69,7.69,0,1,1,14.19-5.92,388.61,388.61,0,0,0,22.54,45.44,7.69,7.69,0,0,1-6.64,11.55Zm708.56-47.07a7.58,7.58,0,0,1-2.93-.58,7.7,7.7,0,0,1-4.17-10.05,384.88,384.88,0,0,0,16.31-48.09,7.69,7.69,0,1,1,14.86,4,401.05,401.05,0,0,1-17,50A7.69,7.69,0,0,1,944.25,736.17ZM196,687.91a7.69,7.69,0,0,1-7.42-5.69,403,403,0,0,1-10.34-51.75,7.69,7.69,0,1,1,15.24-2,387.74,387.74,0,0,0,9.95,49.76,7.68,7.68,0,0,1-5.42,9.42A7.77,7.77,0,0,1,196,687.91Zm775-51.57a6.82,6.82,0,0,1-1-.07,7.68,7.68,0,0,1-6.63-8.61A394.33,394.33,0,0,0,966.58,577v-1.64a7.69,7.69,0,0,1,15.38,0v1.5a409.35,409.35,0,0,1-3.4,52.79A7.7,7.7,0,0,1,970.94,636.34ZM182.38,585.09c-4.25,0-7.69-3-7.69-7.27h7.69l-7.69-.69a411,411,0,0,1,3.29-52,7.69,7.69,0,0,1,15.26,2A392.8,392.8,0,0,0,190.06,577C190.06,581.24,186.63,585.09,182.38,585.09ZM970.71,531.4a7.69,7.69,0,0,1-7.61-6.66A385.84,385.84,0,0,0,953.05,475a7.69,7.69,0,0,1,14.84-4,402.29,402.29,0,0,1,10.45,51.73,7.68,7.68,0,0,1-6.6,8.64A7.13,7.13,0,0,1,970.71,531.4ZM195.55,483.05a7.9,7.9,0,0,1-2-.25,7.69,7.69,0,0,1-5.46-9.4A399.51,399.51,0,0,1,205,423.34a7.69,7.69,0,1,1,14.21,5.86A386.61,386.61,0,0,0,203,477.33,7.69,7.69,0,0,1,195.55,483.05Zm748.1-51.34a7.69,7.69,0,0,1-7.1-4.72,390.18,390.18,0,0,0-22.64-45.39,7.69,7.69,0,1,1,13.28-7.75,403.84,403.84,0,0,1,23.54,47.2,7.69,7.69,0,0,1-7.08,10.66ZM234.9,387.47A7.69,7.69,0,0,1,228.24,376,405.8,405.8,0,0,1,257.5,332a7.69,7.69,0,1,1,12.21,9.34,391,391,0,0,0-28.14,42.25A7.67,7.67,0,0,1,234.9,387.47Zm656.71-45a7.67,7.67,0,0,1-6.08-3,391.45,391.45,0,0,0-33.62-38,7.69,7.69,0,0,1,10.84-10.92,409.82,409.82,0,0,1,34.94,39.53,7.7,7.7,0,0,1-6.08,12.4ZM297.67,305.38a7.69,7.69,0,0,1-5.45-13.11,406.76,406.76,0,0,1,39.56-34.9,7.69,7.69,0,1,1,9.41,12.17,392.54,392.54,0,0,0-38.07,33.57A7.63,7.63,0,0,1,297.67,305.38ZM818.3,269.72a7.72,7.72,0,0,1-4.67-1.58A390.5,390.5,0,0,0,771.35,240,7.69,7.69,0,1,1,779,226.7a408.71,408.71,0,0,1,44,29.21,7.7,7.7,0,0,1-4.67,13.81ZM379.42,242.24a7.69,7.69,0,0,1-3.88-14.33,403.77,403.77,0,0,1,47.22-23.49,7.69,7.69,0,1,1,5.94,14.18,390.31,390.31,0,0,0-45.42,22.6A7.59,7.59,0,0,1,379.42,242.24Zm349.24-24a7.67,7.67,0,0,1-2.91-.58,386.11,386.11,0,0,0-48.15-16.16,7.69,7.69,0,1,1,3.93-14.87,402,402,0,0,1,50.06,16.81,7.69,7.69,0,0,1-2.93,14.8Zm-254-15.85a7.69,7.69,0,0,1-2-15.11,403.65,403.65,0,0,1,51.74-10.4,7.69,7.69,0,0,1,2,15.25,386.83,386.83,0,0,0-49.76,10A7.77,7.77,0,0,1,474.7,202.43Zm154.06-10.52a8.18,8.18,0,0,1-1-.06,395.45,395.45,0,0,0-49.46-3.12h-1.23a7.69,7.69,0,0,1,0-15.38h1.14a409.81,409.81,0,0,1,51.49,3.24,7.69,7.69,0,0,1-1,15.31Z" transform="translate(-148.32 -139)"/><circle class="cls-2" cx="430.01" cy="438" r="319.54"/><path class="cls-3" d="M317.54,476.12c-4.26,18.36-4.06,32.48-13.57,50.35-8.72,16.39-12.78,24.37-12.53,44.24.32,25.53-7.73,101.86,37.27,90,37.23-9.81,16.9-58.85,43.33-80.23,12.52-10.13,28.74-6.15,36.44-22.37,7-14.74-2.16-30.65,10.15-44.31,21.92-24.31,67.29-14,83.62-43.28-26.64-15.61-56.69-28.85-41.73-69,5.58-14.95,23.4-27.14,23.28-44.72-.15-23.38-16.84-6.77-32.18-18.65-12.7-9.83-.07-28.37-11.47-36.84-4-3-10.5-2.3-17.53,0-49.88,24.21-86.21,58.94-110.66,100C353,395.89,321.07,460.9,317.54,476.12Z" transform="translate(-148.32 -139)"/><path class="cls-3" d="M432.12,583.32c-9.48,8.86-22.6-.13-32.58,8.31-4,3.41-9.54,37.24-5.69,43,13.24,19.74,43.95-37.29,44.49-50.09C435.63,582.62,434.08,582.72,432.12,583.32Z" transform="translate(-148.32 -139)"/><path class="cls-3" d="M838.45,762.45c-3.72-7.13-8.3-14.12-11.28-16.52-6.83-5.49-16.46-5.82-24.48-2.3s-20.4,8.92-34.34,14.88c-21.31,9.11-47.43,2.87-69.72,12.73-34.39,15.21-90.34,77-16.06,62,9.11-1.84,20.63-9.07,29.1-3.92.73.44.4,18.83-.06,38A320.66,320.66,0,0,0,838.45,762.45Z" transform="translate(-148.32 -139)"/><path class="cls-3" d="M839.68,749.83c4.44-1.63,7.68-6.11,9.64-11.67q-4.68,5.94-9.64,11.53Z" transform="translate(-148.32 -139)"/><path class="cls-3" d="M835.63,703.48c-9.9,14.28,4.61,30,4,46.21q5-5.6,9.64-11.53C854.53,723.34,850.58,700.78,835.63,703.48Z" transform="translate(-148.32 -139)"/><path class="cls-3" d="M808.51,658.14c-12.29,9.74-30,4.13-41.69,13.74s-9.61,28.12,6.48,34.66c25.17,10.22,24.19-14.59,31.25-28.67,3.08-6.14,15.54-12.65,15.1-19.79C818.94,646.31,813.67,654.05,808.51,658.14Z" transform="translate(-148.32 -139)"/><path class="cls-3" d="M703.21,634c-.27,11.3,6.67,23.46,6.52,35.16-.1,8-6,49.4,13.72,22,7.41-10.31,1-54.16-10.74-64.94C708.61,622.41,703.29,631,703.21,634Z" transform="translate(-148.32 -139)"/><path class="cls-3" d="M853.48,596c-2.54-6-15.85-8-15,1.42,1.81,27.39-18.7,37.07.46,63.83,8.63-8.66,8.76-18.18,10.54-30.42.53-3.64-2-11.24-1.81-15.27C848.1,608.55,855.12,605.08,853.48,596Z" transform="translate(-148.32 -139)"/><path class="cls-3" d="M558,421.66c-6.74-9.79-7.48-7.48-9.41-20.09-2.21-14.47,3-27.44-5.13-39.6a44.2,44.2,0,0,0-17.4-14.42l.17,0H526c-4.4-1.87-8.75-2.33-12.13-.31-11.53-.18-23.83.93-29.2,11.51-4.45,8.76-2.33,31.52-4.58,42.85-8.82,44.58,19.33,44.73,55.45,44.73,12.47,0,35.22,6.16,33.63-11.28C568.7,429.34,560.91,425.84,558,421.66Z" transform="translate(-148.32 -139)"/><path class="cls-3" d="M841.26,558.16c19.72-10.21-3-17.37-5.26-28.37-2.89-13.94,13.33-23.94,7.32-38.85,21-11.74,20.31,22.8,20.54,35.21,19.34.06,1.15-29-.73-38.43-3.2-16.05,5.89-27.43,3.81-43.28-.31-2.31-.81-4.83-1.27-7.3a320.81,320.81,0,0,0-113-127.89,25.08,25.08,0,0,0-2.28,1.47c-21.45,17.7,5.13,22.73,1.54,36.85-2.11,8.25-12.75,6.2-18.87,7.51,1.35-.29-23.36,2.95-19.93,4.17a1.6,1.6,0,0,1-2,1.13c-1.44-17.6-18.29-34.61-35.32-22.46-16-16.68,10.39-29.32,12.29-46-9.57-.43-21.18-2.27-29.06,3.83-10.41,8.06-5.23,17.71-18.69,21.62-1.9.55-9.06-5.23-13.46-3.49-6.72,2.67-6.89,9.58-10.78,15.08-5.76,8.16-11.22,21.07-19,27.92-8.58,7.5-13.64,14.74-19.1,0-6-16.15,11.11-15.33,13.5-28.06,3.36-17.87-35-26.86-32,1.68-13.83,1.09-24.34-12.81-40.77-10.9-21.9,2.55-15.09,8.79,3.77,14.91,37.7,12.24,34.34,27.94,43.28,61.09,9.83,36.46,48.73,19.79,49.91,56.32.59,18.5,6.13,23.12,12.58,39.14,7.08,17.58.68,24.6-3.36,40.9-2.82,11.36-10.51,31.27,3.82,33.64,14.76-7.43,25.77-9.49,33.54-26.09,3.83-8.18-1.55-11.61,7.47-17.27,7.58-4.77,16.93,1.23,24.22.6,13.57-1.19,26.15-13.15,39.09-3.92,17.89,12.78,2.88,28.19,5.64,43s22.86,18,26.64,31.22c4,14.07-20.65,20.67-17.41,34,6.55,27,17.74-13,20.5-15.42,4.64-4.1,15.83-.31,19.27-4.54,3.25-4,1.93-17.63,1.41-22.91-1.46-14.82-9.61-24.35,9.22-29.86C811.76,550.42,828.74,564.65,841.26,558.16Z" transform="translate(-148.32 -139)"/><path class="cls-3" d="M576.17,261.29c-1-1.32-2.27-2.46-3.41-3.69a319.39,319.39,0,0,0-71.55,9.29c2.9.81,5.52,2.6,7.71,6.42,6.69,11.7-11.62,29.27,5.13,34,9.89,2.82,11-9.22,18.52-11.07,6.91-1.71,11.16-.84,18.29-1,12.95-.36,24,9.08,32.48-6.27-2.06-1.22-3.61-3.56-6.83-5.07C577.47,273.39,582.9,269.88,576.17,261.29Z" transform="translate(-148.32 -139)"/><path class="cls-4" d="M436.92,584.33c-135.66,0-245.64,81-245.64,181,0,36.09,14.5,69.64,39.21,97.87L148.32,983.05l154.2-66.31c38.63,18.67,84.76,29.6,134.4,29.6,135.67,0,245.64-81,245.64-181S572.59,584.33,436.92,584.33Z" transform="translate(-148.32 -139)"/><path class="cls-5" d="M479.61,806.72H386.2l-16.93,40.42h-38L415.15,656h38l82.76,191.19H496.55ZM466.5,775.31,433.18,695l-33.86,80.3Z" transform="translate(-148.32 -139)"/><path class="cls-6" d="M800.81,139c119.06,0,215.57,71.12,215.57,158.85,0,31.67-12.73,61.11-34.41,85.89l72.12,105.17L918.76,430.72c-33.9,16.38-74.38,26-118,26-119.06,0-215.57-71.12-215.57-158.85S681.75,139,800.81,139Z" transform="translate(-148.32 -139)"/><path class="cls-5" d="M855.55,222.34v19.48L770.16,343.17h86.43v24.26h-124v-19.7L818,246.59H735.13l.21-24.25Z" transform="translate(-148.32 -139)"/></g></svg>