<svg xmlns="http://www.w3.org/2000/svg" viewBox="0 0 371.54 451.18"><defs><style>.cls-1{isolation:isolate;}.cls-2{fill:#f6b381;}.cls-3{fill:#f6906b;}.cls-4{fill:#e4863d;}.cls-5{fill:#393c63;}.cls-15,.cls-6{fill:#4f577f;}.cls-7{fill:#f3eedd;}.cls-8{fill:#fff;}.cls-9{fill:#f6a737;}.cls-10{fill:#ddd9d1;}.cls-11{fill:#ffcb5a;}.cls-12{fill:#ffe1a1;}.cls-13{fill:#4f7598;}.cls-14,.cls-24{fill:#2f2d4f;}.cls-15{font-size:23.46px;font-family:BebasNeueRegular;letter-spacing:0.08em;}.cls-16{letter-spacing:0.08em;}.cls-17{letter-spacing:0em;}.cls-18{fill:#e3e3e6;}.cls-19{fill:#f1e8e1;}.cls-20{fill:#ddd3d2;}.cls-21{fill:none;stroke:#4f577f;stroke-miterlimit:10;}.cls-22{fill:#d4d6d9;}.cls-23{fill:#acaab1;}.cls-24{opacity:0.22;mix-blend-mode:multiply;}</style></defs><title>legal-1</title><g class="cls-1"><g id="OBJECTS"><path class="cls-2" d="M413.9,398.5l-6.43-49.72a20,20,0,0,0-7.71-13.34L368.4,311.5l-17,54,39,43.5Z" transform="translate(-70.4 -48.82)"/><path class="cls-3" d="M380.55,337.76l10.6,8.72a2.53,2.53,0,0,1,.85,2.58l-7.83,30.48a2.52,2.52,0,0,1-4.43.93l-15.71-20a2.54,2.54,0,0,1-.1-3l12.92-19.16A2.53,2.53,0,0,1,380.55,337.76Z" transform="translate(-70.4 -48.82)"/><path class="cls-4" d="M254.92,76.3h-4a7.7,7.7,0,0,1,0-15.39h4a7.7,7.7,0,1,1,0,15.39Zm2.32-24.19h-8.68a16.5,16.5,0,0,0,0,33h8.68a16.5,16.5,0,0,0,0-33Z" transform="translate(-70.4 -48.82)"/><rect class="cls-5" x="52" y="30.33" width="261" height="344" rx="10.17"/><rect class="cls-6" x="52" y="30.33" width="261" height="337.67" rx="10.07"/><rect class="cls-7" x="76" y="51.97" width="213" height="295.45"/><path class="cls-5" d="M76,347.42H289a0,0,0,0,1,0,0v2.33a3.08,3.08,0,0,1-3.08,3.08H76a0,0,0,0,1,0,0v-5.42A0,0,0,0,1,76,347.42Z"/><rect class="cls-8" x="76" y="51.97" width="213" height="292.7"/><path class="cls-9" d="M258.11,48.82H247.69a19.79,19.79,0,1,0,0,39.58h10.42a19.79,19.79,0,0,0,0-39.58Zm-2.78,29h-4.86a9.24,9.24,0,1,1,0-18.47h4.86a9.24,9.24,0,1,1,0,18.47Z" transform="translate(-70.4 -48.82)"/><rect class="cls-10" x="104.25" y="51.96" width="156.5" height="11.88"/><path class="cls-5" d="M108.5,35.83h148a4.25,4.25,0,0,1,4.25,4.25V51.71a0,0,0,0,1,0,0H104.25a0,0,0,0,1,0,0V40.08A4.25,4.25,0,0,1,108.5,35.83Z"/><path class="cls-11" d="M120,20.83H245a9.75,9.75,0,0,1,9.75,9.75V58.33a0,0,0,0,1,0,0H110.25a0,0,0,0,1,0,0V30.58A9.75,9.75,0,0,1,120,20.83Z"/><rect class="cls-9" x="110.25" y="46.83" width="144.5" height="11.5"/><rect class="cls-12" x="160.25" y="46.83" width="44.5" height="11.5" rx="5.75"/><rect class="cls-4" x="219.25" y="46.83" width="22.87" height="11.5" rx="5.75"/><path class="cls-12" d="M236.52,76.9H203.27a3.62,3.62,0,0,1-3.62-3.63h0a3.62,3.62,0,0,1,3.62-3.62h33.25a3.62,3.62,0,0,1,3.63,3.62h0A3.62,3.62,0,0,1,236.52,76.9Z" transform="translate(-70.4 -48.82)"/><path class="cls-13" d="M291.46,423.15H246.32a3.17,3.17,0,0,1-3.17-3.17h0a3.16,3.16,0,0,1,3.17-3.16h45.14a3.16,3.16,0,0,1,3.17,3.16h0A3.17,3.17,0,0,1,291.46,423.15Z" transform="translate(-70.4 -48.82)"/><path class="cls-14" d="M174.48,423.15h-24.7a3.16,3.16,0,0,1-3.16-3.17h0a3.15,3.15,0,0,1,3.16-3.16h24.7a3.16,3.16,0,0,1,3.17,3.16h0A3.17,3.17,0,0,1,174.48,423.15Z" transform="translate(-70.4 -48.82)"/><path class="cls-11" d="M256,55h-5.25a3.1,3.1,0,0,1-3.1-3.1h0a3.1,3.1,0,0,1,3.1-3.1H256a3.1,3.1,0,0,1,3.11,3.1h0A3.1,3.1,0,0,1,256,55Z" transform="translate(-70.4 -48.82)"/><text class="cls-15" transform="translate(97.2 92.61)">REGIST<tspan class="cls-16" x="79.4" y="0">R</tspan><tspan class="cls-17" x="94.02" y="0">A</tspan><tspan x="108.44" y="0">TION</tspan></text><path class="cls-2" d="M378.7,429.34l-3.83-12.11a2.1,2.1,0,0,0-1.21-1.31l-14.35-5.74c-13.18-5.27-12.71-25.9-12.33-31.44a2.05,2.05,0,0,0-1.16-2l-18-8.79a12.77,12.77,0,0,1-6.37-16h0a8,8,0,0,1,10.26-4.74l38.39,13.84a2.1,2.1,0,0,1,1.08.89l20.14,33.8a2.06,2.06,0,0,0,2.43.91l17-5.62a2.08,2.08,0,0,1,2.68,1.52l7.94,35.68a2.08,2.08,0,0,1-2,2.53H380.68A2.07,2.07,0,0,1,378.7,429.34Z" transform="translate(-70.4 -48.82)"/><path class="cls-3" d="M384.4,407.83l-6.5-1c-28-5-21-34-21-34l-36.81-16.14a10.72,10.72,0,0,0,6,10.43l21,10.24s-3.06,26.72,12.21,32.82l15.27,6.11,4.57,14.5h10.7Z" transform="translate(-70.4 -48.82)"/><path class="cls-18" d="M324.06,355.65l1.46-2.84a3.23,3.23,0,0,1,4-1.56l7.28,2.64a3.21,3.21,0,0,1,1.77,4.5l-2.09,4.09a3.23,3.23,0,0,1-4.5,1.32l-6.65-3.89A3.23,3.23,0,0,1,324.06,355.65Z" transform="translate(-70.4 -48.82)"/><rect class="cls-19" x="370.06" y="423.28" width="57" height="16.5" rx="4.75" transform="translate(-133.21 19.12) rotate(-9.03)"/><rect class="cls-20" x="370.2" y="425.07" width="34.17" height="16.5" rx="5.67" transform="translate(-133.64 17.37) rotate(-9.03)"/><polygon class="cls-5" points="371.54 451.18 360.61 380.84 295.75 391.15 305.09 451.18 371.54 451.18"/><path class="cls-14" d="M415.13,500l-8.47-54.66a11.67,11.67,0,0,0-13.35-9.69L366.15,440l9.33,60Z" transform="translate(-70.4 -48.82)"/><line class="cls-21" x1="89.6" y1="100.68" x2="278.6" y2="100.68"/><line class="cls-21" x1="89.6" y1="332.62" x2="153.35" y2="332.62"/><rect class="cls-22" x="90.6" y="114.71" width="38" height="33.96" rx="3.23"/><path class="cls-22" d="M291.09,167.33H205.57a1.9,1.9,0,0,1-1.9-1.9h0a1.9,1.9,0,0,1,1.9-1.91h85.52a1.9,1.9,0,0,1,1.91,1.91h0A1.9,1.9,0,0,1,291.09,167.33Z" transform="translate(-70.4 -48.82)"/><path class="cls-23" d="M347.09,178H205.57a1.9,1.9,0,0,1-1.9-1.91h0a1.9,1.9,0,0,1,1.9-1.9H347.09a1.9,1.9,0,0,1,1.91,1.9h0A1.9,1.9,0,0,1,347.09,178Z" transform="translate(-70.4 -48.82)"/><path class="cls-23" d="M347.09,186.25H205.57a1.9,1.9,0,0,1-1.9-1.91h0a1.9,1.9,0,0,1,1.9-1.9H347.09a1.9,1.9,0,0,1,1.91,1.9h0A1.9,1.9,0,0,1,347.09,186.25Z" transform="translate(-70.4 -48.82)"/><path class="cls-23" d="M248.09,194.5H205.57a1.9,1.9,0,0,1-1.9-1.91h0a1.9,1.9,0,0,1,1.9-1.9h42.52a1.9,1.9,0,0,1,1.91,1.9h0A1.9,1.9,0,0,1,248.09,194.5Z" transform="translate(-70.4 -48.82)"/><rect class="cls-22" x="90.6" y="169.13" width="38" height="33.96" rx="3.23"/><path class="cls-22" d="M291.09,221.76H205.57a1.9,1.9,0,0,1-1.9-1.91h0a1.9,1.9,0,0,1,1.9-1.9h85.52a1.9,1.9,0,0,1,1.91,1.9h0A1.9,1.9,0,0,1,291.09,221.76Z" transform="translate(-70.4 -48.82)"/><path class="cls-23" d="M347.09,232.43H205.57a1.91,1.91,0,0,1-1.9-1.91h0a1.9,1.9,0,0,1,1.9-1.9H347.09a1.9,1.9,0,0,1,1.91,1.9h0A1.91,1.91,0,0,1,347.09,232.43Z" transform="translate(-70.4 -48.82)"/><path class="cls-23" d="M347.09,240.68H205.57a1.91,1.91,0,0,1-1.9-1.91h0a1.9,1.9,0,0,1,1.9-1.9H347.09a1.9,1.9,0,0,1,1.91,1.9h0A1.91,1.91,0,0,1,347.09,240.68Z" transform="translate(-70.4 -48.82)"/><path class="cls-23" d="M248.09,248.93H205.57a1.91,1.91,0,0,1-1.9-1.91h0a1.9,1.9,0,0,1,1.9-1.9h42.52A1.9,1.9,0,0,1,250,247h0A1.91,1.91,0,0,1,248.09,248.93Z" transform="translate(-70.4 -48.82)"/><path class="cls-23" d="M347.09,271.5H162.91a1.9,1.9,0,0,1-1.91-1.91h0a1.9,1.9,0,0,1,1.91-1.9H347.09a1.9,1.9,0,0,1,1.91,1.9h0A1.9,1.9,0,0,1,347.09,271.5Z" transform="translate(-70.4 -48.82)"/><path class="cls-22" d="M270.72,282H162.91a1.9,1.9,0,0,1-1.91-1.91h0a1.9,1.9,0,0,1,1.91-1.9H270.72a1.91,1.91,0,0,1,1.91,1.9h0A1.91,1.91,0,0,1,270.72,282Z" transform="translate(-70.4 -48.82)"/><path class="cls-6" d="M194.81,375.76a3.37,3.37,0,0,1-.88-.11c-3-.74-3.53-4.77-3.72-6.09-.47-3.23-1-6.59-1.36-10a144.61,144.61,0,0,1-10.92,15.06.49.49,0,0,1-.7.06.5.5,0,0,1-.07-.7,144,144,0,0,0,11.51-16c-.86-7.85-1.25-16.05,0-24a15.08,15.08,0,0,1,1.94-6.07,6.38,6.38,0,0,1,5.62-3.11c3.11.27,5.08,3.33,5.34,6.08s-.76,5.51-1.84,8.05a144.25,144.25,0,0,1-10,19.29c.43,3.86,1,7.63,1.5,11.25.45,3.15,1.43,4.87,3,5.26s3.24-.83,4.48-1.95a72,72,0,0,0,11.6-13.34.51.51,0,0,1,.6-.18.5.5,0,0,1,.31.55l-1.56,9.34c-.06.35-.31,2.1.57,2.37a1.92,1.92,0,0,0,1.44-.52,21.73,21.73,0,0,0,2.31-2c.13-1.32,1.42-2.54,2.83-3.35a.49.49,0,0,1,.61.09.5.5,0,0,1,0,.62,21.87,21.87,0,0,1-2.47,3,1.12,1.12,0,0,0,.11.34c.4.81,1.52.92,2.71,1,1.34.14,2.87.3,3.49,1.64a.5.5,0,0,1-.25.66.49.49,0,0,1-.66-.24c-.38-.82-1.5-.94-2.69-1.07s-2.85-.3-3.5-1.6h0a25.13,25.13,0,0,1-2,1.6,2.67,2.67,0,0,1-2.31.66c-1.13-.33-1.59-1.6-1.28-3.48l1.2-7.16a73.79,73.79,0,0,1-10.49,11.7C198.1,374.57,196.53,375.76,194.81,375.76Zm1-50a5.48,5.48,0,0,0-4.38,2.67,14.2,14.2,0,0,0-1.8,5.67,90.27,90.27,0,0,0-.07,22.46,144.66,144.66,0,0,0,9.23-18.05c1-2.42,2-5,1.77-7.56-.23-2.38-1.95-5-4.43-5.18Z" transform="translate(-70.4 -48.82)"/><polygon class="cls-2" points="84.27 274.18 116.94 300.85 104.27 318.18 72.27 316.85 84.27 274.18"/><path class="cls-2" d="M98.43,398.5l6.43-49.72a20,20,0,0,1,7.71-13.34L154.67,323l6.26,42.5-39,43.5Z" transform="translate(-70.4 -48.82)"/><path class="cls-3" d="M154.67,323" transform="translate(-70.4 -48.82)"/><path class="cls-3" d="M130.55,370.74l-3.41-21.44a3.13,3.13,0,0,1,2.47-3.57l21.62-4.43a3.14,3.14,0,0,1,2.59.62l8.89,7.11a3.14,3.14,0,0,1-.17,5l-27.11,18.77A3.14,3.14,0,0,1,130.55,370.74Z" transform="translate(-70.4 -48.82)"/><path class="cls-10" d="M86.08,308.11l4.38-3.29s25.62,8.89,39.25,16.77l.42.25-1.44.69S99.33,308,90.78,308.45a17.15,17.15,0,0,0-1.86,3Z" transform="translate(-70.4 -48.82)"/><rect class="cls-10" x="75.89" y="303.23" width="7.17" height="13.92" rx="1.35" transform="translate(322.84 325.26) rotate(115.88)"/><path class="cls-5" d="M201,367.77l2.21,2.32a.29.29,0,0,1-.25.49l-3.22-.4a.29.29,0,0,1-.22-.43l1-1.91A.29.29,0,0,1,201,367.77Z" transform="translate(-70.4 -48.82)"/><polygon class="cls-11" points="124.74 314.29 131.28 318.85 129.76 322 122.29 319.63 124.74 314.29"/><path class="cls-5" d="M112.77,334.15c-11.78-6.21-21.87-12-29.2-16.75l4-8.31c8.26,2.82,19.06,7.15,31.23,12.56Z" transform="translate(-70.4 -48.82)"/><path class="cls-5" d="M136,329.57l4,1.93c25.68,12.46,47.2,24.72,57.07,32.15l-2.9,6c-11.94-3.14-34.89-12.46-60.57-24.92l-4-2Z" transform="translate(-70.4 -48.82)"/><path class="cls-10" d="M136.76,329.93l-6.39,13.18c-6.47-3.18-12.65-6.33-18.42-9.38l6-12.46C124,323.91,130.26,326.81,136.76,329.93Z" transform="translate(-70.4 -48.82)"/><path class="cls-24" d="M85.4,313.62,195.47,367l-1.27,2.61c-11.94-3.14-34.89-12.46-60.57-24.92-20.69-10-38.69-19.95-50.06-27.3Z" transform="translate(-70.4 -48.82)"/><rect class="cls-10" x="79.47" y="311.5" width="10.5" height="2.83" transform="translate(332.84 324.45) rotate(115.88)"/><rect class="cls-24" x="80.93" y="313.82" width="5.33" height="2.83" transform="translate(333.31 328.81) rotate(115.88)"/><path class="cls-2" d="M133.64,429.34l3.82-12.11a2.1,2.1,0,0,1,1.21-1.31L153,410.18c13.18-5.27,12.71-25.9,12.33-31.44a2.08,2.08,0,0,1,1.17-2l18-8.79a12.77,12.77,0,0,0,6.36-16h0a8,8,0,0,0-10.26-4.74l-38.39,13.84a2.1,2.1,0,0,0-1.08.89l-20.13,33.8a2.08,2.08,0,0,1-2.44.91l-17-5.62a2.07,2.07,0,0,0-2.68,1.52L91,428.26a2.08,2.08,0,0,0,2,2.53h38.63A2.09,2.09,0,0,0,133.64,429.34Z" transform="translate(-70.4 -48.82)"/><path class="cls-2" d="M133.18,430.79l4.58-14.5L153,410.18c15.27-6.1,12.22-32.82,12.22-32.82L186.5,367a10.41,10.41,0,0,0,5.18-13l-1.58-4.22a5.67,5.67,0,0,0-7.23-3.34l-41.3,14.89L120.2,397.21l-20.77-6.88-9,40.46Z" transform="translate(-70.4 -48.82)"/><path class="cls-3" d="M127.93,407.83l6.5-1c28-5,21-34,21-34l36.81-16.14a10.69,10.69,0,0,1-6,10.43l-21,10.24s3,26.72-12.22,32.82l-15.26,6.11-4.58,14.5h-10.7Z" transform="translate(-70.4 -48.82)"/><path class="cls-18" d="M188.27,355.65l-1.46-2.84a3.23,3.23,0,0,0-4-1.56l-7.29,2.64a3.23,3.23,0,0,0-1.77,4.5l2.09,4.09a3.23,3.23,0,0,0,4.5,1.32l6.65-3.89A3.23,3.23,0,0,0,188.27,355.65Z" transform="translate(-70.4 -48.82)"/><rect class="cls-19" x="85.28" y="423.28" width="57" height="16.5" rx="4.75" transform="translate(87.98 826.75) rotate(-170.97)"/><rect class="cls-20" x="107.97" y="425.07" width="34.17" height="16.5" rx="5.67" transform="translate(110.11 832.08) rotate(-170.97)"/><polygon class="cls-5" points="0 451.18 10.94 380.84 75.79 391.15 66.45 451.18 0 451.18"/><path class="cls-14" d="M97.2,500l8.47-54.66A11.67,11.67,0,0,1,119,435.65L146.18,440l-9.33,60Z" transform="translate(-70.4 -48.82)"/><path class="cls-22" d="M343.79,315.24H305a5.21,5.21,0,0,1-5.21-5.21h0a5.21,5.21,0,0,1,5.21-5.21h38.79A5.21,5.21,0,0,1,349,310h0A5.21,5.21,0,0,1,343.79,315.24Z" transform="translate(-70.4 -48.82)"/></g></g></svg>