<svg xmlns="http://www.w3.org/2000/svg" viewBox="0 0 790 618.92"><defs><style>.cls-1{fill:#464949;}.cls-2{fill:#f7d77f;}.cls-3{opacity:0.11;}.cls-4{fill:#393d3d;}.cls-5{opacity:0.33;}.cls-6{opacity:0.12;}.cls-7{fill:#8fc5b8;}</style></defs><title>MEASURINF</title><g id="Icon"><rect class="cls-1" x="702.79" y="522.49" width="258.57" height="4.41" transform="translate(-90.21 923.52) rotate(-73.16)"/><rect class="cls-1" x="909.55" y="393.95" width="4.41" height="261.5" transform="matrix(0.95, -0.32, 0.32, 0.95, -299.6, 77.05)"/><rect class="cls-1" x="688.32" y="155.42" width="4.41" height="247.48"/><rect class="cls-1" x="313.73" y="395.41" width="4.41" height="258.57" transform="translate(-317.48 -131.49) rotate(-16.84)"/><rect class="cls-1" x="105.5" y="522.49" width="261.5" height="4.41" transform="translate(-515.63 333.3) rotate(-71.16)"/><rect class="cls-1" x="97.27" y="155.42" width="4.41" height="247.48"/><path class="cls-2" d="M179,644c0,33.67,42.4,61,94.7,61s94.7-27.29,94.7-61Z" transform="translate(-179 -245.53)"/><path class="cls-1" d="M268.19,392.88a10.3,10.3,0,0,1,10.29-10.28,10.45,10.45,0,0,1,10.28,10.28c.21,5.28-4.5,10.07-10.28,10.28A10.3,10.3,0,0,1,268.19,392.88Zm4.41,0a5.88,5.88,0,1,0,5.88-5.88A5.87,5.87,0,0,0,272.6,392.88Z" transform="translate(-179 -245.53)"/><path class="cls-1" d="M930.9,359.59c-.71-2.49-2.61-5.21-5.17-4.87a4.75,4.75,0,0,0-3.36,2.86c-.66,1.37-1,2.9-1.51,4.33a12.11,12.11,0,0,1-6,6.41l-.58.29c-17.93,3.1-72.37,11-164.29-13.92-94-25.46-162.42-20.94-162.42-20.94v21.31l2.68,15.3c5.12-8.86,110.38-6.23,162.61,5.87,89.29,20.69,162.61,6.86,162.61,6.86s6.17-1.65,8.73-3.45a15.2,15.2,0,0,0,2.43-2.17A19.21,19.21,0,0,0,930.9,359.59Z" transform="translate(-179 -245.53)"/><path class="cls-2" d="M969,644c0,33.67-42.4,61-94.7,61s-94.7-27.29-94.7-61Z" transform="translate(-179 -245.53)"/><path class="cls-3" d="M179.13,647.35A17.45,17.45,0,0,1,179,644H368.43c-.82,19.51-9.63,27.59-16.34,34.23Z" transform="translate(-179 -245.53)"/><path class="cls-3" d="M779.7,647.35a18.32,18.32,0,0,1-.1-3.32H969c-.81,19.51-9.62,27.59-16.33,34.23Z" transform="translate(-179 -245.53)"/><path class="cls-1" d="M869.52,403.16a10.28,10.28,0,1,1,10.29-10.28A10.3,10.3,0,0,1,869.52,403.16Zm0-16.16a5.88,5.88,0,1,0,5.88,5.88A5.88,5.88,0,0,0,869.52,387Z" transform="translate(-179 -245.53)"/><path class="cls-1" d="M217.1,359.59c.71-2.49,2.61-5.21,5.17-4.87a4.75,4.75,0,0,1,3.36,2.86c.66,1.37,1,2.9,1.51,4.33a12.11,12.11,0,0,0,6,6.41l.58.29c17.93,3.1,72.37,11,164.29-13.92C492,329.23,559.55,335,559.55,335l1.23,18.85-3,16.53c-5.12-8.86-110.38-6.23-162.61,5.87-89.29,20.69-162.61,6.86-162.61,6.86s-6.17-1.65-8.73-3.45a15.2,15.2,0,0,1-2.43-2.17A19.21,19.21,0,0,1,217.1,359.59Z" transform="translate(-179 -245.53)"/><path class="cls-4" d="M574.85,814.12h-.64c-17.44,0-31.46-15.68-31.07-34.75,0,0,11.56-453.44,15.92-453.43H587.7c4.34,0,18.22,453.17,18.22,453.17C606.44,798.27,592.38,814.12,574.85,814.12Z" transform="translate(-179 -245.53)"/><path class="cls-1" d="M782.83,845.25H366.23v-.46c0-25.38,58.58-46,92.69-46h237.2c34.1,0,86.71,20.58,86.71,46Z" transform="translate(-179 -245.53)"/><circle class="cls-4" cx="574.53" cy="306.54" r="22.83" transform="translate(-6.26 573.47) rotate(-79.98)"/><path class="cls-4" d="M586.74,276.62c0,7.88-5.47,14.27-12.21,14.27s-12.21-6.39-12.21-14.27,8.32-31.09,12.21-31.09C578,245.53,586.74,268.74,586.74,276.62Z" transform="translate(-179 -245.53)"/><path class="cls-2" d="M582.32,306.57a8.08,8.08,0,1,1-8.07-8.08A8.07,8.07,0,0,1,582.32,306.57Z" transform="translate(-179 -245.53)"/><path class="cls-2" d="M579.87,274.3c0,3.41-2.39,6.17-5.34,6.17s-5.34-2.76-5.34-6.17,4.77-12.83,5.34-12.83C574.53,261.47,579.87,270.9,579.87,274.3Z" transform="translate(-179 -245.53)"/><polygon class="cls-5" points="367.1 553.3 448.37 596.78 535.51 598.36 437.11 553.3 367.1 553.3"/><path class="cls-6" d="M588.94,333.69l2.14,35.1s11.47-3.3,20.21-3.74l-16.54-31.36Z" transform="translate(-179 -245.53)"/><path class="cls-6" d="M557.89,334.43l-2.14,35.1s-11.47-3.31-20.21-3.74l16.54-31.36Z" transform="translate(-179 -245.53)"/><path class="cls-5" d="M782.76,843.89H366.23V843a11,11,0,0,1,1.46-5.47l.74-1.27,412.23-.32,0,0a11.46,11.46,0,0,1,2.12,7.27Z" transform="translate(-179 -245.53)"/><polygon class="cls-7" points="423.85 439.25 367.1 439.07 367.7 425.18 423.44 425.18 423.85 439.25"/><polygon class="cls-7" points="423.21 420.87 367.73 420.87 368 414.01 423.21 414.01 423.21 420.87"/><path class="cls-5" d="M550.87,798.83h50.25s3.63-6.62,4-11.05-59-124.06-59-124.06l-1.6,63.89s-2.79,50.8-1,58S544.63,798.83,550.87,798.83Z" transform="translate(-179 -245.53)"/><path class="cls-4" d="M790.47,864.45H349.69c-4.42,0-8-4.91-8-11v-.22c0-6,3.58-11,8-11H790.47c4.42,0,8,4.91,8,11v.22C798.47,859.54,794.89,864.45,790.47,864.45Z" transform="translate(-179 -245.53)"/></g></svg>