<svg xmlns="http://www.w3.org/2000/svg" xmlns:xlink="http://www.w3.org/1999/xlink" viewBox="0 0 171.59 210.83"><defs><style>.cls-1{fill:none;}.cls-2{isolation:isolate;}.cls-3,.cls-4,.cls-7{fill:#d9aa4c;}.cls-4,.cls-7{opacity:0.5;}.cls-4,.cls-6{mix-blend-mode:multiply;}.cls-5{fill:#ffef61;}.cls-6{opacity:0.3;}.cls-8{clip-path:url(#clip-path);}.cls-11,.cls-9{fill:#fff;}.cls-9{opacity:0.2;}.cls-10{fill:#e30000;}.cls-11{font-size:44.67px;font-family:Metropolis-Medium, Metropolis Medium;font-weight:500;}</style><clipPath id="clip-path" transform="translate(-163.94 -136.42)"><path class="cls-1" d="M299.82,234V210.1A50,50,0,0,0,250,160.28h0a50,50,0,0,0-49.82,49.82V234c0,57.08-24.19,56.55-24.19,82.42,0,12.58,10.61,10.82,23.58,10.82h101c13,0,23.59,2.15,23.59-10.82C324.19,290.39,299.82,291.1,299.82,234Z"/></clipPath></defs><title>notification</title><g class="cls-2"><g id="OBJECTS"><circle class="cls-3" cx="86.15" cy="192.04" r="18.79"/><path class="cls-4" d="M268.88,328.46a18.79,18.79,0,0,1-18.79,18.79V309.67A18.79,18.79,0,0,1,268.88,328.46Z" transform="translate(-163.94 -136.42)"/><path class="cls-4" d="M250.09,309.67a18.79,18.79,0,0,0-18.79,18.79,18.29,18.29,0,0,0,.36,3.65h36.85a18.29,18.29,0,0,0,.37-3.65A18.79,18.79,0,0,0,250.09,309.67Z" transform="translate(-163.94 -136.42)"/><path class="cls-5" d="M250.09,175.77a19.68,19.68,0,1,1,19.67-19.67A19.7,19.7,0,0,1,250.09,175.77Zm0-28.71a9,9,0,1,0,9,9A9,9,0,0,0,250.09,147.06Z" transform="translate(-163.94 -136.42)"/><g class="cls-6"><path class="cls-3" d="M250.09,165.14a9,9,0,0,0,0-18.08V136.42a19.68,19.68,0,0,1,0,39.35Z" transform="translate(-163.94 -136.42)"/></g><path class="cls-5" d="M299.82,234V210.1A50,50,0,0,0,250,160.28h0a50,50,0,0,0-49.82,49.82V234c0,57.08-24.19,56.55-24.19,82.42,0,12.58,10.61,10.82,23.58,10.82h101c13,0,23.59,2.15,23.59-10.82C324.19,290.39,299.82,291.1,299.82,234Z" transform="translate(-163.94 -136.42)"/><path class="cls-7" d="M299.82,234V210.1A50,50,0,0,0,250,160.28h0s12,7.43,14.44,27.39c2.52,20.65-7.71,79,4,116.94,7.19,23.28,1.26,22.65-1.93,22.65H300.6c13,0,23.59,2.15,23.59-10.82C324.19,290.39,299.82,291.1,299.82,234Z" transform="translate(-163.94 -136.42)"/><g class="cls-8"><rect class="cls-4" x="26.59" y="114.97" width="119.12" height="21.27"/><rect class="cls-4" y="177.15" width="171.59" height="14.89"/></g><path class="cls-9" d="M228.25,181.75c2.33-8.83,5.32-15.16,8.55-19.67l-1.39.4c-6.63,5.77-13,14.86-17.16,29.16-6.94,24-3.6,68.71-12.73,91.89-10.16,25.79-11.38,37.62-10.41,43.78,1.45,0,2.94-.05,4.46-.05h17.14c.41-9.25,1.78-25.71,6.31-41.46C229.83,262.14,223.84,198.41,228.25,181.75Z" transform="translate(-163.94 -136.42)"/><circle class="cls-10" cx="133.65" cy="34.03" r="28.72"/><text class="cls-11" transform="translate(123.33 48.95)">3</text></g></g></svg>