<svg xmlns="http://www.w3.org/2000/svg" viewBox="0 0 485.9 648"><defs><style>.cls-1{fill:#333;}.cls-2{fill:#4d4d4d;}.cls-3{fill:#e6e6e6;}.cls-4{fill:#666;}.cls-5{fill:#ff2371;}.cls-6{fill:#fcc357;}.cls-7{fill:#00a5b0;}.cls-8{fill:#86bd67;}.cls-9{fill:#ffa71a;}.cls-10{fill:#999;}</style></defs><title>pages-title-icons-erp</title><g id="Icon"><path class="cls-1" d="M812.51,243.91c22.88,0,41.44,18,41.44,40.27V844.73C854,867,835.39,885,812.51,885h-403c-22.89,0-41.45-18-41.45-40.27V284.18c0-22.24,18.56-40.27,41.45-40.27Z" transform="translate(-368.05 -237)"/><path class="cls-2" d="M812.51,237c22.88,0,41.44,18,41.44,40.27V837.82c0,22.25-18.56,40.27-41.44,40.27h-403c-22.89,0-41.45-18-41.45-40.27V277.27C368.05,255,386.61,237,409.5,237Z" transform="translate(-368.05 -237)"/><path class="cls-3" d="M788.84,278.76c15.26,0,27.64,11.5,27.64,25.68V786.32c0,14.18-12.38,25.68-27.64,25.68H433.16c-15.26,0-27.63-11.5-27.63-25.68V304.44c0-14.18,12.37-25.68,27.63-25.68Z" transform="translate(-368.05 -237)"/><rect class="cls-4" x="91.84" y="114.95" width="6.33" height="418.73"/><rect class="cls-5" x="119.89" y="416" width="35.14" height="115.91"/><rect class="cls-6" x="188.64" y="378.36" width="35.14" height="153.54"/><rect class="cls-7" x="257.39" y="299.51" width="35.14" height="232.39"/><rect class="cls-8" x="326.14" y="235.04" width="35.14" height="296.86"/><rect class="cls-4" x="91.84" y="527.39" width="308.9" height="6.3"/><polygon class="cls-4" points="86.89 126.93 95 106.24 103.12 126.93 86.89 126.93"/><polygon class="cls-4" points="391.97 522.64 412.67 530.75 391.97 538.86 391.97 522.64"/><path class="cls-6" d="M729.33,363.93l48.55,30.44,3.84-55.6Z" transform="translate(-368.05 -237)"/><path class="cls-2" d="M436,366.47a16.59,16.59,0,0,1,3.63,1.19,6.78,6.78,0,0,1,2.21,1.62,7.74,7.74,0,0,1,1.82,5.33,9.3,9.3,0,0,1-.52,3.1,8.62,8.62,0,0,1-1.48,2.67,8.51,8.51,0,0,1-2.4,2,8.87,8.87,0,0,1-3.26,1.05v2.85h-3.69v-2.85a10.78,10.78,0,0,1-3.39-1,7.4,7.4,0,0,1-2.39-1.92,8.62,8.62,0,0,1-1.49-2.84,15.55,15.55,0,0,1-.69-3.76h5.26a7.82,7.82,0,0,0,.86,3.22,3.94,3.94,0,0,0,1.84,1.71V370.5c-4.89-1.15-7.32-3.76-7.32-7.81a8.7,8.7,0,0,1,.51-3.08,7.44,7.44,0,0,1,3.78-4.12,10.43,10.43,0,0,1,3-.93V351.7H436v2.84q6.38.91,7.15,8.15h-5.34c-.13-1.9-.73-3.08-1.81-3.55Zm-3.69-7.37a3.82,3.82,0,0,0-1.52,5.35,3.54,3.54,0,0,0,1.52,1.12ZM436,378.88q2.4-.83,2.4-4.06a6,6,0,0,0-.1-1.19,2.73,2.73,0,0,0-.36-.93,2.34,2.34,0,0,0-.73-.7,6,6,0,0,0-1.21-.56Z" transform="translate(-368.05 -237)"/><path class="cls-2" d="M489.11,791.18a9.23,9.23,0,0,1-.27,2.4,4,4,0,0,1-.83,1.6,3.18,3.18,0,0,1-1.38.91,6.19,6.19,0,0,1-1.93.28,4.54,4.54,0,0,1-1.74-.31,3.67,3.67,0,0,1-2.18-2.22,5.09,5.09,0,0,1-.3-1.79v-.82h2.78c0,1.72.48,2.59,1.44,2.59a2.09,2.09,0,0,0,.69-.1,1,1,0,0,0,.51-.38,2.13,2.13,0,0,0,.31-.77,6.59,6.59,0,0,0,.1-1.3V781.18h2.8Z" transform="translate(-368.05 -237)"/><path class="cls-2" d="M505.47,796.13h-3.11l-1.64-4.28H495.5l-1.56,4.28h-3l5.75-15h2.65Zm-5.61-6.65L498,784.74l-1.71,4.74Z" transform="translate(-368.05 -237)"/><path class="cls-2" d="M519.32,796.13h-2.63l-6.67-10v10h-2.68v-15H510l6.64,10v-10h2.7Z" transform="translate(-368.05 -237)"/><path class="cls-2" d="M555.77,783.75h-7.65v3.44h6.65v2.56h-6.65v6.38h-2.78v-15h10.43Z" transform="translate(-368.05 -237)"/><path class="cls-2" d="M570.14,796.13H558.71v-15h11.1v2.57H561.5v3.37h7.77v2.55H561.5v3.89h8.64Z" transform="translate(-368.05 -237)"/><path class="cls-2" d="M584.54,791.59a4.08,4.08,0,0,1-1.43,3.39,6.82,6.82,0,0,1-4.29,1.15h-5.74v-15h5.47a7.78,7.78,0,0,1,2.18.28,4.8,4.8,0,0,1,1.67.8,3.54,3.54,0,0,1,1.45,3,3.73,3.73,0,0,1-.35,1.66,3.52,3.52,0,0,1-1.09,1.24,3.59,3.59,0,0,1,.94.63,3.71,3.71,0,0,1,.67.82,4.4,4.4,0,0,1,.4,1A4.66,4.66,0,0,1,584.54,791.59Zm-8.67-4.52h2.67a3.68,3.68,0,0,0,1.92-.39,1.44,1.44,0,0,0,.62-1.31,1.73,1.73,0,0,0-.14-.71,1.21,1.21,0,0,0-.47-.51,2.36,2.36,0,0,0-.83-.3,6.71,6.71,0,0,0-1.28-.1h-2.49Zm0,6.49h2.94c1.91,0,2.87-.66,2.87-2a2.31,2.31,0,0,0-.15-.88,1.33,1.33,0,0,0-.51-.62,2.57,2.57,0,0,0-1-.37,8,8,0,0,0-1.51-.11h-2.68Z" transform="translate(-368.05 -237)"/><path class="cls-2" d="M617.14,796.13h-2.71v-9.58l-3.22,9.58h-2.35l-3.19-9.58v9.58H603v-15h3.62l3.47,10.66,3.48-10.66h3.61Z" transform="translate(-368.05 -237)"/><path class="cls-2" d="M633.5,796.13h-3.11l-1.64-4.28h-5.22L622,796.13h-3l5.75-15h2.65Zm-5.61-6.65-1.82-4.74-1.71,4.74Z" transform="translate(-368.05 -237)"/><path class="cls-2" d="M643.79,792.06a3.13,3.13,0,0,0-.4-.77,3.53,3.53,0,0,0-.6-.62,2.78,2.78,0,0,0-.76-.41,2.5,2.5,0,0,0-.88-.14h-3v6h-2.8v-15h6.7c.4,0,.79,0,1.15,0a6.87,6.87,0,0,1,1,.13,4.4,4.4,0,0,1,1,.31,3.26,3.26,0,0,1,.87.55,3.82,3.82,0,0,1,1.11,1.52,4.63,4.63,0,0,1,.36,1.83,4.08,4.08,0,0,1-.65,2.35,4.17,4.17,0,0,1-1.83,1.5,3.87,3.87,0,0,1,.88.92,6.34,6.34,0,0,1,.68,1.38l1.6,4.43h-3Zm-5.62-4.52h3.71a7.76,7.76,0,0,0,1.28-.09,2.23,2.23,0,0,0,.87-.35,1.32,1.32,0,0,0,.5-.62,2.5,2.5,0,0,0,.16-.93,1.72,1.72,0,0,0-.62-1.46,3.16,3.16,0,0,0-1.9-.47h-4Z" transform="translate(-368.05 -237)"/><path class="cls-2" d="M682.46,796.13h-3.11l-1.64-4.28h-5.23l-1.56,4.28H668l5.75-15h2.65Zm-5.61-6.65L675,784.74l-1.71,4.74Z" transform="translate(-368.05 -237)"/><path class="cls-2" d="M684.33,781.18h5.73a12.3,12.3,0,0,1,2.22.2,5.22,5.22,0,0,1,1.88.71,4,4,0,0,1,1.3,1.4,4.58,4.58,0,0,1,.48,2.23,4.34,4.34,0,0,1-1.45,3.58,6.62,6.62,0,0,1-4.3,1.2h-3.08v5.63h-2.78Zm2.78,6.76h3.13a5,5,0,0,0,1.31-.14,2.26,2.26,0,0,0,.88-.42,1.7,1.7,0,0,0,.5-.68,2.68,2.68,0,0,0,.16-.94,2,2,0,0,0-.24-1,1.63,1.63,0,0,0-.63-.62,2.82,2.82,0,0,0-.93-.29,7.82,7.82,0,0,0-1.1-.07h-3.08Z" transform="translate(-368.05 -237)"/><path class="cls-2" d="M707.2,792.06a3.16,3.16,0,0,0-.41-.77,3.53,3.53,0,0,0-.6-.62,3,3,0,0,0-.75-.41,2.58,2.58,0,0,0-.88-.14h-3v6h-2.8v-15h6.7c.41,0,.78,0,1.15,0a6.87,6.87,0,0,1,1,.13,4.59,4.59,0,0,1,1,.31,3.42,3.42,0,0,1,.87.55,3.8,3.8,0,0,1,1.1,1.52,4.64,4.64,0,0,1,.37,1.83,4.09,4.09,0,0,1-.66,2.35,4.17,4.17,0,0,1-1.81,1.5,4,4,0,0,1,.87.92,6.82,6.82,0,0,1,.68,1.38l1.6,4.43h-3Zm-5.63-4.52h3.72a7.8,7.8,0,0,0,1.27-.09,2.23,2.23,0,0,0,.87-.35,1.32,1.32,0,0,0,.5-.62,2.32,2.32,0,0,0,.16-.93,1.71,1.71,0,0,0-.61-1.46,3.21,3.21,0,0,0-1.92-.47h-4Z" transform="translate(-368.05 -237)"/><polygon class="cls-6" points="123.52 403.81 116.26 392.03 197.54 341.9 270.36 261.54 334.87 204.07 381.24 116.59 409.83 137.52 345.56 213.06 279.83 271.62 206.47 352.64 123.52 403.81"/><path class="cls-9" d="M581.2,579.94a6.94,6.94,0,1,1-6.93-7A6.94,6.94,0,0,1,581.2,579.94Z" transform="translate(-368.05 -237)"/><path class="cls-5" d="M512.45,625.71a6.94,6.94,0,1,1-6.94-6.93A6.95,6.95,0,0,1,512.45,625.71Z" transform="translate(-368.05 -237)"/><path class="cls-7" d="M650,503.55a6.94,6.94,0,1,1-6.94-6.93A6.94,6.94,0,0,1,650,503.55Z" transform="translate(-368.05 -237)"/><path class="cls-8" d="M715.83,445.76a6.94,6.94,0,1,1-6.94-6.94A6.95,6.95,0,0,1,715.83,445.76Z" transform="translate(-368.05 -237)"/><rect class="cls-10" x="103.43" y="58.48" width="13.78" height="30.52"/><rect class="cls-10" x="121.11" y="58.48" width="13.78" height="30.52"/><rect class="cls-10" x="138.8" y="58.48" width="13.79" height="30.52"/><rect class="cls-10" x="156.48" y="58.48" width="13.79" height="30.52"/><rect class="cls-10" x="174.16" y="58.48" width="13.79" height="30.52"/><rect class="cls-10" x="209.53" y="58.48" width="13.78" height="30.52"/><rect class="cls-10" x="227.22" y="58.48" width="13.79" height="30.52"/><rect class="cls-10" x="162.47" y="116.59" width="9.46" height="20.93"/><rect class="cls-10" x="174.6" y="116.59" width="9.45" height="20.93"/><polygon class="cls-10" points="196.19 137.52 186.74 137.52 186.72 116.59 196.18 116.59 196.19 137.52"/><rect class="cls-10" x="198.86" y="116.59" width="9.46" height="20.93"/><rect class="cls-10" x="210.99" y="116.59" width="9.45" height="20.93"/><rect class="cls-10" x="261.24" y="116.59" width="9.45" height="20.93"/><rect class="cls-10" x="273.37" y="116.59" width="9.45" height="20.93"/><rect class="cls-10" x="285.5" y="116.59" width="9.46" height="20.93"/><rect class="cls-10" x="297.63" y="116.59" width="9.45" height="20.93"/><rect class="cls-10" x="309.75" y="116.59" width="9.46" height="20.93"/><rect class="cls-10" x="235.24" y="116.59" width="9.45" height="20.93"/><rect class="cls-10" x="247.37" y="116.59" width="9.46" height="20.93"/><rect class="cls-10" x="244.9" y="58.48" width="13.78" height="30.52"/><rect class="cls-10" x="262.58" y="58.48" width="13.79" height="30.52"/><rect class="cls-10" x="280.27" y="58.48" width="13.79" height="30.52"/><rect class="cls-10" x="297.95" y="58.48" width="13.79" height="30.52"/><rect class="cls-10" x="333.32" y="58.48" width="13.79" height="30.52"/><rect class="cls-10" x="351" y="58.48" width="13.78" height="30.52"/><rect class="cls-10" x="368.68" y="58.48" width="13.78" height="30.52"/><path class="cls-10" d="M662.74,846a19,19,0,0,1-19,19H578.26a19,19,0,0,1-19-19h0a19,19,0,0,1,19-19h65.47a19,19,0,0,1,19,19Z" transform="translate(-368.05 -237)"/></g></svg>