<svg xmlns="http://www.w3.org/2000/svg" viewBox="0 0 476.66 287.64"><defs><style>.cls-1{fill:#eee8d3;}.cls-2{fill:#febc92;}.cls-3{fill:#f9a54b;}.cls-4{fill:#bae6e8;}.cls-5{fill:#ffbc70;}.cls-6{fill:#ef6324;}.cls-7{fill:#d88f59;}.cls-8{fill:#ed4726;}.cls-9{fill:#f9863a;}.cls-10{opacity:0.29;}.cls-11{fill:#fafafa;}.cls-12{opacity:0.27;}.cls-13{fill:#41636b;}.cls-14{fill:#fff;}.cls-15{fill:#feaa75;}.cls-16{fill:#b76b37;}.cls-17{fill:#f28452;}</style></defs><title>7</title><g id="Graphics"><rect class="cls-1" x="56.28" y="69.03" width="359.96" height="188.2"/><rect class="cls-2" x="56.28" y="69.03" width="359.96" height="188.2"/><rect class="cls-3" x="84.8" y="91.23" width="177.52" height="132.31"/><rect class="cls-4" x="90.62" y="86.89" width="165.89" height="123.65"/><rect class="cls-5" x="169.81" y="85.5" width="7.51" height="132.66"/><path class="cls-6" d="M500.4,573.42a6.58,6.58,0,0,1-6.58,6.58H307.27a6.58,6.58,0,1,1,0-13.15H493.82A6.57,6.57,0,0,1,500.4,573.42Z" transform="translate(-226.58 -351.53)"/><path class="cls-7" d="M660.08,639.17H267.24V610a13.56,13.56,0,0,1,13.56-13.56H646.51A13.57,13.57,0,0,1,660.08,610Z" transform="translate(-226.58 -351.53)"/><rect class="cls-5" x="303.75" y="106.02" width="84.55" height="170.12"/><path class="cls-8" d="M658,372.48a21,21,0,0,0-20.95-21h-346a21,21,0,0,0-21,21v76.43H658Z" transform="translate(-226.58 -351.53)"/><polygon class="cls-9" points="432.69 52.6 476.66 97.38 0 97.38 43.56 52.6 432.69 52.6"/><g class="cls-10"><path class="cls-11" d="M163.33,266.1H188a6.51,6.51,0,0,1,6.51,6.51v4.18a6.5,6.5,0,0,1-6.5,6.5H163.33a6.5,6.5,0,0,1-6.5-6.5v-4.19a6.5,6.5,0,0,1,6.5-6.5Z"/></g><g class="cls-10"><path class="cls-11" d="M117.72,247.61h24.64a6.5,6.5,0,0,1,6.5,6.5v4.19a6.5,6.5,0,0,1-6.5,6.5H117.72a6.51,6.51,0,0,1-6.51-6.51v-4.19A6.51,6.51,0,0,1,117.72,247.61Z"/></g><g class="cls-10"><rect class="cls-11" x="83.48" y="266.71" width="37.65" height="17.2" rx="6.51"/></g><g class="cls-10"><path class="cls-11" d="M313.49,611.42a6.5,6.5,0,0,1-6.5,6.51H282.35a6.5,6.5,0,0,1-6.5-6.51v-4.18a6.51,6.51,0,0,1,6.5-6.51H307a6.51,6.51,0,0,1,6.5,6.51Z" transform="translate(-226.58 -351.53)"/></g><rect class="cls-3" x="361.02" y="106.48" width="27.12" height="162.52"/><rect class="cls-3" x="303.86" y="106.02" width="27.12" height="162.51"/><g class="cls-12"><path class="cls-13" d="M367.2,465.39H330.55v0H293.89v15.64a18.34,18.34,0,0,0,36.67.12,18.33,18.33,0,0,0,36.65-.05,18.33,18.33,0,0,0,36.66-.11V465.39H367.2Z" transform="translate(-226.58 -351.53)"/><path class="cls-13" d="M476.31,465.52H440.55v-.13H403.88V481a18.33,18.33,0,0,0,36.24,3.9A18.33,18.33,0,0,0,476.36,482a18.32,18.32,0,0,0,36.62-.91V465.48H476.31Z" transform="translate(-226.58 -351.53)"/><path class="cls-13" d="M586.33,465.39H549.68v0H513v15.64a18.33,18.33,0,0,0,36.66.12,18.33,18.33,0,0,0,36.66,0A18.33,18.33,0,0,0,623,481V465.39H586.33Z" transform="translate(-226.58 -351.53)"/><path class="cls-13" d="M282.86,465.48V497.9a18.32,18.32,0,0,0,11-16.79V465.48Z" transform="translate(-226.58 -351.53)"/><path class="cls-13" d="M642.77,465.39H623V481a18.33,18.33,0,0,0,18.33,18.33c.48,0,.95,0,1.43-.07Z" transform="translate(-226.58 -351.53)"/></g><path class="cls-14" d="M566.12,551.23a3,3,0,0,1-3,3H541a3,3,0,0,1,0-5.94h22.16A3,3,0,0,1,566.12,551.23Z" transform="translate(-226.58 -351.53)"/><path class="cls-14" d="M546.36,551.23a6.17,6.17,0,1,1-6.17-6.16A6.17,6.17,0,0,1,546.36,551.23Z" transform="translate(-226.58 -351.53)"/><path class="cls-15" d="M263.62,464.51a18.36,18.36,0,1,1-36.71,0V448.87h36.71Z" transform="translate(-226.58 -351.53)"/><path class="cls-6" d="M300.23,464.48a18.36,18.36,0,0,1-36.71,0V448.83h36.71Z" transform="translate(-226.58 -351.53)"/><path class="cls-15" d="M337,464.44a18.35,18.35,0,0,1-36.7,0V448.79H337Z" transform="translate(-226.58 -351.53)"/><path class="cls-6" d="M373.66,464.39a18.36,18.36,0,1,1-36.71,0V448.76h36.71Z" transform="translate(-226.58 -351.53)"/><path class="cls-15" d="M410.35,464.39a18.36,18.36,0,1,1-36.71,0V448.76h36.71Z" transform="translate(-226.58 -351.53)"/><path class="cls-6" d="M447.05,464.39a18.35,18.35,0,1,1-36.7,0V448.76h36.7Z" transform="translate(-226.58 -351.53)"/><path class="cls-15" d="M482.94,464.51a18.35,18.35,0,1,1-36.7,0V448.87h36.7Z" transform="translate(-226.58 -351.53)"/><path class="cls-6" d="M519.55,464.48a18.35,18.35,0,0,1-36.7,0V448.83h36.7Z" transform="translate(-226.58 -351.53)"/><path class="cls-15" d="M556.29,464.44a18.35,18.35,0,1,1-36.7,0V448.79h36.7Z" transform="translate(-226.58 -351.53)"/><path class="cls-6" d="M593,464.39a18.35,18.35,0,1,1-36.7,0V448.76H593Z" transform="translate(-226.58 -351.53)"/><path class="cls-15" d="M629.67,464.39a18.35,18.35,0,1,1-36.7,0V448.76h36.7Z" transform="translate(-226.58 -351.53)"/><path class="cls-6" d="M666.38,464.39a18.35,18.35,0,1,1-36.7,0V448.76h36.7Z" transform="translate(-226.58 -351.53)"/><path class="cls-15" d="M703.1,464.51a18.35,18.35,0,1,1-36.7,0V448.87h36.7Z" transform="translate(-226.58 -351.53)"/><path class="cls-16" d="M642,630.12a9.85,9.85,0,0,0-9.86-9.85h-120a9.85,9.85,0,0,0-9.86,9.85v8.22H642Z" transform="translate(-226.58 -351.53)"/><polygon class="cls-2" points="439.82 97.35 401.18 52.6 432.69 52.6 476.53 97.35 439.82 97.35"/><polygon class="cls-17" points="439.82 97.35 401.18 52.6 371.85 52.6 403.1 97.23 439.82 97.35"/><polygon class="cls-2" points="366.41 97.23 342.39 52.48 371.85 52.6 403.1 97.23 366.41 97.23"/><polygon class="cls-17" points="366.41 97.23 342.39 52.48 311.51 52.48 329.72 97.27 366.41 97.23"/><polygon class="cls-2" points="292.98 97.31 281.58 52.56 311.51 52.48 329.72 97.27 292.98 97.31"/><polygon class="cls-17" points="292.98 97.31 281.58 52.56 251.75 52.56 256.36 97.35 292.98 97.31"/><polygon class="cls-2" points="219.66 97.35 221.85 52.6 251.75 52.56 256.36 97.35 219.66 97.35"/><polygon class="cls-17" points="219.66 97.35 221.85 52.6 192.85 52.44 183.77 97.23 219.66 97.35"/><polygon class="cls-2" points="37.04 97.35 73.69 52.6 43.17 52.6 0.34 97.35 37.04 97.35"/><polygon class="cls-17" points="37.04 97.35 73.69 52.6 103.02 52.6 73.77 97.23 37.04 97.35"/><polygon class="cls-2" points="110.46 97.23 132.47 52.48 103.02 52.6 73.77 97.23 110.46 97.23"/><polygon class="cls-17" points="110.46 97.23 132.47 52.48 163.36 52.48 147.15 97.27 110.46 97.23"/><polygon class="cls-2" points="183.89 97.31 192.85 52.44 163.36 52.48 147.15 97.27 183.89 97.31"/></g></svg>