<svg id="Layer_1" data-name="Layer 1" xmlns="http://www.w3.org/2000/svg" viewBox="0 0 489.97 502.23"><defs><style>.cls-1{fill:#4c63a4;}.cls-2{fill:#fff;}.cls-3{fill:#3f568a;}.cls-4{fill:#9c9c9c;}.cls-5{fill:#e3e3e3;}.cls-6{fill:#3b5385;}.cls-7{fill:#b6b6b6;}</style></defs><title>SPEAKER</title><path class="cls-1" d="M479.57,669.75C438.18,632,437.35,582.2,447.23,548.11c5.09-17.56,15-29.53,35.57-38.68l76.77-31.66s-51.9,123,50.93,174.92l-77.87,27.73A52.53,52.53,0,0,1,479.57,669.75Z" transform="translate(-442.02 -325)"/><path class="cls-2" d="M700.74,529.87C680.22,450,686.85,376,714.05,343l-.23-.78L559.57,477.77s-51.9,123,50.93,174.92l191,34C762.09,670.32,721.1,609.06,700.74,529.87Z" transform="translate(-442.02 -325)"/><ellipse class="cls-1" cx="785.68" cy="508.03" rx="87.7" ry="187.62" transform="translate(-543.76 -113.39) rotate(-14.42)"/><path class="cls-3" d="M722.52,592.27c29.79,65.78,73.45,106.84,109.87,97.47,34.5-8.87,52.88-60.52,49.93-127.15C808.64,676.45,722.56,592.31,722.52,592.27Z" transform="translate(-442.02 -325)"/><ellipse class="cls-4" cx="793.83" cy="507.79" rx="70.35" ry="165.14" transform="translate(-543.44 -111.37) rotate(-14.42)"/><path class="cls-5" d="M623.6,804.85l-3-12.2a7.77,7.77,0,0,0-6.51-5.88l-16.5-2.23a7.78,7.78,0,0,1-6.38-5.39l-33.6-107.64-25,8.91c-.89.32-1.79.59-2.68.85l35,110.56a9.55,9.55,0,0,0,7.79,6.57L583.89,800l2.75.38h0l1.77.25a6.74,6.74,0,0,1,5.55,4.77l3.71,12.47a6.75,6.75,0,0,1-7.38,8.62l4.88.66a14.54,14.54,0,0,0,10.07-2.35L619.69,815A9.5,9.5,0,0,0,623.6,804.85Z" transform="translate(-442.02 -325)"/><path class="cls-2" d="M594,805.35a6.74,6.74,0,0,0-5.55-4.77L571,798.16a6.75,6.75,0,0,1-5.51-4.65L530,681.27a52.25,52.25,0,0,1-18.06,2.1l44.9,134.72a6.78,6.78,0,0,0,5.51,4.56l28,3.79a6.75,6.75,0,0,0,7.38-8.62Z" transform="translate(-442.02 -325)"/><path class="cls-1" d="M552.39,673.11l12.79,39.45a9.55,9.55,0,0,1-.74,7.63l-6.38,11.49-17-54.52Z" transform="translate(-442.02 -325)"/><path class="cls-6" d="M575,665.07,589.28,707a9.67,9.67,0,0,1-.82,8L583.18,724l-25.12,7.69,6.37-11.47a9.69,9.69,0,0,0,.75-7.67l-12.79-39.43Z" transform="translate(-442.02 -325)"/><path class="cls-2" d="M716.11,473.28h46l19.94,71.77-38.58,33S721.37,528.27,716.11,473.28Z" transform="translate(-442.02 -325)"/><path class="cls-5" d="M784.09,506.39c5.2,20.19,3,38.2-4.83,40.22s-18.44-12.71-23.63-32.91-3-38.2,4.83-40.22S778.9,486.19,784.09,506.39Z" transform="translate(-442.02 -325)"/><path class="cls-5" d="M722.52,592.27l-164.11,9.66c9.5,19.42,25.69,37.43,52.09,50.76l191,34C773.27,675,744.21,640.18,722.52,592.27Z" transform="translate(-442.02 -325)"/><path class="cls-7" d="M862,490.27c-22.71-88.33-71.62-152.09-109.25-142.42-21.26,5.47-34.37,33.22-37.65,72.27,4-5.49,8.91-9.19,14.62-10.66,27.35-7,62.88,39.31,79.38,103.49s7.71,121.91-19.63,128.94a22.89,22.89,0,0,1-7.06.63c17.6,19.67,36.16,29.43,52.57,25.21C872.57,658.05,884.66,578.61,862,490.27Z" transform="translate(-442.02 -325)"/><path class="cls-3" d="M558.41,601.93h0L456.33,640.76a116.41,116.41,0,0,0,23.24,29,52.53,52.53,0,0,0,53.06,10.67l77.87-27.73C584.1,639.36,567.91,621.35,558.41,601.93Z" transform="translate(-442.02 -325)"/><polygon class="cls-5" points="402.85 38.2 417.9 6.11 434.39 29.47 402.85 38.2"/><polygon class="cls-5" points="444.55 121.38 470.58 96.33 475.87 121.74 444.55 121.38"/><polygon class="cls-5" points="458.25 215.83 489.97 204.65 489.97 234.97 458.25 215.83"/><polygon class="cls-5" points="449.69 314.49 474.11 343.7 485.16 314.49 449.69 314.49"/></svg>