<svg xmlns="http://www.w3.org/2000/svg" viewBox="0 0 1122 1122"><defs><style>.cls-1{isolation:isolate;}.cls-2,.cls-4{fill:#fff;}.cls-3{fill:#3a414b;}.cls-4{mix-blend-mode:soft-light;}.cls-5,.cls-6{fill:#c6c6c5;}.cls-5{mix-blend-mode:multiply;}</style></defs><title>waqood-min</title><g class="cls-1"><g id="BG"><rect class="cls-2" width="1122" height="1122"/></g><g id="Icon"><rect class="cls-3" x="479.22" y="242.71" width="216.78" height="354.74" rx="9.33"/><path class="cls-4" d="M674.07,583.09a8.61,8.61,0,0,0,8.61-8.6v-310a8.62,8.62,0,0,0-8.61-8.61L625,250.8H680a8.88,8.88,0,0,1,8.88,8.87V579.32a8.88,8.88,0,0,1-8.88,8.87H613.32Z"/><path class="cls-5" d="M671.9,556.49c-43.95-11-77-43.32-100.89-80.48-12.87-20-24.11-41.3-32.37-63.63a335.27,335.27,0,0,1-18.14-78.2c-3-25.75-3.12-51.76-2.71-77.66q.11-6.9.44-13.81H488.55a9.33,9.33,0,0,0-9.33,9.33V588.12a9.33,9.33,0,0,0,9.33,9.33H686.67a9.33,9.33,0,0,0,9.33-9.33V560.8A181.48,181.48,0,0,1,671.9,556.49Z"/><rect class="cls-2" x="498.89" y="268.68" width="177.45" height="290.38" rx="7.64"/><path class="cls-5" d="M671.38,507.33c-39.38-7.51-75.92-27.14-101.61-58.28a201.18,201.18,0,0,1-31.22-52.66c-9.58-23.58-18.16-47.78-22.87-72.86a234.18,234.18,0,0,1-4-54.85h-5.14a7.64,7.64,0,0,0-7.64,7.64v275.1a7.64,7.64,0,0,0,7.64,7.64H668.7a7.64,7.64,0,0,0,7.64-7.64V508.2C674.68,507.93,673,507.64,671.38,507.33Z"/><path class="cls-6" d="M616.47,578.43a6.22,6.22,0,0,1-6.22,6.22H565a6.21,6.21,0,0,1-6.22-6.22h0a6.21,6.21,0,0,1,6.22-6.21h45.27a6.22,6.22,0,0,1,6.22,6.21Z"/><path class="cls-5" d="M565,584.65h45.27a6.22,6.22,0,0,0,6.22-6.22H558.76A6.21,6.21,0,0,0,565,584.65Z"/></g></g></svg>